<svg width="39" height="67" viewBox="0 0 39 67" fill="none" xmlns="http://www.w3.org/2000/svg">
<path d="M5.46901 30.1771H6.27406V30.8358H5.46901C5.17627 30.8358 5.0299 31.0553 5.0299 31.2749V33.6168C5.0299 33.9828 5.24946 34.3487 5.61538 34.4951L6.34724 34.7878L6.0545 35.3733L5.32265 35.0806C4.73716 34.7878 4.37123 34.2755 4.37123 33.6168V31.2749C4.29804 30.6894 4.81034 30.1771 5.46901 30.1771Z" fill="#61B6F2"/>
<path d="M33.5725 30.1774H32.7675V30.836H33.5725C33.8653 30.836 34.0117 31.0556 34.0117 31.2751V33.6171C34.0117 33.983 33.7921 34.3489 33.4262 34.4953L32.6943 34.788L32.9871 35.3735L33.7189 35.0808C34.3044 34.7881 34.6703 34.2758 34.6703 33.6171V31.2751C34.7435 30.6897 34.2312 30.1774 33.5725 30.1774Z" fill="#61B6F2"/>
<path d="M4.95605 55.28L4.95605 10.0513C4.95605 8.51442 5.46836 7.12389 6.2734 5.95292C6.34658 5.87973 6.41977 5.80656 6.41977 5.73337V5.66018C6.41977 2.95231 8.46896 0.610374 11.1768 0.244453C11.3232 0.244453 11.4696 0.244446 11.6159 0.171257H27.424C27.6436 0.171257 27.79 0.171265 27.9363 0.244453C30.6442 0.683563 32.6202 2.95232 32.6202 5.73337C32.6934 5.80656 32.7666 5.87973 32.7666 5.95292C33.5716 7.12389 34.0839 8.51442 34.0839 10.0513V55.28C34.0839 60.0371 30.7906 64.1355 26.1067 65.1601L24.7162 65.4528C21.2764 66.1847 17.7635 66.1847 14.397 65.4528L13.0065 65.1601C8.32259 64.1355 4.95605 60.0371 4.95605 55.28Z" fill="#168CE1"/>
<path d="M11.689 27.6161C11.689 33.6173 11.1035 37.5693 11.1035 37.5693C10.9572 38.5207 10.8108 39.5453 10.5912 40.4967L7.73701 52.1332L6.7124 57.2562C6.7124 57.2562 10.2985 63.6965 19.5199 63.9893C23.6915 64.1357 31.8151 60.7691 32.3274 57.2562L31.3028 52.2064L28.4485 40.5699C28.229 39.6185 28.0094 38.6671 27.9362 37.6425C27.9362 37.6425 27.3507 33.6904 27.3507 27.6892V15.3209V2.65975C27.3507 2.65975 27.058 2.65975 26.9848 2.65975C26.9848 2.65975 11.689 2.65975 11.6158 2.65975L11.5427 15.3209L11.689 27.6161Z" fill="#61B6F2"/>
<path d="M9.85938 52.4257H29.034L24.8624 64.2818L24.1306 64.4281C22.5937 64.7209 21.0568 64.9404 19.5199 64.9404C17.983 64.9404 16.4461 64.794 14.9092 64.4281L14.1773 64.2818L9.85938 52.4257Z" fill="#168CE1"/>
<path d="M10.9569 39.0324C13.2257 39.5447 16.0799 39.9107 19.3733 39.9107C22.8862 39.9107 25.8136 39.4716 28.1555 39.0324C29.1801 43.4236 30.2779 47.7415 31.3025 52.1327C28.8874 53.0841 24.8622 54.4014 19.666 54.4746C14.3235 54.4746 10.0787 53.1573 7.66357 52.1327C8.83454 47.7415 9.85914 43.4236 10.9569 39.0324Z" fill="#303043"/>
<path d="M18.4216 53.4502C18.7876 53.4502 19.1535 53.4502 19.5194 53.4502H19.739C22.886 53.4502 25.9598 52.9379 28.8872 51.9865C29.619 51.7669 30.0581 50.9619 29.9118 50.23L27.7894 41.4478C27.643 40.7159 26.9112 40.2036 26.1793 40.35C24.9351 40.5695 23.6178 40.7159 22.3737 40.7891C19.5194 44.302 18.1289 48.9127 18.4216 53.4502Z" fill="#575772"/>
<path d="M10.1521 51.9865C12.7868 52.8647 15.5678 53.377 18.3489 53.4502C18.0561 48.9127 19.4467 44.302 22.2277 40.7891C21.2763 40.8623 20.3981 40.8623 19.4467 40.8623H19.2271C17.1047 40.8623 14.9824 40.7159 12.86 40.35C12.1281 40.2036 11.3963 40.7159 11.1767 41.4478L9.05431 50.23C8.98112 50.9619 9.42024 51.7669 10.1521 51.9865Z" fill="#6E6E8B"/>
<path d="M13.8118 28.0548H25.302C25.8143 28.0548 26.1802 28.4207 26.1802 28.933V34.861C26.1802 35.3733 25.8143 35.7393 25.302 35.7393H13.8118C13.2995 35.7393 12.9336 35.3733 12.9336 34.861V28.8598C12.9336 28.4207 13.2995 28.0548 13.8118 28.0548Z" fill="#303043"/>
<path d="M25.302 28.7134C25.3752 28.7134 25.4484 28.7866 25.4484 28.8597V34.861C25.4484 34.9341 25.3752 35.0073 25.302 35.0073H13.8119C13.7387 35.0073 13.6655 34.9341 13.6655 34.861V28.8597C13.6655 28.7866 13.7387 28.7134 13.8119 28.7134H25.302Z" fill="#575772"/>
<path d="M27.351 3.02526H27.4974V15.2473L27.4974 27.6156C27.4974 33.5437 28.0829 37.4957 28.0829 37.5689C28.2292 38.5203 28.3756 39.5449 28.5952 40.4963L31.303 52.1328L28.3756 40.4963C28.1561 39.5449 27.9365 38.5203 27.8633 37.5689C27.8633 37.4957 27.2778 33.5437 27.2778 27.6156L27.2778 15.2473V3.02526H27.351Z" fill="#1379DA"/>
<path d="M28.814 26.811V30.1776C28.814 33.6905 29.2531 37.2766 30.0581 40.7163L32.6196 51.1086V27.6892L28.814 26.811Z" fill="#303043"/>
<path d="M32.6196 24.4692V15.0283C32.6196 13.8573 31.2291 13.2718 30.3509 14.0769C29.3263 15.1015 28.814 16.4188 28.814 17.8093V23.5178L32.6196 24.4692Z" fill="#303043"/>
<path d="M10.2969 26.811V30.1776C10.2969 33.6905 9.85775 37.2766 9.05271 40.7163L6.49121 51.1086L6.49121 27.6892L10.2969 26.811Z" fill="#303043"/>
<path d="M6.41895 24.4692L6.41895 15.0283C6.41895 13.8573 7.80947 13.2718 8.68769 14.0769C9.71229 15.1015 10.2246 16.4188 10.2246 17.8093V23.5178L6.41895 24.4692Z" fill="#303043"/>
<path d="M22.9598 56.0852C23.033 56.0852 23.1062 56.1584 23.1062 56.2316V56.5975C23.1062 56.6707 23.033 56.7439 22.9598 56.7439C22.8867 56.7439 22.8135 56.6707 22.8135 56.5975V56.2316C22.8135 56.1584 22.8867 56.0852 22.9598 56.0852Z" fill="#303043"/>
<path d="M16.1537 56.0847C16.2269 56.0847 16.3001 56.1579 16.3001 56.2311V56.597C16.3001 56.6702 16.2269 56.7434 16.1537 56.7434C16.0805 56.7434 16.0073 56.6702 16.0073 56.597V56.2311C16.0073 56.1579 16.0805 56.0847 16.1537 56.0847Z" fill="#303043"/>
<path d="M6.41992 8.51416V5.73312C6.41992 3.02525 8.46912 0.683309 11.177 0.244195C11.3234 0.244195 11.4697 0.24419 11.6161 0.171005L27.4242 0.171005C27.6437 0.171005 27.7901 0.171009 27.9365 0.244195C30.6444 0.683309 32.6204 2.95206 32.6204 5.73312V8.51416C32.6204 5.80629 30.6444 3.46435 27.9365 3.02524C27.7901 3.02524 27.6437 2.95205 27.4242 2.95205L11.6161 2.95205C11.4697 2.95205 11.3234 2.95205 11.177 3.02524C8.46912 3.39117 6.49311 5.80629 6.41992 8.51416Z" fill="#1379DA"/>
<path d="M6.27344 50.4497L6.27344 6.02605C6.34662 5.95286 6.41981 5.87966 6.41981 5.80648L6.41981 50.4497H6.27344Z" fill="#1379DA"/>
<path d="M11.6161 24.7618L11.6893 24.9081L6.4931 26.0791L6.41992 25.9327L11.6161 24.7618Z" fill="#1379DA"/>
<path d="M32.6201 50.45V5.80672C32.6933 5.87991 32.7665 5.95311 32.7665 6.02629V50.45H32.6201Z" fill="#1379DA"/>
<path d="M27.4238 24.7618L32.62 25.9327V26.0791L27.4238 24.9081V24.7618Z" fill="#1379DA"/>
<path d="M24.7165 12.1003C24.936 12.1003 25.1556 12.3199 25.1556 12.5394V24.9078C25.1556 25.1274 24.936 25.3469 24.7165 25.3469C24.4969 25.3469 24.2773 25.1274 24.2773 24.9078V12.5394C24.2773 12.3199 24.4969 12.1003 24.7165 12.1003Z" fill="#168CE1"/>
<path d="M21.2038 12.1003C21.4233 12.1003 21.6429 12.3199 21.6429 12.5394V24.9078C21.6429 25.1274 21.4233 25.3469 21.2038 25.3469C20.9842 25.3469 20.7646 25.1274 20.7646 24.9078V12.5394C20.7646 12.3199 20.9842 12.1003 21.2038 12.1003Z" fill="#168CE1"/>
<path d="M17.6911 12.1003C17.9106 12.1003 18.1302 12.3199 18.1302 12.5394V24.9078C18.1302 25.1274 17.9106 25.3469 17.6911 25.3469C17.4715 25.3469 17.252 25.1274 17.252 24.9078V12.5394C17.252 12.3199 17.4715 12.1003 17.6911 12.1003Z" fill="#168CE1"/>
<path d="M14.1774 12.1001C14.3969 12.1001 14.6165 12.3196 14.6165 12.5392V24.9076C14.6165 25.1271 14.3969 25.3467 14.1774 25.3467C13.9578 25.3467 13.7383 25.1271 13.7383 24.9076V12.5392C13.7383 12.3196 13.8846 12.1001 14.1774 12.1001Z" fill="#168CE1"/>
<path d="M11.5424 3.02526H11.6888V15.2473L11.6888 27.6156C11.6888 33.5437 11.1033 37.4957 11.1033 37.5689C10.9569 38.5203 10.8106 39.5449 10.591 40.4963L7.66357 52.1328L10.3714 40.4963C10.591 39.5449 10.8106 38.5935 10.8837 37.5689C10.8837 37.4957 11.4692 33.5437 11.4692 27.6156V15.2473L11.4692 3.02526H11.5424Z" fill="#1379DA"/>
<path d="M35.1088 49.6449L32.4009 50.084L32.6204 51.1086L35.3283 50.5963L35.1088 49.6449Z" fill="#303043"/>
<path d="M33.5718 49.5719V50.9624L36.2797 50.4501C37.597 50.2305 38.6216 49.206 38.9143 47.8886L33.7913 48.84C33.645 49.0596 33.5718 49.2791 33.5718 49.5719Z" fill="#61B6F2"/>
<path d="M38.8408 47.8887C38.914 47.6691 38.914 47.4496 38.914 47.23L34.8887 47.9619C34.3764 48.035 33.9373 48.401 33.7178 48.8401L38.8408 47.8887Z" fill="#303043"/>
<path d="M4.00472 49.6449L6.71258 50.084L6.49302 51.1086L3.78516 50.5963L4.00472 49.6449Z" fill="#303043"/>
<path d="M5.54079 49.5716V50.9622L2.83292 50.4499C1.51558 50.2303 0.490985 49.2057 0.198242 47.8884L5.32123 48.8398C5.46761 49.0593 5.54079 49.2789 5.54079 49.5716Z" fill="#61B6F2"/>
<path d="M0.199167 47.8884C0.125981 47.6689 0.125977 47.4493 0.125977 47.2298L4.15119 47.9616C4.66348 48.0348 5.1026 48.4007 5.32216 48.8398L0.199167 47.8884Z" fill="#303043"/>
<path d="M27.4969 11.2954C25.8137 10.6367 23.0326 9.75853 19.5197 9.75853C15.9336 9.75853 13.1526 10.6367 11.5425 11.2954C11.5425 9.02666 11.5425 5.22101 11.5425 2.95226C13.6649 2.36677 15.8604 1.7813 19.3733 1.70811C23.0326 1.70811 25.3746 2.29358 27.4969 2.95226C27.4969 5.22101 27.4969 9.09984 27.4969 11.2954Z" fill="#303043"/>
<path d="M26.8384 9.83173C26.8384 10.0513 26.6189 10.2708 26.3993 10.1977C24.2037 9.4658 21.935 9.17306 19.593 9.09987C17.2511 9.09987 14.9823 9.4658 12.7868 10.1977C12.5672 10.2708 12.3477 10.1245 12.3477 9.83173V3.97688C12.3477 3.68414 12.494 3.46459 12.7868 3.39141C14.6896 2.87911 16.5924 2.51319 19.5198 2.44H19.6662C22.5936 2.44 24.5696 2.80592 26.5457 3.39141C26.8384 3.46459 26.9848 3.68414 26.9848 3.97688V9.83173H26.8384Z" fill="#575772"/>
<path d="M27.2773 62.4521C27.2773 62.4521 27.3505 62.3789 27.2773 62.4521L28.6679 61.0616C28.9606 61.1348 29.1802 61.1348 29.4729 61.1348C29.6193 61.1348 29.6925 61.1348 29.7657 61.1348C30.4243 61.0616 31.083 60.7689 31.5221 60.3297C31.2294 61.7203 29.9852 62.7449 28.5215 62.7449C28.302 62.7449 28.0824 62.7449 27.936 62.6717C27.8628 62.6717 27.7896 62.6717 27.6433 62.5985C27.5701 62.5985 27.4237 62.5253 27.2773 62.4521Z" fill="#EDEDF4"/>
<path d="M7.59131 60.4029C8.10361 60.7689 8.6891 61.0616 9.34777 61.1348C9.42096 61.1348 9.49414 61.1348 9.56733 61.1348C9.86007 61.1348 10.1528 61.0616 10.4456 60.9884L11.7629 62.3789L11.8361 62.4521C11.6897 62.5253 11.5433 62.5985 11.397 62.5985C11.3238 62.5985 11.2506 62.6717 11.1042 62.6717C10.8847 62.7449 10.7383 62.7449 10.5187 62.7449C9.12821 62.7449 7.88405 61.7203 7.59131 60.4029Z" fill="#EDEDF4"/>
<path d="M28.6675 61.0613L31.1558 58.4267L31.229 58.3535C31.3753 58.6462 31.5217 58.939 31.5217 59.3049C31.5217 59.3781 31.5217 59.5244 31.5217 59.5976C31.5217 59.6708 31.5217 59.6708 31.5217 59.744C31.5217 59.9636 31.5217 60.1831 31.4485 60.3295C31.0094 60.7686 30.3507 61.0613 29.6921 61.1345C29.6189 61.1345 29.4725 61.1345 29.3993 61.1345C29.1798 61.1345 28.887 61.1345 28.6675 61.0613Z" fill="#DBDBE8"/>
<path d="M7.51709 59.671C7.51709 59.5978 7.51709 59.5978 7.51709 59.5246C7.51709 59.4514 7.51709 59.3783 7.51709 59.2319C7.59028 58.866 7.66346 58.5732 7.80983 58.2805L7.88302 58.3537L10.3713 60.9152C10.0786 60.9883 9.78584 61.0615 9.4931 61.0615C9.41991 61.0615 9.34673 61.0615 9.27354 61.0615C8.61487 60.9883 8.02939 60.7688 7.51709 60.3297C7.51709 60.1833 7.51709 59.9637 7.51709 59.671Z" fill="#DBDBE8"/>
<path d="M6.7124 57.7682V57.1827C6.78559 57.1827 7.81018 58.2805 9.05434 59.5247C11.6158 62.0862 15.0556 63.4767 18.6417 63.4767H20.3981C23.9842 63.4767 27.4239 62.013 29.9854 59.5247C31.2296 58.2805 32.3274 57.1827 32.3274 57.1827V57.7682C32.3274 58.4269 32.0346 59.0856 31.5223 59.5979C31.5223 59.5979 31.0832 59.9638 30.4977 60.4761C27.6435 62.8912 23.9842 64.2817 20.2517 64.2817H18.7148C14.9824 64.2817 11.3231 62.9644 8.46886 60.4761C7.88338 59.9638 7.51745 59.671 7.51745 59.5979C7.00515 59.0856 6.7124 58.4269 6.7124 57.7682Z" fill="#303043"/>
</svg>
