<svg width="134" height="58" viewBox="0 0 134 58" fill="none" xmlns="http://www.w3.org/2000/svg">
<path fill-rule="evenodd" clip-rule="evenodd" d="M5.81748 26.7488C2.95722 30.232 1.68101 33.7049 2.06038 37.0206C2.43974 40.3363 4.46401 43.4016 8.0305 46.091C11.5982 48.7813 16.6274 51.0277 22.7993 52.6952C35.1368 56.0284 51.8326 56.993 69.9468 54.7557C88.061 52.5185 104.074 47.5141 115.315 41.2687C120.939 38.1444 125.321 34.7357 128.183 31.2513C131.043 27.7681 132.319 24.2952 131.94 20.9795C131.56 17.6638 129.536 14.5985 125.97 11.9091C122.402 9.21878 117.373 6.97243 111.201 5.30496C98.8632 1.97173 82.1674 1.00712 64.0532 3.24437C45.939 5.48161 29.9261 10.486 18.6846 16.7314C13.0609 19.8557 8.67872 23.2645 5.81748 26.7488ZM63.9358 2.21797C27.525 6.71498 -0.619843 22.3513 1.07249 37.1426C2.76482 51.934 33.6535 60.2792 70.0642 55.7821C106.475 51.2851 134.62 35.6488 132.928 20.8575C131.235 6.06616 100.347 -2.27904 63.9358 2.21797Z" stroke="url(#paint0_linear)" stroke-width="1.5"/>
<path fill-rule="evenodd" clip-rule="evenodd" d="M5.81748 26.7488C2.95722 30.232 1.68101 33.7049 2.06038 37.0206C2.43974 40.3363 4.46401 43.4016 8.0305 46.091C11.5982 48.7813 16.6274 51.0277 22.7993 52.6952C35.1368 56.0284 51.8326 56.993 69.9468 54.7557C88.061 52.5185 104.074 47.5141 115.315 41.2687C120.939 38.1444 125.321 34.7357 128.183 31.2513C131.043 27.7681 132.319 24.2952 131.94 20.9795C131.56 17.6638 129.536 14.5985 125.97 11.9091C122.402 9.21878 117.373 6.97243 111.201 5.30496C98.8632 1.97173 82.1674 1.00712 64.0532 3.24437C45.939 5.48161 29.9261 10.486 18.6846 16.7314C13.0609 19.8557 8.67872 23.2645 5.81748 26.7488ZM63.9358 2.21797C27.525 6.71498 -0.619843 22.3513 1.07249 37.1426C2.76482 51.934 33.6535 60.2792 70.0642 55.7821C106.475 51.2851 134.62 35.6488 132.928 20.8575C131.235 6.06616 100.347 -2.27904 63.9358 2.21797Z" stroke="url(#paint1_linear)" stroke-width="1.5"/>
<defs>
<linearGradient id="paint0_linear" x1="-2.575" y1="-4.05542" x2="146.922" y2="27.8014" gradientUnits="userSpaceOnUse">
<stop stop-color="#05A0EE"/>
<stop offset="1" stop-color="#EC4CFF"/>
</linearGradient>
<linearGradient id="paint1_linear" x1="70.0646" y1="55.7822" x2="63.4563" y2="2.27725" gradientUnits="userSpaceOnUse">
<stop stop-opacity="0"/>
<stop offset="1" stop-opacity="0.61"/>
</linearGradient>
</defs>
</svg>
