<svg width="477" height="471" viewBox="0 0 477 471" fill="none" xmlns="http://www.w3.org/2000/svg">
<g opacity="0.7">
<path d="M101.784 39.6699C101.629 39.782 101.511 39.9375 101.445 40.1166C101.378 40.2958 101.367 40.4906 101.411 40.6764C101.455 40.8623 101.553 41.0308 101.693 41.1608C101.833 41.2908 102.009 41.3764 102.197 41.4067C102.386 41.437 102.579 41.4108 102.753 41.3312C102.926 41.2517 103.072 41.1224 103.173 40.9598C103.273 40.7972 103.323 40.6085 103.316 40.4176C103.309 40.2266 103.246 40.0421 103.134 39.8871C103.06 39.784 102.966 39.6967 102.858 39.6299C102.749 39.5632 102.629 39.5185 102.504 39.4983C102.378 39.4782 102.25 39.4829 102.127 39.5124C102.003 39.5418 101.887 39.5954 101.784 39.6699Z" fill="#B9B9D9"/>
<path d="M136.282 20.1504C136.115 20.2718 135.987 20.44 135.916 20.6337C135.844 20.8275 135.832 21.0381 135.88 21.239C135.928 21.4399 136.034 21.622 136.186 21.7624C136.337 21.9027 136.527 21.9949 136.731 22.0274C136.935 22.0599 137.144 22.0312 137.332 21.9449C137.519 21.8585 137.677 21.7185 137.785 21.5425C137.893 21.3665 137.947 21.1624 137.939 20.9559C137.931 20.7495 137.862 20.5501 137.741 20.3828C137.578 20.1589 137.333 20.0087 137.059 19.9651C136.786 19.9216 136.506 19.9882 136.282 20.1504Z" fill="#B9B9D9"/>
<path d="M179.048 8.10604C178.963 8.16832 178.898 8.25449 178.862 8.35366C178.826 8.45283 178.82 8.56055 178.844 8.6632C178.869 8.76586 178.924 8.85885 179.001 8.93042C179.079 9.00199 179.176 9.04893 179.281 9.06531C179.385 9.08169 179.492 9.06677 179.587 9.02244C179.683 8.97811 179.764 8.90636 179.819 8.81626C179.874 8.72615 179.901 8.62173 179.897 8.51619C179.893 8.41065 179.857 8.30874 179.795 8.22332C179.754 8.16651 179.702 8.11841 179.642 8.08177C179.582 8.04512 179.516 8.02065 179.446 8.00976C179.377 7.99887 179.306 8.00176 179.238 8.01829C179.169 8.03481 179.105 8.06463 179.048 8.10604Z" fill="#B9B9D9"/>
<path d="M252.649 5.69974C252.602 5.73597 252.566 5.78528 252.547 5.84155C252.528 5.89782 252.525 5.95858 252.54 6.01627C252.554 6.07396 252.586 6.12606 252.63 6.16609C252.674 6.20611 252.729 6.23232 252.788 6.24144C252.846 6.25056 252.907 6.2422 252.961 6.21739C253.015 6.19259 253.06 6.15243 253.092 6.10191C253.124 6.05138 253.139 5.99272 253.138 5.93319C253.136 5.87366 253.117 5.8159 253.083 5.76706C253.06 5.73312 253.03 5.70431 252.995 5.68239C252.96 5.66047 252.922 5.64591 252.881 5.63961C252.84 5.6333 252.799 5.63539 252.759 5.64573C252.719 5.65607 252.682 5.67445 252.649 5.69974Z" fill="#B9B9D9"/>
<path d="M275.197 9.13325C275.119 9.19037 275.059 9.26946 275.026 9.36052C274.992 9.45159 274.986 9.55054 275.009 9.64487C275.032 9.7392 275.082 9.82469 275.153 9.89052C275.224 9.95636 275.313 9.99959 275.409 10.0148C275.505 10.0299 275.603 10.0163 275.691 9.97572C275.779 9.93511 275.853 9.86929 275.904 9.78657C275.955 9.70386 275.98 9.60796 275.976 9.51101C275.972 9.41405 275.94 9.32038 275.883 9.24184C275.845 9.18959 275.797 9.14533 275.742 9.1116C275.687 9.07786 275.626 9.0553 275.563 9.04522C275.499 9.03513 275.434 9.03771 275.371 9.05282C275.308 9.06793 275.249 9.09526 275.197 9.13325Z" fill="#B9B9D9"/>
<path d="M342.835 35.6001C342.624 35.7503 342.463 35.9598 342.372 36.2018C342.281 36.4439 342.264 36.7076 342.323 36.9594C342.382 37.2111 342.515 37.4396 342.704 37.6156C342.894 37.7917 343.131 37.9074 343.387 37.9479C343.642 37.9885 343.904 37.9521 344.138 37.8435C344.373 37.7348 344.57 37.5587 344.704 37.3377C344.838 37.1167 344.904 36.8607 344.892 36.6023C344.881 36.3439 344.792 36.0949 344.639 35.8868C344.436 35.6119 344.133 35.4277 343.795 35.3741C343.458 35.3205 343.113 35.4017 342.835 35.6001Z" fill="#B9B9D9"/>
<path d="M362.287 47.6728C362.095 47.8128 361.949 48.0066 361.867 48.2298C361.785 48.453 361.77 48.6955 361.826 48.9267C361.882 49.1579 362.005 49.3674 362.179 49.5288C362.354 49.6902 362.572 49.7962 362.807 49.8335C363.042 49.8708 363.282 49.8376 363.498 49.7382C363.714 49.6388 363.896 49.4776 364.02 49.275C364.144 49.0724 364.206 48.8374 364.197 48.5998C364.188 48.3622 364.109 48.1326 363.97 47.9399C363.782 47.6814 363.499 47.508 363.184 47.4579C362.868 47.4078 362.546 47.4851 362.287 47.6728Z" fill="#B9B9D9"/>
<path d="M441.124 165.954C441.212 165.887 441.278 165.795 441.314 165.69C441.35 165.585 441.354 165.472 441.325 165.365C441.297 165.258 441.238 165.162 441.155 165.088C441.072 165.015 440.969 164.968 440.859 164.953C440.749 164.938 440.638 164.956 440.538 165.005C440.439 165.054 440.356 165.131 440.3 165.226C440.244 165.322 440.218 165.432 440.225 165.543C440.232 165.653 440.271 165.759 440.338 165.847C440.382 165.906 440.438 165.956 440.502 165.993C440.565 166.03 440.636 166.055 440.709 166.065C440.782 166.074 440.856 166.07 440.927 166.051C440.998 166.032 441.065 165.999 441.124 165.954Z" fill="#B9B9D9"/>
<path d="M420.399 167.891C420.536 167.787 420.639 167.645 420.695 167.483C420.752 167.32 420.759 167.145 420.715 166.979C420.672 166.812 420.58 166.663 420.451 166.549C420.323 166.435 420.163 166.361 419.993 166.338C419.823 166.314 419.65 166.342 419.495 166.417C419.341 166.492 419.212 166.612 419.125 166.76C419.039 166.908 418.998 167.079 419.008 167.251C419.019 167.422 419.079 167.587 419.183 167.724C419.323 167.907 419.529 168.028 419.757 168.059C419.985 168.09 420.216 168.03 420.399 167.891Z" fill="#B9B9D9"/>
<path d="M405.812 137.921C405.953 137.813 406.06 137.665 406.118 137.496C406.175 137.327 406.182 137.144 406.136 136.972C406.09 136.799 405.995 136.644 405.861 136.526C405.727 136.408 405.561 136.332 405.384 136.308C405.207 136.284 405.027 136.313 404.867 136.392C404.707 136.47 404.573 136.594 404.483 136.748C404.393 136.902 404.351 137.08 404.362 137.258C404.373 137.436 404.436 137.607 404.544 137.75C404.616 137.844 404.706 137.924 404.808 137.984C404.911 138.044 405.024 138.083 405.142 138.099C405.26 138.115 405.38 138.107 405.495 138.077C405.609 138.046 405.717 137.993 405.812 137.921Z" fill="#B9B9D9"/>
<path d="M453.994 215.717C453.916 215.774 453.856 215.853 453.823 215.944C453.789 216.035 453.783 216.134 453.806 216.229C453.829 216.323 453.879 216.408 453.95 216.474C454.021 216.54 454.111 216.583 454.206 216.598C454.302 216.614 454.4 216.6 454.488 216.559C454.576 216.519 454.651 216.453 454.701 216.37C454.752 216.288 454.777 216.192 454.773 216.095C454.769 215.998 454.737 215.904 454.68 215.825C454.642 215.773 454.595 215.728 454.54 215.695C454.485 215.661 454.424 215.638 454.36 215.628C454.296 215.618 454.231 215.62 454.168 215.636C454.105 215.651 454.046 215.679 453.994 215.717Z" fill="#B9B9D9"/>
<path d="M455.473 238.457C455.413 238.501 455.367 238.561 455.341 238.631C455.315 238.701 455.31 238.776 455.328 238.849C455.345 238.921 455.383 238.987 455.438 239.037C455.493 239.088 455.561 239.121 455.635 239.132C455.708 239.144 455.783 239.134 455.851 239.102C455.918 239.071 455.975 239.021 456.014 238.957C456.052 238.893 456.071 238.82 456.068 238.746C456.065 238.671 456.04 238.599 455.996 238.539C455.938 238.459 455.85 238.406 455.752 238.39C455.653 238.375 455.553 238.399 455.473 238.457Z" fill="#B9B9D9"/>
<path d="M446.165 281.305C445.939 281.47 445.767 281.697 445.67 281.96C445.573 282.222 445.557 282.507 445.622 282.779C445.688 283.051 445.832 283.297 446.037 283.487C446.242 283.676 446.499 283.801 446.775 283.845C447.051 283.888 447.334 283.849 447.588 283.732C447.841 283.615 448.055 283.426 448.201 283.187C448.347 282.949 448.419 282.673 448.408 282.393C448.397 282.114 448.304 281.844 448.14 281.618C448.031 281.467 447.893 281.34 447.735 281.243C447.576 281.146 447.4 281.081 447.217 281.052C447.034 281.023 446.846 281.03 446.666 281.074C446.485 281.117 446.315 281.196 446.165 281.305Z" fill="#B9B9D9"/>
<path d="M438.423 316.531C438.243 316.662 438.107 316.843 438.03 317.052C437.953 317.261 437.94 317.487 437.992 317.704C438.044 317.92 438.16 318.116 438.323 318.267C438.486 318.418 438.691 318.517 438.91 318.551C439.13 318.586 439.355 318.554 439.557 318.461C439.759 318.368 439.928 318.217 440.044 318.027C440.16 317.837 440.218 317.617 440.209 317.395C440.2 317.173 440.125 316.958 439.995 316.778C439.908 316.658 439.798 316.557 439.672 316.48C439.546 316.402 439.406 316.351 439.26 316.328C439.114 316.305 438.965 316.311 438.822 316.346C438.678 316.38 438.542 316.443 438.423 316.531Z" fill="#B9B9D9"/>
<path d="M413.329 364.174C413.214 364.257 413.127 364.373 413.078 364.506C413.029 364.639 413.02 364.783 413.054 364.921C413.087 365.059 413.16 365.184 413.264 365.28C413.368 365.376 413.498 365.44 413.638 365.462C413.778 365.484 413.921 365.464 414.05 365.405C414.179 365.345 414.287 365.249 414.361 365.128C414.435 365.007 414.471 364.867 414.466 364.726C414.46 364.584 414.413 364.447 414.33 364.333C414.274 364.256 414.205 364.192 414.124 364.143C414.044 364.094 413.955 364.061 413.862 364.046C413.769 364.031 413.674 364.035 413.583 364.057C413.491 364.079 413.405 364.119 413.329 364.174Z" fill="#B9B9D9"/>
<path d="M398.272 385.268C398.161 385.349 398.075 385.462 398.027 385.591C397.979 385.721 397.971 385.862 398.003 385.997C398.035 386.131 398.106 386.253 398.208 386.347C398.309 386.441 398.436 386.503 398.572 386.525C398.709 386.546 398.849 386.527 398.974 386.47C399.1 386.412 399.206 386.318 399.278 386.201C399.351 386.083 399.386 385.946 399.381 385.808C399.376 385.67 399.33 385.536 399.249 385.424C399.195 385.35 399.127 385.287 399.049 385.239C398.971 385.19 398.884 385.158 398.793 385.144C398.703 385.129 398.61 385.133 398.521 385.154C398.431 385.175 398.347 385.214 398.272 385.268Z" fill="#B9B9D9"/>
<path d="M364.256 416.912C364.185 416.962 364.13 417.031 364.099 417.112C364.068 417.193 364.061 417.282 364.081 417.366C364.1 417.451 364.144 417.527 364.208 417.587C364.271 417.646 364.351 417.685 364.436 417.698C364.522 417.712 364.61 417.699 364.688 417.662C364.767 417.626 364.832 417.566 364.877 417.492C364.921 417.417 364.942 417.331 364.937 417.244C364.932 417.158 364.902 417.075 364.849 417.006C364.781 416.917 364.682 416.858 364.571 416.84C364.461 416.823 364.348 416.849 364.256 416.912Z" fill="#B9B9D9"/>
<path d="M341.057 425.33C340.923 425.428 340.821 425.563 340.763 425.719C340.706 425.875 340.696 426.045 340.735 426.206C340.774 426.368 340.86 426.514 340.983 426.627C341.105 426.74 341.258 426.813 341.422 426.839C341.586 426.865 341.754 426.842 341.905 426.772C342.055 426.702 342.182 426.589 342.269 426.447C342.355 426.306 342.398 426.141 342.392 425.975C342.385 425.809 342.329 425.649 342.231 425.515C342.166 425.425 342.085 425.35 341.99 425.292C341.896 425.234 341.792 425.196 341.682 425.179C341.573 425.162 341.462 425.166 341.355 425.192C341.247 425.218 341.146 425.265 341.057 425.33Z" fill="#B9B9D9"/>
<path d="M299.23 453.093C299.102 453.186 299.005 453.315 298.95 453.464C298.896 453.612 298.886 453.773 298.923 453.927C298.96 454.08 299.042 454.22 299.158 454.327C299.274 454.434 299.42 454.504 299.576 454.529C299.732 454.554 299.892 454.531 300.035 454.465C300.178 454.399 300.299 454.291 300.381 454.157C300.464 454.022 300.504 453.866 300.498 453.708C300.492 453.55 300.439 453.397 300.346 453.269C300.284 453.184 300.206 453.112 300.117 453.057C300.028 453.002 299.928 452.966 299.824 452.949C299.721 452.933 299.615 452.937 299.513 452.962C299.411 452.987 299.315 453.031 299.23 453.093Z" fill="#B9B9D9"/>
<path d="M279.129 456.279C279.011 456.365 278.921 456.484 278.871 456.62C278.821 456.757 278.812 456.905 278.846 457.047C278.88 457.188 278.956 457.316 279.063 457.415C279.169 457.514 279.303 457.579 279.447 457.602C279.591 457.624 279.738 457.604 279.87 457.543C280.002 457.482 280.113 457.383 280.189 457.259C280.265 457.135 280.303 456.991 280.297 456.846C280.292 456.7 280.243 456.56 280.158 456.442C280.101 456.364 280.029 456.297 279.947 456.247C279.864 456.196 279.772 456.162 279.677 456.147C279.581 456.132 279.484 456.136 279.39 456.159C279.295 456.181 279.207 456.222 279.129 456.279Z" fill="#B9B9D9"/>
<path d="M187.356 465.388C187.241 465.471 187.154 465.587 187.105 465.721C187.056 465.854 187.048 465.999 187.081 466.137C187.114 466.275 187.188 466.4 187.292 466.496C187.397 466.593 187.527 466.656 187.668 466.678C187.808 466.7 187.952 466.68 188.081 466.621C188.21 466.561 188.318 466.465 188.392 466.344C188.466 466.223 188.503 466.082 188.498 465.94C188.492 465.798 188.445 465.661 188.361 465.546C188.306 465.469 188.236 465.405 188.155 465.355C188.074 465.306 187.985 465.273 187.891 465.258C187.798 465.243 187.703 465.247 187.611 465.269C187.519 465.292 187.432 465.332 187.356 465.388Z" fill="#B9B9D9"/>
<path d="M158.934 452.746C158.694 452.921 158.51 453.163 158.407 453.443C158.304 453.722 158.287 454.026 158.356 454.315C158.426 454.604 158.579 454.867 158.798 455.069C159.017 455.271 159.29 455.403 159.584 455.45C159.878 455.496 160.179 455.454 160.449 455.33C160.719 455.205 160.946 455.003 161.102 454.749C161.257 454.495 161.334 454.201 161.322 453.904C161.31 453.606 161.211 453.319 161.036 453.078C160.92 452.918 160.773 452.782 160.605 452.679C160.436 452.576 160.249 452.507 160.054 452.476C159.859 452.445 159.659 452.453 159.467 452.499C159.275 452.546 159.094 452.629 158.934 452.746Z" fill="#B9B9D9"/>
<path d="M137.072 444.678C136.988 444.739 136.924 444.824 136.887 444.921C136.851 445.019 136.845 445.125 136.869 445.226C136.893 445.327 136.947 445.419 137.024 445.49C137.1 445.56 137.196 445.607 137.298 445.623C137.401 445.639 137.507 445.624 137.601 445.581C137.695 445.537 137.775 445.466 137.829 445.377C137.883 445.288 137.909 445.185 137.905 445.081C137.9 444.977 137.865 444.877 137.804 444.793C137.763 444.737 137.712 444.69 137.654 444.654C137.595 444.618 137.53 444.594 137.462 444.584C137.394 444.573 137.324 444.576 137.258 444.592C137.191 444.608 137.128 444.637 137.072 444.678Z" fill="#B9B9D9"/>
<path d="M83.992 414.026C83.9159 414.081 83.8579 414.158 83.8252 414.246C83.7926 414.334 83.7868 414.43 83.8086 414.522C83.8304 414.613 83.8789 414.696 83.9478 414.76C84.0167 414.824 84.1031 414.866 84.1959 414.881C84.2887 414.896 84.3838 414.883 84.4693 414.843C84.5547 414.804 84.6266 414.741 84.6759 414.661C84.7252 414.58 84.7496 414.488 84.7461 414.394C84.7426 414.3 84.7114 414.209 84.6563 414.133C84.582 414.031 84.4705 413.962 84.3461 413.942C84.2216 413.923 84.0944 413.953 83.992 414.026Z" fill="#B9B9D9"/>
<path d="M44.8351 361.329C44.7044 361.424 44.6046 361.555 44.5485 361.707C44.4924 361.858 44.4824 362.023 44.5198 362.18C44.5572 362.337 44.6404 362.479 44.7588 362.589C44.8771 362.699 45.0254 362.771 45.1848 362.797C45.3442 362.822 45.5076 362.8 45.6543 362.733C45.801 362.665 45.9245 362.556 46.009 362.418C46.0936 362.281 46.1355 362.121 46.1294 361.96C46.1233 361.798 46.0695 361.642 45.9748 361.512C45.8478 361.336 45.6564 361.218 45.4427 361.184C45.229 361.15 45.0104 361.202 44.8351 361.329Z" fill="#B9B9D9"/>
<path d="M22.3914 339.301C22.1387 339.485 21.9461 339.739 21.8378 340.032C21.7296 340.325 21.7107 340.643 21.7834 340.947C21.8562 341.251 22.0173 341.526 22.2465 341.738C22.4757 341.95 22.7626 342.09 23.0709 342.138C23.3792 342.187 23.6952 342.144 23.9787 342.013C24.2622 341.882 24.5006 341.67 24.6637 341.404C24.8269 341.138 24.9074 340.829 24.8951 340.517C24.8828 340.205 24.7783 339.904 24.5947 339.651C24.3488 339.312 23.9785 339.085 23.5654 339.02C23.1522 338.954 22.73 339.055 22.3914 339.301Z" fill="#B9B9D9"/>
<path d="M47.3011 384.404C47.1398 384.522 47.0171 384.685 46.9485 384.872C46.88 385.06 46.8686 385.264 46.9159 385.458C46.9632 385.652 47.0671 385.828 47.2143 385.963C47.3615 386.098 47.5455 386.187 47.7429 386.217C47.9403 386.248 48.1424 386.219 48.3234 386.134C48.5044 386.05 48.6563 385.913 48.7599 385.742C48.8634 385.572 48.9139 385.374 48.905 385.174C48.8961 384.974 48.8282 384.782 48.7099 384.621C48.5516 384.405 48.3144 384.262 48.0503 384.221C47.7862 384.18 47.5168 384.246 47.3011 384.404Z" fill="#B9B9D9"/>
<path d="M1.12421 282.393C0.967098 282.507 0.847329 282.665 0.780053 282.848C0.712777 283.03 0.701022 283.228 0.746267 283.417C0.791512 283.605 0.891723 283.777 1.03423 283.908C1.17674 284.04 1.35514 284.127 1.54685 284.157C1.73857 284.188 1.93499 284.161 2.11127 284.079C2.28754 283.998 2.43575 283.866 2.53714 283.701C2.63853 283.535 2.68855 283.343 2.68087 283.149C2.67318 282.955 2.60814 282.768 2.49398 282.61C2.41843 282.506 2.32302 282.418 2.21323 282.35C2.10343 282.283 1.98142 282.238 1.85416 282.217C1.72691 282.197 1.59692 282.202 1.47166 282.233C1.3464 282.263 1.22832 282.317 1.12421 282.393Z" fill="#B9B9D9"/>
<path d="M1.05049 186.173C0.954209 186.243 0.880948 186.34 0.839964 186.453C0.798981 186.565 0.792111 186.686 0.820223 186.802C0.848334 186.918 0.910168 187.023 0.997911 187.104C1.08566 187.185 1.19538 187.238 1.31322 187.256C1.43105 187.275 1.55172 187.258 1.65999 187.208C1.76825 187.158 1.85925 187.077 1.9215 186.975C1.98374 186.873 2.01444 186.755 2.00971 186.636C2.00499 186.517 1.96504 186.402 1.89493 186.305C1.84845 186.241 1.78963 186.186 1.7219 186.144C1.65417 186.103 1.57887 186.075 1.50034 186.063C1.42181 186.05 1.34162 186.054 1.2644 186.073C1.18719 186.091 1.11448 186.125 1.05049 186.173Z" fill="#B9B9D9"/>
<path d="M9.38624 155.173C9.17447 155.328 9.01317 155.541 8.92274 155.787C8.8323 156.033 8.81681 156.3 8.8782 156.555C8.93959 156.81 9.07511 157.04 9.26763 157.218C9.46015 157.396 9.70102 157.512 9.95976 157.553C10.2185 157.594 10.4835 157.557 10.7212 157.447C10.959 157.337 11.1588 157.159 11.2954 156.935C11.432 156.712 11.4992 156.453 11.4886 156.191C11.478 155.929 11.39 155.676 11.2358 155.464C11.1338 155.323 11.0049 155.204 10.8566 155.113C10.7082 155.022 10.5434 154.961 10.3715 154.934C10.1996 154.907 10.0241 154.914 9.85498 154.955C9.68589 154.996 9.52659 155.071 9.38624 155.173Z" fill="#B9B9D9"/>
<path d="M70.8042 70.6996C70.6383 70.8203 70.5118 70.9875 70.4408 71.1801C70.3698 71.3727 70.3575 71.5821 70.4054 71.7817C70.4533 71.9813 70.5592 72.1622 70.7099 72.3015C70.8605 72.4409 71.0491 72.5325 71.2517 72.5646C71.4544 72.5968 71.662 72.5681 71.8484 72.4823C72.0347 72.3964 72.1915 72.2572 72.2988 72.0822C72.4061 71.9073 72.4591 71.7044 72.4512 71.4993C72.4433 71.2942 72.3748 71.096 72.2543 70.9298C72.0923 70.7073 71.8486 70.5581 71.5768 70.5149C71.305 70.4718 71.0272 70.5382 70.8042 70.6996Z" fill="#B9B9D9"/>
<path d="M164.535 296.677C164.407 296.769 164.31 296.897 164.256 297.045C164.202 297.192 164.192 297.352 164.229 297.505C164.265 297.658 164.346 297.797 164.462 297.904C164.577 298.01 164.722 298.081 164.877 298.105C165.032 298.13 165.191 298.108 165.334 298.042C165.477 297.976 165.597 297.869 165.679 297.735C165.761 297.601 165.801 297.446 165.795 297.289C165.789 297.132 165.736 296.98 165.644 296.853C165.583 296.768 165.506 296.696 165.417 296.642C165.328 296.587 165.229 296.55 165.126 296.534C165.023 296.518 164.917 296.522 164.816 296.546C164.715 296.571 164.619 296.615 164.535 296.677Z" fill="#B9B9D9"/>
<path d="M169.222 342.652C169.126 342.722 169.053 342.819 169.012 342.93C168.971 343.041 168.964 343.162 168.992 343.277C169.02 343.392 169.081 343.497 169.168 343.577C169.255 343.658 169.364 343.71 169.481 343.729C169.598 343.747 169.718 343.731 169.825 343.681C169.933 343.631 170.023 343.551 170.085 343.45C170.147 343.349 170.178 343.232 170.173 343.114C170.169 342.995 170.129 342.881 170.059 342.785C170.013 342.721 169.955 342.667 169.888 342.626C169.82 342.584 169.746 342.557 169.668 342.545C169.59 342.532 169.511 342.536 169.434 342.554C169.357 342.572 169.285 342.606 169.222 342.652Z" fill="#B9B9D9"/>
<path d="M127.709 66.8426C127.564 66.9481 127.453 67.0942 127.391 67.2626C127.329 67.431 127.318 67.614 127.36 67.7886C127.402 67.9632 127.494 68.1215 127.626 68.2434C127.758 68.3654 127.922 68.4455 128.1 68.4737C128.277 68.502 128.458 68.477 128.621 68.402C128.784 68.327 128.922 68.2053 129.016 68.0524C129.109 67.8994 129.156 67.722 129.149 67.5426C129.142 67.3633 129.082 67.1899 128.977 67.0446C128.835 66.85 128.623 66.7195 128.385 66.6817C128.147 66.6438 127.904 66.7017 127.709 66.8426Z" fill="#B9B9D9"/>
<path d="M197.926 256.552C197.762 256.672 197.638 256.839 197.569 257.03C197.5 257.221 197.489 257.428 197.538 257.625C197.587 257.823 197.693 258.001 197.843 258.138C197.993 258.275 198.18 258.364 198.381 258.395C198.582 258.425 198.787 258.395 198.971 258.309C199.155 258.222 199.309 258.083 199.414 257.909C199.519 257.735 199.57 257.534 199.56 257.331C199.551 257.128 199.481 256.933 199.361 256.769C199.199 256.55 198.957 256.404 198.688 256.363C198.419 256.323 198.145 256.39 197.926 256.552Z" fill="#B9B9D9"/>
<path d="M167.257 201.34C167.104 201.45 166.987 201.603 166.921 201.78C166.855 201.956 166.843 202.149 166.886 202.332C166.929 202.516 167.026 202.682 167.164 202.811C167.302 202.939 167.474 203.024 167.66 203.055C167.846 203.085 168.037 203.059 168.209 202.981C168.38 202.903 168.525 202.776 168.624 202.616C168.723 202.455 168.773 202.269 168.766 202.081C168.76 201.892 168.698 201.71 168.588 201.557C168.515 201.455 168.422 201.369 168.316 201.303C168.209 201.237 168.091 201.193 167.967 201.173C167.844 201.152 167.717 201.157 167.595 201.186C167.474 201.214 167.359 201.267 167.257 201.34Z" fill="#B9B9D9"/>
<path d="M208.914 212.097C208.791 212.187 208.697 212.312 208.644 212.456C208.591 212.6 208.582 212.756 208.618 212.905C208.654 213.054 208.734 213.188 208.846 213.292C208.959 213.396 209.099 213.464 209.251 213.488C209.402 213.512 209.557 213.491 209.696 213.427C209.835 213.363 209.952 213.259 210.032 213.128C210.112 212.998 210.152 212.846 210.146 212.693C210.14 212.54 210.089 212.392 210 212.268C209.94 212.185 209.865 212.115 209.778 212.061C209.691 212.008 209.594 211.972 209.493 211.956C209.392 211.94 209.289 211.944 209.189 211.968C209.09 211.992 208.997 212.036 208.914 212.097Z" fill="#B9B9D9"/>
<path d="M181.712 187.61C181.562 187.719 181.447 187.87 181.382 188.044C181.317 188.218 181.305 188.407 181.347 188.588C181.39 188.769 181.485 188.933 181.62 189.06C181.756 189.187 181.926 189.271 182.109 189.301C182.292 189.331 182.48 189.306 182.65 189.23C182.819 189.153 182.961 189.028 183.06 188.871C183.158 188.713 183.207 188.53 183.202 188.344C183.196 188.159 183.136 187.979 183.028 187.827C182.956 187.726 182.865 187.641 182.76 187.575C182.655 187.51 182.538 187.465 182.415 187.445C182.293 187.425 182.168 187.429 182.047 187.458C181.927 187.486 181.813 187.538 181.712 187.61Z" fill="#B9B9D9"/>
<path d="M270.533 271.249C271.119 270.81 271.237 269.978 270.798 269.392C270.358 268.805 269.527 268.686 268.941 269.126C268.355 269.566 268.236 270.398 268.676 270.984C269.115 271.57 269.947 271.689 270.533 271.249Z" fill="#B9B9D9"/>
<path d="M253.811 180.871C253.762 180.907 253.73 180.96 253.721 181.019C253.712 181.079 253.726 181.139 253.762 181.187C253.797 181.236 253.85 181.268 253.909 181.277C253.969 181.286 254.029 181.272 254.078 181.236C254.102 181.22 254.124 181.198 254.14 181.173C254.156 181.148 254.167 181.119 254.171 181.09C254.176 181.06 254.175 181.03 254.167 181.001C254.159 180.972 254.146 180.945 254.127 180.921C254.111 180.896 254.089 180.875 254.064 180.858C254.038 180.842 254.01 180.831 253.98 180.826C253.95 180.822 253.92 180.823 253.891 180.831C253.861 180.839 253.834 180.853 253.811 180.871Z" fill="#B9B9D9"/>
<path d="M277.785 189.706C277.682 189.782 277.603 189.887 277.559 190.008C277.515 190.129 277.508 190.26 277.539 190.385C277.569 190.509 277.635 190.623 277.73 190.71C277.824 190.797 277.942 190.854 278.069 190.874C278.196 190.894 278.326 190.876 278.443 190.823C278.559 190.769 278.658 190.682 278.725 190.573C278.793 190.464 278.826 190.337 278.822 190.209C278.818 190.08 278.776 189.956 278.701 189.852C278.651 189.781 278.587 189.722 278.514 189.676C278.44 189.631 278.359 189.601 278.273 189.587C278.188 189.573 278.101 189.577 278.017 189.597C277.933 189.618 277.854 189.655 277.785 189.706Z" fill="#B9B9D9"/>
<path d="M258.94 166.907C258.742 167.051 258.591 167.25 258.506 167.479C258.422 167.708 258.407 167.958 258.464 168.195C258.52 168.433 258.647 168.649 258.826 168.815C259.005 168.981 259.23 169.09 259.471 169.128C259.713 169.167 259.96 169.132 260.182 169.03C260.404 168.928 260.591 168.762 260.718 168.553C260.846 168.345 260.909 168.103 260.899 167.859C260.889 167.614 260.807 167.379 260.664 167.181C260.471 166.917 260.181 166.74 259.858 166.688C259.535 166.637 259.205 166.716 258.94 166.907Z" fill="#B9B9D9"/>
<path d="M412 211.004C411.958 211.035 411.921 211.074 411.894 211.12C411.866 211.165 411.848 211.215 411.839 211.267C411.831 211.319 411.833 211.373 411.846 211.424C411.858 211.475 411.88 211.524 411.911 211.567C411.942 211.609 411.982 211.646 412.027 211.673C412.072 211.701 412.122 211.719 412.174 211.728C412.226 211.736 412.28 211.734 412.331 211.721C412.382 211.709 412.431 211.687 412.474 211.656C412.516 211.625 412.553 211.585 412.58 211.54C412.608 211.495 412.626 211.445 412.635 211.393C412.643 211.341 412.641 211.287 412.628 211.236C412.616 211.184 412.594 211.136 412.563 211.093C412.532 211.05 412.492 211.014 412.447 210.987C412.402 210.959 412.352 210.94 412.3 210.932C412.248 210.924 412.194 210.926 412.143 210.938C412.092 210.951 412.043 210.973 412 211.004Z" fill="#B9B9D9"/>
<path d="M411.015 190.631C410.867 190.739 410.754 190.887 410.69 191.059C410.627 191.23 410.615 191.416 410.657 191.594C410.699 191.772 410.792 191.934 410.926 192.059C411.059 192.184 411.227 192.266 411.407 192.297C411.587 192.327 411.772 192.303 411.939 192.228C412.106 192.153 412.247 192.03 412.344 191.876C412.441 191.721 412.491 191.541 412.486 191.358C412.481 191.175 412.423 190.998 412.317 190.848C412.247 190.748 412.157 190.662 412.053 190.597C411.949 190.532 411.833 190.487 411.712 190.467C411.59 190.447 411.466 190.451 411.347 190.479C411.227 190.507 411.114 190.559 411.015 190.631Z" fill="#B9B9D9"/>
<path d="M421.103 193.281C420.923 193.411 420.787 193.592 420.71 193.8C420.634 194.008 420.621 194.234 420.672 194.449C420.724 194.664 420.839 194.86 421.001 195.01C421.164 195.16 421.368 195.259 421.587 195.294C421.805 195.328 422.029 195.297 422.231 195.205C422.432 195.112 422.601 194.961 422.717 194.772C422.832 194.583 422.889 194.364 422.881 194.143C422.872 193.921 422.798 193.708 422.668 193.528C422.581 193.409 422.472 193.308 422.347 193.231C422.221 193.154 422.082 193.102 421.937 193.079C421.791 193.056 421.643 193.062 421.499 193.097C421.356 193.131 421.221 193.194 421.103 193.281Z" fill="#B9B9D9"/>
<path d="M309.405 177.097C309.224 177.228 309.087 177.41 309.009 177.619C308.932 177.828 308.919 178.056 308.971 178.272C309.023 178.489 309.138 178.686 309.302 178.837C309.466 178.989 309.671 179.088 309.891 179.123C310.111 179.157 310.337 179.126 310.539 179.032C310.742 178.938 310.912 178.787 311.028 178.597C311.144 178.406 311.201 178.186 311.192 177.963C311.183 177.74 311.108 177.525 310.976 177.345C310.889 177.225 310.78 177.124 310.654 177.047C310.528 176.969 310.388 176.918 310.242 176.895C310.096 176.872 309.947 176.878 309.803 176.913C309.659 176.947 309.524 177.01 309.405 177.097Z" fill="#B9B9D9"/>
<path d="M21.8682 229.675C21.7698 229.747 21.695 229.847 21.6533 229.962C21.6115 230.076 21.6046 230.201 21.6335 230.32C21.6624 230.438 21.7258 230.546 21.8156 230.629C21.9054 230.711 22.0178 230.766 22.1384 230.785C22.259 230.804 22.3826 230.787 22.4935 230.735C22.6044 230.684 22.6977 230.602 22.7617 230.497C22.8256 230.393 22.8574 230.273 22.8529 230.151C22.8484 230.029 22.808 229.911 22.7365 229.811C22.6886 229.745 22.628 229.689 22.5584 229.647C22.4888 229.604 22.4114 229.576 22.3308 229.563C22.2501 229.55 22.1677 229.553 22.0884 229.573C22.009 229.592 21.9342 229.626 21.8682 229.675Z" fill="#B9B9D9"/>
<path d="M55.2421 153.468C55.1505 153.535 55.0808 153.628 55.0417 153.734C55.0026 153.841 54.996 153.956 55.0226 154.066C55.0492 154.177 55.1079 154.276 55.1912 154.353C55.2745 154.43 55.3788 154.481 55.4907 154.498C55.6027 154.516 55.7173 154.5 55.8202 154.452C55.923 154.405 56.0095 154.328 56.0686 154.231C56.1277 154.134 56.1569 154.022 56.1523 153.909C56.1478 153.796 56.1098 153.686 56.0431 153.594C55.9988 153.534 55.9429 153.482 55.8787 153.443C55.8144 153.403 55.7431 153.377 55.6687 153.365C55.5943 153.354 55.5183 153.357 55.4451 153.374C55.3719 153.392 55.3029 153.424 55.2421 153.468Z" fill="#B9B9D9"/>
<path d="M48.0828 140.347C47.8738 140.498 47.7145 140.708 47.6249 140.95C47.5352 141.192 47.5194 141.455 47.5794 141.706C47.6394 141.957 47.7726 142.184 47.9619 142.36C48.1513 142.535 48.3883 142.65 48.643 142.69C48.8978 142.73 49.1587 142.694 49.3928 142.586C49.6269 142.477 49.8236 142.302 49.9579 142.082C50.0923 141.861 50.1583 141.606 50.1475 141.349C50.1368 141.091 50.0498 140.842 49.8976 140.634C49.6944 140.356 49.3894 140.169 49.0493 140.116C48.7093 140.062 48.3618 140.145 48.0828 140.347Z" fill="#B9B9D9"/>
<path d="M96.6281 164.164C96.4855 164.269 96.3769 164.413 96.3162 164.579C96.2555 164.745 96.2453 164.925 96.2868 165.097C96.3284 165.269 96.4199 165.424 96.5498 165.544C96.6797 165.664 96.8422 165.743 97.0168 165.77C97.1913 165.798 97.3701 165.773 97.5305 165.699C97.691 165.625 97.826 165.505 97.9184 165.354C98.0108 165.204 98.0565 165.029 98.0498 164.852C98.0431 164.676 97.9842 164.505 97.8806 164.362C97.8116 164.266 97.7243 164.186 97.6239 164.124C97.5234 164.062 97.4118 164.021 97.2954 164.003C97.179 163.984 97.0601 163.989 96.9456 164.017C96.8311 164.045 96.7232 164.095 96.6281 164.164Z" fill="#B9B9D9"/>
<path d="M166.955 214.003C166.759 214.146 166.609 214.344 166.525 214.573C166.441 214.801 166.427 215.049 166.484 215.285C166.54 215.521 166.666 215.735 166.845 215.9C167.023 216.065 167.246 216.173 167.486 216.211C167.726 216.249 167.972 216.215 168.193 216.113C168.413 216.012 168.599 215.847 168.726 215.639C168.853 215.432 168.915 215.192 168.906 214.949C168.896 214.706 168.815 214.472 168.672 214.275C168.577 214.144 168.458 214.033 168.32 213.949C168.182 213.865 168.029 213.808 167.87 213.783C167.71 213.758 167.548 213.764 167.391 213.802C167.234 213.84 167.086 213.908 166.955 214.003Z" fill="#B9B9D9"/>
<path d="M121.366 165.739C121.2 165.86 121.073 166.027 121.002 166.22C120.931 166.413 120.918 166.623 120.966 166.823C121.014 167.023 121.12 167.205 121.271 167.344C121.422 167.484 121.611 167.576 121.815 167.608C122.018 167.64 122.226 167.611 122.413 167.525C122.599 167.439 122.756 167.299 122.864 167.124C122.971 166.949 123.024 166.745 123.016 166.54C123.008 166.334 122.939 166.135 122.818 165.969C122.738 165.858 122.637 165.764 122.521 165.693C122.404 165.621 122.275 165.574 122.14 165.552C122.005 165.531 121.867 165.536 121.735 165.568C121.602 165.6 121.477 165.658 121.366 165.739Z" fill="#B9B9D9"/>
<path d="M102.355 85.0157C102.234 85.1033 102.142 85.2247 102.091 85.3645C102.039 85.5043 102.03 85.6562 102.065 85.8011C102.1 85.946 102.177 86.0773 102.286 86.1785C102.395 86.2797 102.532 86.3461 102.679 86.3695C102.826 86.3929 102.977 86.3721 103.112 86.3098C103.248 86.2475 103.362 86.1464 103.439 86.0194C103.517 85.8924 103.556 85.7452 103.55 85.5963C103.544 85.4474 103.495 85.3035 103.407 85.1829C103.349 85.1025 103.276 85.0343 103.192 84.9823C103.107 84.9303 103.014 84.8956 102.916 84.88C102.818 84.8645 102.718 84.8685 102.622 84.8917C102.525 84.915 102.434 84.9571 102.355 85.0157Z" fill="#B9B9D9"/>
<path d="M186.421 208.822C186.372 208.858 186.335 208.907 186.314 208.965C186.293 209.022 186.29 209.084 186.304 209.143C186.318 209.202 186.35 209.255 186.395 209.296C186.439 209.338 186.495 209.365 186.555 209.374C186.615 209.384 186.676 209.376 186.732 209.35C186.787 209.325 186.833 209.284 186.866 209.233C186.898 209.181 186.914 209.121 186.912 209.06C186.91 208.999 186.89 208.941 186.855 208.891C186.831 208.858 186.801 208.83 186.766 208.808C186.731 208.787 186.693 208.773 186.652 208.766C186.612 208.76 186.571 208.761 186.531 208.771C186.491 208.78 186.454 208.798 186.421 208.822Z" fill="#B9B9D9"/>
<path d="M151.588 98.0894C151.402 98.2245 151.261 98.4117 151.181 98.6274C151.102 98.843 151.088 99.0774 151.142 99.3009C151.195 99.5244 151.314 99.7269 151.483 99.8829C151.651 100.039 151.863 100.141 152.09 100.177C152.316 100.213 152.549 100.181 152.757 100.084C152.966 99.988 153.141 99.8319 153.261 99.6359C153.381 99.4398 153.44 99.2126 153.431 98.983C153.422 98.7533 153.345 98.5315 153.21 98.3457C153.12 98.2222 153.007 98.1175 152.877 98.0378C152.747 97.958 152.603 97.9047 152.452 97.8809C152.301 97.8571 152.148 97.8633 151.999 97.899C151.851 97.9348 151.711 97.9995 151.588 98.0894Z" fill="#B9B9D9"/>
<path d="M195.202 150.526C195.125 150.581 195.066 150.659 195.033 150.748C195 150.837 194.994 150.934 195.016 151.026C195.038 151.119 195.087 151.202 195.156 151.267C195.226 151.332 195.313 151.374 195.407 151.389C195.501 151.404 195.597 151.391 195.683 151.351C195.769 151.311 195.842 151.247 195.891 151.166C195.941 151.085 195.965 150.991 195.962 150.896C195.958 150.801 195.926 150.709 195.87 150.632C195.833 150.581 195.787 150.538 195.733 150.505C195.68 150.472 195.62 150.45 195.558 150.44C195.496 150.43 195.432 150.433 195.371 150.447C195.31 150.462 195.252 150.489 195.202 150.526Z" fill="#B9B9D9"/>
<path d="M196.78 39.4788C196.627 39.5862 196.51 39.7366 196.443 39.9107C196.376 40.0848 196.363 40.2749 196.404 40.4567C196.446 40.6386 196.54 40.804 196.676 40.9319C196.812 41.0598 196.982 41.1445 197.166 41.1752C197.35 41.2058 197.539 41.1811 197.709 41.1041C197.879 41.0271 198.022 40.9013 198.12 40.7428C198.218 40.5842 198.267 40.4 198.26 40.2136C198.253 40.0272 198.191 39.8471 198.082 39.696C197.937 39.4953 197.719 39.3599 197.475 39.3192C197.232 39.2786 196.981 39.3359 196.78 39.4788Z" fill="#B9B9D9"/>
<path d="M199.165 105.968C199.023 106.072 198.914 106.216 198.853 106.382C198.791 106.547 198.781 106.727 198.822 106.899C198.863 107.071 198.954 107.226 199.084 107.346C199.213 107.466 199.376 107.545 199.55 107.572C199.724 107.6 199.903 107.575 200.063 107.501C200.223 107.427 200.358 107.308 200.45 107.157C200.542 107.007 200.588 106.832 200.581 106.656C200.574 106.479 200.515 106.309 200.411 106.166C200.272 105.975 200.063 105.846 199.829 105.809C199.596 105.772 199.357 105.829 199.165 105.968Z" fill="#B9B9D9"/>
<path d="M219.271 120.719C219.189 120.778 219.126 120.861 219.091 120.956C219.056 121.051 219.05 121.155 219.073 121.253C219.097 121.352 219.149 121.441 219.224 121.51C219.298 121.579 219.391 121.624 219.492 121.64C219.592 121.656 219.694 121.642 219.786 121.599C219.879 121.557 219.956 121.488 220.009 121.401C220.062 121.315 220.088 121.214 220.083 121.113C220.079 121.012 220.045 120.914 219.985 120.832C219.946 120.777 219.896 120.731 219.839 120.696C219.782 120.661 219.718 120.637 219.652 120.627C219.585 120.616 219.518 120.619 219.452 120.635C219.387 120.651 219.325 120.679 219.271 120.719Z" fill="#B9B9D9"/>
<path d="M214.619 131.343C214.444 131.468 214.31 131.643 214.234 131.845C214.158 132.047 214.144 132.266 214.193 132.476C214.243 132.686 214.354 132.876 214.512 133.023C214.67 133.17 214.868 133.266 215.081 133.299C215.294 133.333 215.512 133.302 215.707 133.211C215.903 133.121 216.067 132.974 216.178 132.789C216.29 132.605 216.344 132.391 216.334 132.176C216.324 131.96 216.25 131.753 216.121 131.58C215.952 131.351 215.7 131.198 215.419 131.154C215.138 131.11 214.851 131.178 214.619 131.343Z" fill="#B9B9D9"/>
<path d="M243.81 56.1469C243.559 56.3292 243.368 56.5819 243.261 56.873C243.153 57.164 243.135 57.4803 243.207 57.7819C243.28 58.0835 243.44 58.3568 243.668 58.5673C243.896 58.7777 244.181 58.9159 244.487 58.9642C244.793 59.0125 245.107 58.9689 245.388 58.8388C245.67 58.7087 245.906 58.498 246.068 58.2334C246.23 57.9688 246.31 57.6621 246.297 57.3521C246.285 57.0422 246.181 56.7429 245.998 56.4922C245.877 56.3257 245.725 56.1846 245.549 56.0771C245.374 55.9696 245.179 55.8978 244.975 55.8657C244.772 55.8336 244.565 55.8419 244.365 55.8902C244.165 55.9385 243.976 56.0257 243.81 56.1469Z" fill="#B9B9D9"/>
<path d="M337.272 399.588C337.336 399.195 337.069 398.825 336.676 398.761C336.283 398.698 335.913 398.965 335.85 399.358C335.786 399.751 336.053 400.121 336.446 400.185C336.839 400.248 337.209 399.981 337.272 399.588Z" fill="#B9B9D9"/>
<path d="M283.207 325.637C283.115 325.703 283.045 325.795 283.005 325.902C282.966 326.008 282.959 326.124 282.985 326.234C283.011 326.345 283.069 326.445 283.152 326.522C283.235 326.599 283.34 326.65 283.452 326.668C283.564 326.686 283.678 326.67 283.782 326.623C283.885 326.575 283.971 326.499 284.031 326.402C284.09 326.305 284.119 326.193 284.115 326.08C284.111 325.966 284.073 325.857 284.006 325.765C283.917 325.643 283.783 325.561 283.633 325.537C283.483 325.513 283.33 325.549 283.207 325.637Z" fill="#B9B9D9"/>
<path d="M318.997 351.496C318.9 351.567 318.825 351.666 318.783 351.779C318.741 351.893 318.734 352.016 318.763 352.134C318.791 352.252 318.854 352.359 318.943 352.441C319.032 352.523 319.143 352.577 319.263 352.596C319.382 352.614 319.505 352.597 319.615 352.547C319.724 352.496 319.817 352.413 319.88 352.31C319.943 352.207 319.974 352.087 319.969 351.966C319.964 351.845 319.924 351.728 319.853 351.63C319.757 351.499 319.613 351.412 319.453 351.387C319.293 351.361 319.129 351.4 318.997 351.496Z" fill="#B9B9D9"/>
<path d="M371.969 355.227C372.096 354.443 371.564 353.705 370.78 353.578C369.997 353.452 369.259 353.984 369.133 354.768C369.006 355.552 369.538 356.29 370.322 356.416C371.105 356.543 371.843 356.01 371.969 355.227Z" fill="#B9B9D9"/>
<path d="M351.058 315.775C350.975 315.835 350.912 315.919 350.876 316.015C350.841 316.111 350.834 316.216 350.858 316.316C350.882 316.416 350.935 316.506 351.011 316.576C351.086 316.645 351.18 316.691 351.282 316.707C351.383 316.723 351.487 316.709 351.58 316.666C351.673 316.623 351.751 316.554 351.805 316.466C351.859 316.379 351.885 316.277 351.881 316.175C351.877 316.072 351.843 315.973 351.783 315.89C351.743 315.835 351.692 315.788 351.634 315.752C351.576 315.717 351.511 315.693 351.444 315.682C351.377 315.671 351.308 315.674 351.242 315.69C351.175 315.706 351.113 315.735 351.058 315.775Z" fill="#B9B9D9"/>
<path d="M400.578 341.686C400.466 341.767 400.381 341.88 400.333 342.01C400.285 342.139 400.277 342.28 400.309 342.415C400.342 342.549 400.413 342.671 400.515 342.765C400.616 342.859 400.744 342.92 400.88 342.942C401.017 342.963 401.156 342.944 401.282 342.886C401.407 342.828 401.513 342.734 401.585 342.616C401.657 342.498 401.693 342.362 401.687 342.223C401.682 342.085 401.636 341.952 401.554 341.84C401.501 341.765 401.433 341.702 401.354 341.654C401.276 341.606 401.189 341.574 401.098 341.559C401.007 341.545 400.915 341.549 400.825 341.571C400.736 341.592 400.652 341.631 400.578 341.686Z" fill="#B9B9D9"/>
<path d="M349.039 279.794C348.987 279.828 348.943 279.872 348.909 279.924C348.876 279.976 348.853 280.034 348.842 280.094C348.831 280.155 348.832 280.217 348.846 280.278C348.86 280.338 348.886 280.395 348.922 280.445C348.958 280.495 349.004 280.537 349.057 280.568C349.11 280.6 349.169 280.621 349.23 280.629C349.292 280.637 349.354 280.633 349.413 280.617C349.473 280.601 349.529 280.573 349.577 280.534C349.67 280.461 349.73 280.354 349.746 280.237C349.762 280.12 349.733 280.001 349.663 279.906C349.593 279.81 349.49 279.745 349.373 279.724C349.257 279.703 349.137 279.728 349.039 279.794Z" fill="#B9B9D9"/>
<path d="M404.687 314.837C404.527 314.954 404.405 315.116 404.338 315.302C404.27 315.489 404.258 315.691 404.305 315.884C404.352 316.077 404.456 316.251 404.602 316.385C404.748 316.519 404.93 316.607 405.126 316.638C405.322 316.668 405.523 316.639 405.703 316.556C405.883 316.472 406.034 316.337 406.137 316.167C406.24 315.998 406.29 315.802 406.282 315.603C406.273 315.405 406.206 315.214 406.089 315.054C405.932 314.839 405.696 314.696 405.433 314.655C405.17 314.615 404.902 314.68 404.687 314.837Z" fill="#B9B9D9"/>
<path d="M475.626 214.147C475.504 214.236 475.411 214.36 475.359 214.502C475.307 214.644 475.298 214.799 475.333 214.946C475.369 215.093 475.447 215.227 475.559 215.329C475.67 215.432 475.809 215.499 475.959 215.523C476.108 215.547 476.262 215.525 476.399 215.462C476.537 215.399 476.652 215.296 476.731 215.167C476.811 215.038 476.85 214.888 476.844 214.736C476.838 214.585 476.788 214.439 476.699 214.316C476.64 214.234 476.565 214.165 476.479 214.112C476.393 214.059 476.298 214.023 476.198 214.008C476.098 213.992 475.996 213.996 475.898 214.02C475.8 214.044 475.708 214.087 475.626 214.147Z" fill="#B9B9D9"/>
<path d="M383.472 37.4699C383.737 37.4353 383.986 37.3228 384.188 37.1467C384.389 36.9707 384.534 36.7388 384.604 36.4805C384.674 36.2222 384.666 35.9489 384.581 35.6952C384.496 35.4414 384.337 35.2186 384.126 35.0547C383.914 34.8908 383.659 34.7933 383.392 34.7744C383.125 34.7556 382.859 34.8161 382.626 34.9486C382.394 35.081 382.206 35.2794 382.086 35.5186C381.966 35.7578 381.919 36.0272 381.952 36.2929C381.974 36.4703 382.031 36.6417 382.119 36.7971C382.207 36.9525 382.325 37.0889 382.467 37.1984C382.608 37.3078 382.77 37.3882 382.942 37.4348C383.115 37.4814 383.295 37.4933 383.472 37.4699Z" fill="#B9B9D9"/>
<path d="M287.799 101.386C287.715 101.448 287.652 101.532 287.616 101.63C287.58 101.727 287.575 101.833 287.599 101.934C287.624 102.035 287.678 102.126 287.754 102.197C287.83 102.267 287.926 102.313 288.028 102.329C288.131 102.345 288.236 102.33 288.33 102.287C288.424 102.243 288.504 102.173 288.558 102.084C288.612 101.996 288.639 101.893 288.634 101.789C288.63 101.685 288.596 101.585 288.535 101.501C288.494 101.445 288.443 101.398 288.384 101.362C288.325 101.325 288.259 101.301 288.191 101.291C288.122 101.28 288.053 101.283 287.985 101.299C287.918 101.316 287.855 101.345 287.799 101.386Z" fill="#B9B9D9"/>
<path d="M288.953 111.235C288.868 111.296 288.804 111.382 288.767 111.48C288.731 111.578 288.724 111.685 288.748 111.787C288.773 111.889 288.827 111.982 288.904 112.053C288.981 112.125 289.077 112.171 289.18 112.188C289.284 112.204 289.39 112.19 289.485 112.146C289.58 112.102 289.661 112.03 289.715 111.941C289.77 111.852 289.797 111.748 289.793 111.643C289.788 111.538 289.753 111.437 289.691 111.352C289.608 111.239 289.485 111.164 289.346 111.142C289.208 111.12 289.067 111.153 288.953 111.235Z" fill="#B9B9D9"/>
<path d="M434.524 162.974C434.59 162.924 434.639 162.856 434.665 162.778C434.691 162.7 434.694 162.615 434.673 162.536C434.652 162.456 434.607 162.385 434.545 162.331C434.483 162.276 434.407 162.241 434.325 162.231C434.244 162.22 434.161 162.233 434.087 162.269C434.013 162.306 433.951 162.363 433.91 162.434C433.869 162.505 433.849 162.587 433.854 162.669C433.859 162.752 433.889 162.83 433.938 162.896C433.972 162.94 434.013 162.977 434.061 163.004C434.108 163.032 434.161 163.05 434.215 163.057C434.27 163.064 434.325 163.061 434.378 163.047C434.431 163.032 434.481 163.008 434.524 162.974Z" fill="#B9B9D9"/>
<path d="M434.195 168.627C434.281 168.561 434.346 168.471 434.381 168.368C434.417 168.265 434.421 168.153 434.393 168.048C434.365 167.943 434.307 167.848 434.225 167.776C434.144 167.704 434.043 167.657 433.935 167.642C433.827 167.627 433.717 167.645 433.619 167.693C433.521 167.74 433.44 167.816 433.384 167.91C433.329 168.004 433.303 168.112 433.31 168.221C433.316 168.329 433.354 168.434 433.42 168.521C433.509 168.637 433.64 168.714 433.785 168.734C433.93 168.754 434.077 168.715 434.195 168.627Z" fill="#B9B9D9"/>
<path d="M344.606 125.655C344.51 125.725 344.437 125.821 344.396 125.933C344.354 126.044 344.347 126.165 344.375 126.28C344.402 126.395 344.464 126.5 344.551 126.581C344.638 126.661 344.747 126.714 344.864 126.733C344.981 126.751 345.101 126.735 345.209 126.685C345.316 126.635 345.407 126.555 345.469 126.453C345.53 126.352 345.561 126.235 345.556 126.117C345.551 125.998 345.512 125.884 345.442 125.788C345.348 125.659 345.208 125.573 345.051 125.549C344.895 125.524 344.735 125.562 344.606 125.655Z" fill="#B9B9D9"/>
<path d="M375.521 123.924C375.387 124.022 375.286 124.157 375.229 124.312C375.172 124.467 375.163 124.635 375.201 124.796C375.24 124.957 375.326 125.102 375.447 125.214C375.569 125.326 375.72 125.4 375.883 125.425C376.047 125.451 376.214 125.428 376.364 125.359C376.514 125.29 376.64 125.177 376.726 125.037C376.812 124.896 376.855 124.733 376.849 124.567C376.842 124.402 376.787 124.243 376.691 124.109C376.626 124.02 376.544 123.944 376.451 123.887C376.357 123.829 376.253 123.791 376.144 123.774C376.035 123.756 375.924 123.761 375.817 123.787C375.71 123.813 375.609 123.859 375.521 123.924Z" fill="#B9B9D9"/>
<path d="M359.882 144.612C359.843 144.642 359.817 144.685 359.81 144.733C359.802 144.782 359.814 144.831 359.843 144.871C359.872 144.91 359.915 144.936 359.963 144.944C360.01 144.952 360.06 144.94 360.099 144.912C360.119 144.898 360.135 144.88 360.148 144.859C360.161 144.838 360.169 144.815 360.173 144.791C360.177 144.767 360.176 144.743 360.17 144.719C360.165 144.695 360.155 144.673 360.14 144.654C360.126 144.634 360.108 144.617 360.087 144.604C360.067 144.592 360.044 144.583 360.02 144.579C359.996 144.576 359.971 144.576 359.948 144.582C359.924 144.588 359.902 144.598 359.882 144.612Z" fill="#B9B9D9"/>
<path d="M426.104 123.045C426.28 122.912 426.412 122.729 426.485 122.521C426.557 122.312 426.566 122.087 426.511 121.873C426.455 121.66 426.337 121.467 426.172 121.32C426.008 121.174 425.803 121.079 425.584 121.049C425.366 121.018 425.143 121.054 424.944 121.15C424.746 121.246 424.58 121.399 424.468 121.589C424.357 121.78 424.304 121.999 424.317 122.219C424.33 122.44 424.408 122.652 424.541 122.828C424.629 122.945 424.74 123.043 424.866 123.117C424.992 123.191 425.132 123.24 425.277 123.26C425.422 123.28 425.57 123.272 425.712 123.235C425.854 123.198 425.987 123.133 426.104 123.045Z" fill="#B9B9D9"/>
<path d="M378.423 183.682C378.189 183.852 378.01 184.088 377.91 184.359C377.81 184.631 377.793 184.926 377.861 185.208C377.929 185.489 378.078 185.744 378.291 185.94C378.503 186.137 378.769 186.266 379.055 186.311C379.341 186.356 379.633 186.316 379.896 186.194C380.159 186.073 380.38 185.877 380.531 185.63C380.682 185.383 380.757 185.097 380.745 184.808C380.734 184.519 380.637 184.239 380.467 184.005C380.239 183.691 379.895 183.481 379.512 183.42C379.128 183.36 378.737 183.454 378.423 183.682Z" fill="#B9B9D9"/>
<path d="M152.856 358.313C152.741 358.396 152.653 358.512 152.604 358.645C152.555 358.778 152.546 358.923 152.58 359.061C152.613 359.2 152.686 359.325 152.79 359.421C152.894 359.518 153.025 359.581 153.165 359.604C153.305 359.626 153.449 359.607 153.578 359.547C153.707 359.488 153.816 359.392 153.89 359.271C153.965 359.15 154.002 359.01 153.996 358.868C153.991 358.726 153.944 358.588 153.861 358.473C153.806 358.397 153.736 358.331 153.655 358.282C153.575 358.232 153.485 358.199 153.392 358.184C153.298 358.169 153.203 358.173 153.111 358.195C153.019 358.217 152.932 358.257 152.856 358.313Z" fill="#B9B9D9"/>
<path d="M129.583 442.743C129.496 442.806 129.43 442.894 129.393 442.996C129.356 443.097 129.349 443.207 129.375 443.311C129.4 443.416 129.456 443.511 129.535 443.584C129.614 443.657 129.713 443.705 129.82 443.722C129.926 443.738 130.035 443.723 130.133 443.678C130.231 443.632 130.313 443.559 130.369 443.467C130.425 443.375 130.453 443.269 130.449 443.161C130.444 443.053 130.408 442.949 130.345 442.862C130.303 442.804 130.25 442.755 130.188 442.718C130.127 442.681 130.059 442.656 129.989 442.645C129.918 442.633 129.846 442.636 129.776 442.653C129.706 442.67 129.641 442.701 129.583 442.743Z" fill="#B9B9D9"/>
<path d="M192.132 386.467C191.952 386.598 191.815 386.779 191.739 386.988C191.662 387.197 191.649 387.424 191.701 387.64C191.753 387.856 191.868 388.052 192.032 388.203C192.195 388.354 192.4 388.453 192.619 388.487C192.839 388.522 193.064 388.491 193.266 388.397C193.468 388.304 193.637 388.153 193.753 387.963C193.869 387.773 193.927 387.554 193.918 387.331C193.909 387.109 193.834 386.894 193.704 386.714C193.617 386.595 193.507 386.494 193.381 386.416C193.255 386.339 193.115 386.288 192.969 386.265C192.823 386.242 192.674 386.248 192.53 386.282C192.387 386.317 192.251 386.38 192.132 386.467Z" fill="#B9B9D9"/>
<path d="M59.9027 294.694C59.7643 294.795 59.6589 294.935 59.6 295.097C59.541 295.258 59.5311 295.433 59.5716 295.6C59.612 295.767 59.7009 295.918 59.8271 296.034C59.9533 296.15 60.1111 296.227 60.2806 296.253C60.4501 296.28 60.6237 296.256 60.7795 296.184C60.9353 296.112 61.0662 295.995 61.1559 295.849C61.2455 295.703 61.2898 295.533 61.2831 295.361C61.2764 295.19 61.2191 295.024 61.1184 294.885C61.0513 294.792 60.9665 294.714 60.869 294.654C60.7715 294.595 60.6632 294.555 60.5502 294.537C60.4373 294.519 60.3219 294.524 60.2108 294.551C60.0997 294.578 59.995 294.626 59.9027 294.694Z" fill="#B9B9D9"/>
<path d="M87.0354 371.026C86.9059 371.12 86.8073 371.251 86.752 371.401C86.6967 371.551 86.6872 371.715 86.7247 371.871C86.7622 372.026 86.8451 372.168 86.9628 372.276C87.0805 372.385 87.2278 372.456 87.386 372.481C87.5442 372.506 87.7062 372.483 87.8516 372.416C87.997 372.349 88.1191 372.24 88.2027 372.103C88.2862 371.967 88.3274 371.808 88.3209 371.648C88.3144 371.488 88.2607 371.333 88.1664 371.204C88.104 371.118 88.0252 371.045 87.9345 370.989C87.8438 370.933 87.743 370.896 87.6379 370.88C87.5328 370.863 87.4255 370.868 87.3221 370.893C87.2187 370.918 87.1212 370.963 87.0354 371.026Z" fill="#B9B9D9"/>
<path d="M55.2246 246.164C55.1088 246.248 55.0205 246.365 54.9709 246.499C54.9213 246.633 54.9126 246.779 54.9459 246.918C54.9791 247.057 55.0529 247.183 55.1578 247.281C55.2627 247.378 55.3941 247.442 55.5353 247.464C55.6765 247.487 55.8212 247.467 55.9511 247.407C56.081 247.347 56.1902 247.25 56.265 247.128C56.3398 247.006 56.3768 246.865 56.3713 246.722C56.3657 246.579 56.318 246.441 56.234 246.325C56.1784 246.248 56.1082 246.183 56.0273 246.133C55.9464 246.083 55.8565 246.05 55.7627 246.035C55.6688 246.02 55.573 246.024 55.4807 246.046C55.3883 246.068 55.3013 246.108 55.2246 246.164Z" fill="#B9B9D9"/>
<path d="M83.308 250.16C83.151 250.274 83.0313 250.432 82.9639 250.613C82.8966 250.795 82.8846 250.993 82.9296 251.181C82.9746 251.37 83.0745 251.541 83.2166 251.673C83.3588 251.804 83.5368 251.891 83.7282 251.921C83.9195 251.952 84.1156 251.925 84.2916 251.844C84.4675 251.762 84.6155 251.631 84.7167 251.466C84.8179 251.3 84.8678 251.109 84.8601 250.915C84.8524 250.721 84.7875 250.534 84.6735 250.378C84.5209 250.168 84.2916 250.027 84.0356 249.987C83.7796 249.946 83.518 250.008 83.308 250.16Z" fill="#B9B9D9"/>
<path d="M57.836 232.111C57.7041 232.207 57.6036 232.34 57.5472 232.493C57.4908 232.646 57.4811 232.813 57.5192 232.972C57.5573 233.13 57.6417 233.274 57.7615 233.385C57.8813 233.495 58.0313 233.568 58.1924 233.594C58.3535 233.619 58.5186 233.596 58.6667 233.528C58.8148 233.46 58.9394 233.349 59.0246 233.21C59.1099 233.071 59.152 232.909 59.1456 232.746C59.1392 232.583 59.0846 232.426 58.9887 232.294C58.9252 232.206 58.845 232.131 58.7526 232.074C58.6602 232.018 58.5574 231.98 58.4503 231.963C58.3432 231.946 58.2337 231.95 58.1283 231.976C58.0229 232.001 57.9236 232.047 57.836 232.111Z" fill="#B9B9D9"/>
<path d="M96.6975 415.334C96.5899 415.412 96.5079 415.52 96.462 415.645C96.4161 415.77 96.4082 415.906 96.4394 416.036C96.4707 416.165 96.5396 416.282 96.6374 416.373C96.7353 416.463 96.8577 416.522 96.9892 416.543C97.1207 416.563 97.2554 416.545 97.3762 416.489C97.497 416.433 97.5985 416.342 97.6679 416.229C97.7373 416.115 97.7714 415.983 97.766 415.85C97.7606 415.717 97.7158 415.589 97.6374 415.481C97.5323 415.337 97.3743 415.24 97.198 415.213C97.0217 415.185 96.8417 415.228 96.6975 415.334Z" fill="#B9B9D9"/>
<path d="M76.5548 444.202C76.4912 444.248 76.4485 444.318 76.4361 444.395C76.4237 444.473 76.4426 444.552 76.4886 444.616C76.5347 444.679 76.6041 444.722 76.6817 444.735C76.7592 444.747 76.8386 444.728 76.9022 444.682C76.9658 444.636 77.0085 444.567 77.0209 444.489C77.0333 444.411 77.0144 444.332 76.9684 444.268C76.9223 444.205 76.8529 444.162 76.7753 444.15C76.6978 444.137 76.6185 444.156 76.5548 444.202Z" fill="#B9B9D9"/>
<path d="M100.549 433.061C100.388 433.179 100.266 433.341 100.198 433.528C100.13 433.715 100.119 433.918 100.166 434.111C100.213 434.304 100.316 434.479 100.463 434.614C100.609 434.748 100.792 434.836 100.989 434.866C101.185 434.897 101.386 434.868 101.567 434.784C101.747 434.7 101.898 434.565 102.001 434.395C102.104 434.225 102.155 434.028 102.146 433.829C102.138 433.631 102.071 433.439 101.953 433.278C101.795 433.064 101.559 432.921 101.296 432.88C101.032 432.839 100.764 432.904 100.549 433.061Z" fill="#B9B9D9"/>
<path d="M157.037 366.671C156.864 366.798 156.731 366.973 156.657 367.174C156.583 367.375 156.57 367.594 156.62 367.803C156.67 368.011 156.781 368.2 156.938 368.346C157.096 368.492 157.293 368.588 157.504 368.622C157.716 368.655 157.933 368.626 158.128 368.536C158.323 368.447 158.487 368.302 158.6 368.119C158.712 367.937 158.768 367.725 158.76 367.51C158.753 367.296 158.682 367.089 158.556 366.915C158.473 366.799 158.367 366.7 158.245 366.625C158.124 366.55 157.988 366.5 157.847 366.477C157.706 366.455 157.562 366.46 157.423 366.493C157.284 366.527 157.153 366.587 157.037 366.671Z" fill="#B9B9D9"/>
<path d="M161.229 413.737C161.007 413.898 160.838 414.121 160.743 414.377C160.648 414.634 160.632 414.913 160.695 415.179C160.759 415.446 160.9 415.687 161.101 415.873C161.302 416.059 161.553 416.181 161.824 416.224C162.094 416.266 162.371 416.228 162.619 416.114C162.868 415.999 163.077 415.813 163.219 415.58C163.362 415.346 163.433 415.076 163.422 414.802C163.411 414.529 163.319 414.265 163.158 414.043C163.052 413.897 162.917 413.772 162.763 413.677C162.608 413.582 162.436 413.519 162.257 413.49C162.078 413.462 161.895 413.469 161.718 413.511C161.542 413.554 161.375 413.631 161.229 413.737Z" fill="#B9B9D9"/>
<path d="M218.883 468.497C218.687 468.639 218.538 468.836 218.454 469.062C218.371 469.289 218.356 469.535 218.412 469.77C218.469 470.005 218.593 470.218 218.77 470.382C218.948 470.546 219.17 470.653 219.408 470.691C219.647 470.729 219.891 470.695 220.11 470.594C220.329 470.493 220.513 470.329 220.639 470.122C220.765 469.916 220.827 469.678 220.818 469.436C220.808 469.195 220.727 468.962 220.585 468.767C220.394 468.506 220.108 468.331 219.789 468.281C219.47 468.23 219.144 468.308 218.883 468.497Z" fill="#B9B9D9"/>
<path d="M232.96 437.209C232.834 437.3 232.738 437.427 232.684 437.573C232.63 437.719 232.621 437.877 232.657 438.029C232.693 438.18 232.774 438.317 232.888 438.423C233.002 438.528 233.145 438.598 233.298 438.622C233.452 438.646 233.609 438.625 233.751 438.56C233.892 438.494 234.01 438.389 234.092 438.256C234.173 438.123 234.213 437.97 234.207 437.814C234.2 437.659 234.148 437.509 234.057 437.383C233.934 437.215 233.75 437.102 233.544 437.069C233.339 437.037 233.129 437.087 232.96 437.209Z" fill="#B9B9D9"/>
<path d="M413.564 355.374C413.459 355.45 413.38 355.555 413.336 355.676C413.291 355.797 413.283 355.928 413.314 356.054C413.344 356.179 413.41 356.292 413.505 356.38C413.6 356.467 413.718 356.525 413.845 356.545C413.973 356.565 414.103 356.547 414.22 356.493C414.337 356.438 414.435 356.351 414.502 356.241C414.569 356.131 414.602 356.004 414.597 355.875C414.592 355.746 414.549 355.622 414.473 355.518C414.371 355.378 414.219 355.284 414.048 355.257C413.877 355.231 413.703 355.273 413.564 355.374Z" fill="#B9B9D9"/>
<path d="M270.372 394.294C270.279 394.362 270.208 394.455 270.169 394.563C270.129 394.672 270.122 394.789 270.149 394.901C270.176 395.012 270.236 395.114 270.321 395.192C270.405 395.27 270.511 395.321 270.624 395.339C270.738 395.357 270.854 395.34 270.959 395.292C271.063 395.244 271.151 395.166 271.211 395.068C271.271 394.97 271.301 394.856 271.296 394.741C271.292 394.626 271.253 394.515 271.186 394.422C271.141 394.36 271.084 394.307 271.019 394.267C270.954 394.227 270.881 394.2 270.805 394.188C270.73 394.176 270.652 394.179 270.578 394.197C270.503 394.216 270.433 394.248 270.372 394.294Z" fill="#B9B9D9"/>
<path d="M461.862 198.666C461.715 198.773 461.604 198.92 461.541 199.09C461.479 199.259 461.468 199.444 461.51 199.62C461.552 199.795 461.646 199.955 461.779 200.078C461.911 200.2 462.077 200.281 462.256 200.309C462.435 200.337 462.617 200.312 462.782 200.236C462.946 200.161 463.084 200.038 463.178 199.884C463.273 199.729 463.319 199.551 463.312 199.37C463.305 199.189 463.244 199.015 463.138 198.868C462.995 198.673 462.781 198.542 462.541 198.504C462.302 198.466 462.058 198.525 461.862 198.666Z" fill="#B9B9D9"/>
<path d="M327.6 15.7765C327.528 15.8968 327.492 16.0359 327.499 16.1761C327.505 16.3164 327.553 16.4517 327.636 16.5647C327.72 16.6778 327.835 16.7636 327.967 16.8113C328.099 16.859 328.242 16.8665 328.378 16.8328C328.515 16.7991 328.638 16.7257 328.732 16.6219C328.827 16.5182 328.889 16.3887 328.91 16.2498C328.931 16.111 328.91 15.969 328.851 15.8418C328.791 15.7147 328.695 15.6081 328.575 15.5355C328.495 15.4873 328.406 15.4553 328.314 15.4413C328.222 15.4273 328.128 15.4317 328.038 15.454C327.947 15.4764 327.862 15.5164 327.787 15.5718C327.712 15.6271 327.648 15.6967 327.6 15.7765Z" fill="#B9B9D9"/>
<path d="M303.393 22.7044C303.348 22.7797 303.326 22.8668 303.33 22.9547C303.333 23.0426 303.363 23.1274 303.415 23.1983C303.467 23.2693 303.539 23.3232 303.622 23.3532C303.705 23.3833 303.794 23.3882 303.88 23.3673C303.965 23.3464 304.043 23.3006 304.102 23.2357C304.162 23.1709 304.201 23.0898 304.214 23.0029C304.227 22.9159 304.215 22.8269 304.178 22.7471C304.141 22.6673 304.081 22.6003 304.006 22.5545C303.956 22.5226 303.9 22.5011 303.842 22.4913C303.784 22.4816 303.725 22.4838 303.667 22.4978C303.61 22.5118 303.556 22.5374 303.509 22.5729C303.462 22.6084 303.423 22.6532 303.393 22.7044Z" fill="#B9B9D9"/>
<path d="M295.683 19.5771C295.54 19.814 295.471 20.0879 295.484 20.3642C295.497 20.6405 295.591 20.9068 295.755 21.1295C295.919 21.3521 296.146 21.521 296.406 21.6149C296.666 21.7087 296.948 21.7233 297.217 21.6568C297.485 21.5903 297.728 21.4456 297.914 21.2412C298.1 21.0367 298.221 20.7815 298.263 20.508C298.304 20.2345 298.263 19.9549 298.146 19.7045C298.028 19.4541 297.839 19.2443 297.602 19.1015C297.285 18.91 296.904 18.8525 296.544 18.9417C296.184 19.0309 295.875 19.2594 295.683 19.5771Z" fill="#B9B9D9"/>
<path d="M307.753 14.6777C307.644 14.8567 307.591 15.0639 307.601 15.2729C307.61 15.482 307.682 15.6835 307.806 15.8521C307.929 16.0207 308.101 16.1486 308.297 16.2198C308.494 16.291 308.707 16.3022 308.911 16.252C309.114 16.2019 309.297 16.0925 309.438 15.9379C309.579 15.7833 309.671 15.5903 309.702 15.3834C309.734 15.1765 309.703 14.9649 309.614 14.7755C309.525 14.5861 309.382 14.4273 309.203 14.3193C308.963 14.1747 308.675 14.1313 308.403 14.1984C308.132 14.2656 307.898 14.438 307.753 14.6777Z" fill="#B9B9D9"/>
<path d="M325.685 0.66782C325.593 0.820139 325.549 0.996269 325.557 1.17393C325.565 1.35159 325.626 1.5228 325.732 1.6659C325.837 1.809 325.983 1.91756 326.15 1.97785C326.317 2.03814 326.499 2.04745 326.671 2.0046C326.844 1.96175 327 1.86866 327.119 1.73712C327.239 1.60558 327.317 1.44149 327.344 1.26561C327.37 1.08974 327.344 0.909969 327.268 0.749054C327.192 0.588139 327.07 0.453307 326.918 0.361613C326.714 0.238744 326.469 0.201979 326.238 0.259397C326.007 0.316815 325.808 0.463716 325.685 0.66782Z" fill="#B9B9D9"/>
<path d="M332.052 3.77996C331.938 3.96969 331.882 4.18917 331.892 4.41063C331.902 4.63209 331.978 4.84558 332.109 5.02409C332.24 5.2026 332.422 5.33812 332.63 5.41348C332.839 5.48885 333.065 5.50068 333.28 5.44748C333.495 5.39429 333.689 5.27845 333.839 5.11464C333.988 4.95082 334.085 4.74638 334.119 4.52718C334.152 4.30798 334.119 4.08388 334.025 3.88322C333.931 3.68256 333.779 3.51436 333.589 3.39991C333.335 3.24659 333.03 3.2005 332.742 3.27176C332.454 3.34302 332.206 3.5258 332.052 3.77996Z" fill="#B9B9D9"/>
<path d="M471.562 196.38C471.461 196.452 471.383 196.553 471.339 196.669C471.295 196.786 471.287 196.913 471.315 197.034C471.343 197.156 471.407 197.266 471.498 197.351C471.589 197.436 471.704 197.491 471.827 197.511C471.95 197.531 472.076 197.513 472.189 197.461C472.302 197.409 472.397 197.324 472.462 197.218C472.526 197.111 472.558 196.988 472.553 196.864C472.547 196.739 472.505 196.619 472.431 196.519C472.333 196.386 472.187 196.298 472.025 196.272C471.863 196.246 471.697 196.285 471.562 196.38Z" fill="#B9B9D9"/>
<path d="M399.978 33.4153C400.125 33.3975 400.263 33.3365 400.375 33.2402C400.487 33.1439 400.568 33.0165 400.608 32.8742C400.647 32.7319 400.644 32.581 400.598 32.4406C400.552 32.3002 400.465 32.1767 400.349 32.0856C400.233 31.9945 400.092 31.9399 399.945 31.9288C399.797 31.9176 399.65 31.9504 399.521 32.023C399.393 32.0956 399.289 32.2047 399.222 32.3366C399.155 32.4684 399.129 32.6171 399.147 32.7638C399.159 32.8613 399.189 32.9556 399.237 33.0411C399.286 33.1267 399.35 33.202 399.427 33.2625C399.505 33.3231 399.593 33.3677 399.688 33.3939C399.782 33.4202 399.881 33.4274 399.978 33.4153Z" fill="#B9B9D9"/>
<path d="M68.4253 32.5467C68.2317 32.6878 68.0843 32.8831 68.0016 33.108C67.919 33.3329 67.9049 33.5773 67.961 33.8102C68.0171 34.0431 68.141 34.2542 68.3171 34.4167C68.4931 34.5792 68.7133 34.6859 68.9499 34.7232C69.1864 34.7605 69.4288 34.7268 69.6462 34.6264C69.8637 34.526 70.0465 34.3633 70.1716 34.159C70.2966 33.9546 70.3583 33.7178 70.3489 33.4783C70.3394 33.2389 70.2593 33.0076 70.1185 32.8138C70.0249 32.6849 69.9068 32.5758 69.7711 32.4926C69.6353 32.4095 69.4845 32.3539 69.3272 32.3291C69.17 32.3043 69.0094 32.3107 68.8546 32.348C68.6998 32.3854 68.5539 32.4529 68.4253 32.5467Z" fill="#B9B9D9"/>
<path d="M142.905 34.8987C142.701 35.0469 142.545 35.2523 142.458 35.489C142.371 35.7257 142.356 35.9829 142.414 36.2282C142.473 36.4735 142.604 36.6958 142.789 36.8669C142.974 37.0381 143.206 37.1504 143.455 37.1896C143.704 37.2289 143.959 37.1933 144.188 37.0874C144.417 36.9816 144.609 36.8101 144.741 36.5948C144.872 36.3795 144.937 36.1301 144.927 35.878C144.916 35.6259 144.831 35.3826 144.683 35.1788C144.484 34.9062 144.185 34.7236 143.852 34.671C143.518 34.6185 143.178 34.7004 142.905 34.8987Z" fill="#B9B9D9"/>
<path d="M91.8793 48.6628C91.9509 48.2042 91.6374 47.7744 91.179 47.7027C90.7206 47.6311 90.2909 47.9447 90.2193 48.4033C90.1477 48.8619 90.4612 49.2918 90.9196 49.3634C91.378 49.4351 91.8077 49.1214 91.8793 48.6628Z" fill="#B9B9D9"/>
<path d="M76.6524 45.994C76.5618 46.0599 76.4928 46.1512 76.4541 46.2564C76.4154 46.3615 76.4087 46.4758 76.4349 46.5847C76.461 46.6937 76.5189 46.7924 76.6011 46.8685C76.6833 46.9445 76.7863 46.9945 76.8969 47.0121C77.0075 47.0297 77.1208 47.0141 77.2226 46.9673C77.3243 46.9204 77.4099 46.8445 77.4685 46.749C77.5272 46.6536 77.5562 46.5429 77.552 46.4309C77.5477 46.3189 77.5104 46.2107 77.4448 46.12C77.3561 45.9985 77.223 45.917 77.0746 45.8934C76.9261 45.8698 76.7743 45.906 76.6524 45.994Z" fill="#B9B9D9"/>
<path d="M80.6901 46.9821C80.6293 47.0268 80.5831 47.0884 80.5573 47.1593C80.5315 47.2302 80.5272 47.3071 80.545 47.3804C80.5628 47.4537 80.6019 47.5201 80.6574 47.5712C80.7128 47.6224 80.7822 47.6559 80.8566 47.6677C80.9311 47.6795 81.0075 47.6689 81.076 47.6374C81.1445 47.6058 81.2021 47.5547 81.2416 47.4905C81.2812 47.4262 81.3008 47.3517 81.2981 47.2763C81.2953 47.2009 81.2704 47.128 81.2263 47.0668C81.1968 47.0258 81.1595 46.9911 81.1165 46.9647C81.0735 46.9382 81.0257 46.9205 80.9758 46.9126C80.926 46.9048 80.875 46.9068 80.826 46.9188C80.777 46.9307 80.7308 46.9522 80.6901 46.9821Z" fill="#B9B9D9"/>
<path d="M76.8197 39.4636C76.7323 39.5274 76.6657 39.6157 76.6284 39.7173C76.5912 39.819 76.5849 39.9294 76.6103 40.0346C76.6358 40.1398 76.6919 40.2351 76.7715 40.3084C76.8511 40.3817 76.9506 40.4298 77.0575 40.4465C77.1645 40.4632 77.2739 40.4478 77.3721 40.4023C77.4703 40.3568 77.5527 40.2831 77.6091 40.1907C77.6654 40.0983 77.6931 39.9912 77.6886 39.883C77.6841 39.7749 77.6476 39.6705 77.5838 39.5831C77.5416 39.5248 77.4884 39.4755 77.4271 39.4379C77.3658 39.4004 77.2976 39.3753 77.2266 39.3642C77.1556 39.3531 77.083 39.3562 77.0132 39.3732C76.9434 39.3903 76.8776 39.421 76.8197 39.4636Z" fill="#B9B9D9"/>
<path d="M83.1562 37.9066C83.077 37.9642 83.0239 38.0509 83.0087 38.1476C82.9934 38.2443 83.0172 38.3431 83.0747 38.4223C83.1323 38.5015 83.219 38.5546 83.3157 38.5699C83.4124 38.5852 83.5112 38.5614 83.5904 38.5038C83.6695 38.4462 83.7226 38.3595 83.7379 38.2628C83.7531 38.166 83.7293 38.0672 83.6718 37.988C83.6142 37.9088 83.5275 37.8557 83.4308 37.8405C83.3341 37.8252 83.2353 37.849 83.1562 37.9066Z" fill="#B9B9D9"/>
<path d="M335.597 193.83C335.417 193.962 335.28 194.144 335.202 194.353C335.125 194.563 335.112 194.79 335.164 195.007C335.217 195.224 335.332 195.421 335.496 195.573C335.66 195.724 335.865 195.824 336.085 195.859C336.306 195.893 336.532 195.862 336.734 195.769C336.937 195.675 337.107 195.524 337.224 195.333C337.341 195.143 337.398 194.922 337.39 194.699C337.381 194.476 337.307 194.261 337.176 194.08C337.088 193.96 336.978 193.858 336.852 193.78C336.725 193.703 336.585 193.651 336.438 193.628C336.292 193.605 336.142 193.61 335.998 193.645C335.853 193.68 335.717 193.743 335.597 193.83Z" fill="#B9B9D9"/>
<path d="M356.845 164.935C356.679 165.056 356.552 165.224 356.481 165.417C356.409 165.61 356.397 165.82 356.445 166.02C356.493 166.22 356.599 166.401 356.75 166.541C356.901 166.68 357.09 166.772 357.293 166.804C357.497 166.837 357.705 166.808 357.891 166.722C358.078 166.635 358.235 166.496 358.343 166.32C358.45 166.145 358.503 165.942 358.495 165.736C358.487 165.53 358.418 165.332 358.297 165.165C358.135 164.943 357.891 164.794 357.619 164.75C357.347 164.707 357.068 164.774 356.845 164.935Z" fill="#B9B9D9"/>
<path d="M331.751 243.819C331.48 244.015 331.274 244.287 331.158 244.601C331.042 244.915 331.022 245.255 331.1 245.58C331.178 245.906 331.35 246.2 331.596 246.427C331.841 246.654 332.148 246.803 332.478 246.855C332.808 246.908 333.146 246.861 333.45 246.721C333.753 246.581 334.008 246.354 334.183 246.069C334.357 245.784 334.443 245.453 334.43 245.119C334.417 244.785 334.305 244.463 334.108 244.193C333.844 243.831 333.448 243.589 333.006 243.519C332.565 243.449 332.113 243.557 331.751 243.819Z" fill="#B9B9D9"/>
<path d="M374.745 245.891C374.692 245.93 374.651 245.984 374.628 246.047C374.605 246.109 374.601 246.177 374.617 246.242C374.633 246.306 374.667 246.365 374.716 246.41C374.765 246.455 374.826 246.485 374.892 246.495C374.958 246.505 375.025 246.496 375.085 246.468C375.146 246.44 375.196 246.395 375.231 246.338C375.266 246.281 375.283 246.216 375.28 246.149C375.278 246.083 375.255 246.018 375.216 245.965C375.19 245.929 375.157 245.898 375.12 245.875C375.082 245.852 375.04 245.837 374.996 245.83C374.952 245.823 374.908 245.825 374.865 245.835C374.822 245.846 374.781 245.865 374.745 245.891Z" fill="#B9B9D9"/>
<path d="M340.149 295.582C340.081 295.633 340.03 295.704 340.001 295.784C339.973 295.864 339.968 295.951 339.989 296.034C340.01 296.117 340.054 296.192 340.117 296.249C340.18 296.307 340.258 296.345 340.342 296.358C340.426 296.372 340.513 296.36 340.59 296.324C340.668 296.289 340.733 296.232 340.778 296.159C340.824 296.087 340.846 296.003 340.844 295.918C340.842 295.832 340.815 295.75 340.766 295.68C340.732 295.632 340.69 295.592 340.64 295.561C340.591 295.53 340.536 295.509 340.478 295.5C340.421 295.491 340.362 295.494 340.305 295.508C340.249 295.522 340.196 295.547 340.149 295.582Z" fill="#B9B9D9"/>
<path d="M439.352 216.894C439.183 217.017 439.054 217.188 438.981 217.385C438.909 217.581 438.896 217.795 438.945 217.999C438.994 218.202 439.103 218.387 439.256 218.529C439.41 218.672 439.603 218.765 439.81 218.798C440.017 218.831 440.229 218.801 440.419 218.713C440.609 218.626 440.769 218.484 440.878 218.305C440.988 218.126 441.042 217.919 441.034 217.71C441.026 217.5 440.956 217.298 440.833 217.128C440.751 217.016 440.648 216.92 440.529 216.847C440.41 216.775 440.279 216.726 440.141 216.704C440.004 216.682 439.863 216.688 439.728 216.721C439.592 216.753 439.465 216.812 439.352 216.894Z" fill="#B9B9D9"/>
<path d="M420.66 269.849C420.413 270.028 420.225 270.276 420.12 270.562C420.015 270.848 419.996 271.158 420.067 271.454C420.138 271.751 420.295 272.019 420.519 272.226C420.742 272.433 421.022 272.569 421.323 272.616C421.623 272.664 421.931 272.621 422.208 272.494C422.484 272.366 422.717 272.16 422.876 271.9C423.035 271.64 423.113 271.339 423.102 271.035C423.09 270.731 422.988 270.437 422.809 270.19C422.569 269.86 422.208 269.639 421.805 269.575C421.402 269.511 420.99 269.61 420.66 269.849Z" fill="#B9B9D9"/>
<path d="M219.078 0.589688C218.957 0.67753 218.865 0.79927 218.813 0.939512C218.761 1.07975 218.752 1.2322 218.787 1.37756C218.822 1.52293 218.899 1.65469 219.009 1.75617C219.119 1.85766 219.256 1.92431 219.404 1.9477C219.551 1.9711 219.702 1.95018 219.838 1.88759C219.974 1.82501 220.088 1.72357 220.166 1.5961C220.244 1.46864 220.282 1.32087 220.277 1.1715C220.271 1.02212 220.221 0.877847 220.133 0.756917C220.075 0.676412 220.001 0.608196 219.917 0.556188C219.832 0.504179 219.738 0.469405 219.64 0.453865C219.542 0.438324 219.442 0.442323 219.345 0.465632C219.249 0.488942 219.158 0.531101 219.078 0.589688Z" fill="#B9B9D9"/>
<path d="M244.834 108.918C244.741 108.986 244.669 109.08 244.629 109.189C244.588 109.298 244.581 109.416 244.608 109.529C244.635 109.642 244.695 109.744 244.78 109.823C244.865 109.901 244.972 109.953 245.086 109.971C245.201 109.99 245.318 109.974 245.423 109.925C245.529 109.877 245.617 109.798 245.678 109.699C245.739 109.6 245.769 109.486 245.764 109.37C245.76 109.254 245.721 109.142 245.653 109.048C245.608 108.985 245.551 108.932 245.485 108.892C245.42 108.852 245.347 108.825 245.271 108.812C245.195 108.8 245.117 108.803 245.042 108.821C244.967 108.84 244.897 108.872 244.834 108.918Z" fill="#B9B9D9"/>
<path d="M254.957 128.303C254.861 128.373 254.788 128.47 254.746 128.581C254.705 128.693 254.698 128.814 254.726 128.93C254.754 129.046 254.816 129.15 254.903 129.231C254.99 129.312 255.1 129.365 255.217 129.383C255.335 129.402 255.455 129.385 255.563 129.335C255.671 129.285 255.762 129.204 255.824 129.103C255.886 129.001 255.916 128.884 255.912 128.765C255.907 128.646 255.867 128.531 255.797 128.435C255.751 128.371 255.692 128.317 255.625 128.276C255.557 128.235 255.482 128.207 255.404 128.195C255.326 128.182 255.247 128.186 255.17 128.204C255.093 128.223 255.021 128.256 254.957 128.303Z" fill="#B9B9D9"/>
<path d="M85.0231 300.303C84.8963 300.394 84.7993 300.52 84.7444 300.665C84.6894 300.811 84.679 300.969 84.7145 301.121C84.7499 301.272 84.8297 301.41 84.9435 301.516C85.0573 301.622 85.2001 301.692 85.3537 301.716C85.5073 301.741 85.6647 301.719 85.8059 301.654C85.9471 301.589 86.0657 301.483 86.1467 301.35C86.2276 301.217 86.2672 301.063 86.2604 300.908C86.2536 300.752 86.2007 300.602 86.1084 300.477C85.9865 300.312 85.8043 300.2 85.6013 300.168C85.3983 300.135 85.1906 300.184 85.0231 300.303Z" fill="#B9B9D9"/>
<path d="M299.447 41.1164C299.302 41.2212 299.192 41.3666 299.13 41.5343C299.067 41.702 299.056 41.8843 299.098 42.0582C299.139 42.2322 299.232 42.3899 299.363 42.5113C299.494 42.6328 299.658 42.7126 299.835 42.7406C300.011 42.7686 300.192 42.7436 300.355 42.6687C300.517 42.5938 300.653 42.4724 300.747 42.3199C300.84 42.1673 300.886 41.9905 300.879 41.8119C300.871 41.6332 300.811 41.4607 300.706 41.3162C300.565 41.1235 300.353 40.9943 300.118 40.9569C299.882 40.9195 299.641 40.9768 299.447 41.1164Z" fill="#B9B9D9"/>
<path d="M385.995 56.136C386.073 56.126 386.147 56.0928 386.207 56.0408C386.267 55.9887 386.31 55.9201 386.331 55.8435C386.352 55.767 386.35 55.6859 386.325 55.6106C386.3 55.5353 386.253 55.4691 386.19 55.4203C386.128 55.3716 386.052 55.3425 385.973 55.3368C385.894 55.331 385.815 55.3488 385.746 55.388C385.677 55.4271 385.621 55.4859 385.585 55.5568C385.549 55.6277 385.536 55.7076 385.545 55.7864C385.552 55.8389 385.568 55.8896 385.595 55.9356C385.621 55.9817 385.656 56.0221 385.697 56.0546C385.739 56.0871 385.787 56.111 385.838 56.125C385.889 56.1389 385.942 56.1427 385.995 56.136Z" fill="#B9B9D9"/>
<path d="M402.475 44.324C402.606 44.3071 402.728 44.2519 402.827 44.1654C402.927 44.0789 402.998 43.9649 403.033 43.8379C403.067 43.7108 403.064 43.5763 403.022 43.4514C402.98 43.3265 402.902 43.2168 402.798 43.136C402.694 43.0553 402.569 43.0071 402.438 42.9977C402.306 42.9882 402.175 43.0179 402.061 43.083C401.946 43.148 401.854 43.2455 401.794 43.3632C401.735 43.4808 401.712 43.6134 401.728 43.7441C401.751 43.92 401.842 44.08 401.982 44.1887C402.122 44.2974 402.299 44.3461 402.475 44.324Z" fill="#B9B9D9"/>
<path d="M464.533 79.5907C464.405 79.4856 464.249 79.4208 464.084 79.4046C463.919 79.3883 463.753 79.4213 463.607 79.4993C463.461 79.5774 463.341 79.697 463.263 79.8431C463.185 79.9892 463.152 80.1552 463.168 80.3201C463.184 80.485 463.249 80.6414 463.353 80.7697C463.458 80.8979 463.599 80.9922 463.757 81.0405C463.916 81.0889 464.085 81.0892 464.244 81.0414C464.402 80.9937 464.543 80.8999 464.648 80.7721C464.718 80.687 464.771 80.5889 464.803 80.4835C464.835 80.378 464.847 80.2672 464.836 80.1575C464.825 80.0478 464.793 79.9412 464.741 79.8439C464.689 79.7467 464.619 79.6606 464.533 79.5907Z" fill="#B9B9D9"/>
<path d="M450.218 71.7001C450.863 71.6377 451.336 71.0635 451.274 70.4176C451.211 69.7717 450.637 69.2987 449.992 69.3612C449.346 69.4236 448.873 69.9978 448.936 70.6436C448.998 71.2895 449.572 71.7625 450.218 71.7001Z" fill="#B9B9D9"/>
<path d="M469.359 78.7654C469.234 78.662 469.081 78.5981 468.92 78.5818C468.758 78.5654 468.595 78.5973 468.452 78.6735C468.309 78.7496 468.191 78.8666 468.114 79.0096C468.037 79.1526 468.005 79.3152 468.02 79.4768C468.036 79.6385 468.099 79.7919 468.201 79.9176C468.304 80.0434 468.442 80.1359 468.597 80.1834C468.752 80.231 468.918 80.2314 469.073 80.1846C469.229 80.1379 469.367 80.046 469.47 79.9207C469.608 79.7526 469.673 79.5367 469.653 79.3202C469.632 79.1038 469.526 78.9043 469.359 78.7654Z" fill="#B9B9D9"/>
<path d="M456.545 60.9572C456.5 60.9204 456.445 60.8978 456.387 60.8922C456.329 60.8867 456.27 60.8984 456.219 60.926C456.168 60.9536 456.126 60.9958 456.098 61.0473C456.071 61.0988 456.059 61.1572 456.065 61.2153C456.071 61.2733 456.093 61.3284 456.13 61.3735C456.167 61.4186 456.217 61.4517 456.273 61.4687C456.328 61.4857 456.388 61.4858 456.444 61.469C456.5 61.4522 456.549 61.4192 456.586 61.3742C456.636 61.3133 456.659 61.2353 456.652 61.1572C456.644 61.0791 456.606 61.0072 456.545 60.9572Z" fill="#B9B9D9"/>
<path d="M301.807 110.264C301.684 110.353 301.591 110.477 301.538 110.619C301.486 110.761 301.477 110.916 301.512 111.063C301.547 111.211 301.626 111.345 301.737 111.447C301.848 111.55 301.988 111.618 302.137 111.642C302.287 111.665 302.44 111.644 302.578 111.581C302.716 111.517 302.831 111.414 302.911 111.285C302.99 111.156 303.029 111.006 303.023 110.854C303.017 110.703 302.966 110.556 302.877 110.434C302.757 110.27 302.577 110.16 302.377 110.128C302.176 110.096 301.971 110.145 301.807 110.264Z" fill="#B9B9D9"/>
<path d="M147.029 381.474C146.94 381.539 146.872 381.63 146.834 381.734C146.796 381.838 146.789 381.95 146.815 382.058C146.841 382.166 146.898 382.263 146.98 382.338C147.061 382.414 147.163 382.463 147.272 382.48C147.382 382.497 147.494 382.482 147.594 382.435C147.695 382.389 147.779 382.314 147.837 382.22C147.895 382.125 147.924 382.016 147.919 381.905C147.915 381.794 147.878 381.687 147.813 381.598C147.725 381.478 147.594 381.397 147.447 381.374C147.3 381.351 147.15 381.387 147.029 381.474Z" fill="#B9B9D9"/>
<path d="M148.275 391.457C148.211 391.504 148.162 391.569 148.135 391.644C148.108 391.718 148.103 391.799 148.122 391.876C148.14 391.953 148.181 392.023 148.24 392.077C148.298 392.131 148.371 392.166 148.449 392.179C148.528 392.191 148.608 392.18 148.68 392.147C148.752 392.114 148.813 392.06 148.854 391.992C148.896 391.925 148.916 391.846 148.913 391.767C148.91 391.687 148.884 391.611 148.838 391.546C148.807 391.504 148.767 391.467 148.722 391.44C148.677 391.412 148.627 391.393 148.575 391.385C148.523 391.377 148.469 391.379 148.418 391.391C148.367 391.404 148.318 391.426 148.275 391.457Z" fill="#B9B9D9"/>
<path d="M161.057 390.393C160.936 390.481 160.844 390.602 160.792 390.742C160.741 390.882 160.731 391.034 160.766 391.179C160.801 391.324 160.877 391.455 160.987 391.557C161.096 391.658 161.233 391.725 161.38 391.748C161.528 391.771 161.678 391.751 161.814 391.688C161.949 391.626 162.063 391.525 162.141 391.398C162.219 391.27 162.257 391.123 162.251 390.974C162.245 390.825 162.195 390.681 162.108 390.56C162.05 390.48 161.977 390.412 161.893 390.361C161.808 390.309 161.715 390.274 161.617 390.259C161.52 390.243 161.42 390.247 161.324 390.27C161.228 390.293 161.137 390.335 161.057 390.393Z" fill="#B9B9D9"/>
<path d="M447.002 282.45L439.085 317.441L405.277 315.649L447.002 282.45Z" stroke="#B9B9D9" stroke-linecap="round" stroke-linejoin="round"/>
<path d="M279.563 456.874L219.601 469.486L233.422 437.843L279.563 456.874Z" stroke="#B9B9D9" stroke-linecap="round" stroke-linejoin="round"/>
<path d="M162.041 414.856L159.818 453.964L187.78 465.97L162.041 414.856Z" stroke="#B9B9D9" stroke-linecap="round" stroke-linejoin="round"/>
<path d="M48.8469 141.398L10.1635 156.244L1.40649 186.661L48.8469 141.398Z" stroke="#B9B9D9" stroke-linecap="round" stroke-linejoin="round"/>
<path d="M91.0491 48.5328L71.4165 71.5401L102.797 85.6259L91.0491 48.5328Z" stroke="#B9B9D9" stroke-linecap="round" stroke-linejoin="round"/>
<path d="M362.995 48.6478L343.603 36.6469L299.977 41.846L362.995 48.6478Z" stroke="#B9B9D9" stroke-linecap="round" stroke-linejoin="round"/>
<path d="M405.264 137.202L419.874 167.198L425.429 122.156L405.264 137.202Z" stroke="#B9B9D9" stroke-linecap="round" stroke-linejoin="round"/>
<path d="M398.683 385.835L364.506 417.255L368.046 354.479L398.683 385.835Z" stroke="#B9B9D9" stroke-linecap="round" stroke-linejoin="round"/>
<path d="M341.549 426.01L299.701 453.738L334.084 398.711L341.549 426.01Z" stroke="#B9B9D9" stroke-linecap="round" stroke-linejoin="round"/>
<path d="M351.364 316.194L319.358 351.991L283.544 326.101L351.364 316.194Z" stroke="#B9B9D9" stroke-linecap="round" stroke-linejoin="round"/>
<path d="M275.486 9.5307L219.523 1.19995L244.73 57.4152L275.486 9.5307Z" stroke="#B9B9D9" stroke-linecap="round" stroke-linejoin="round"/>
<path d="M179.363 8.53821L136.896 20.9974L143.643 35.9281L179.363 8.53821Z" stroke="#B9B9D9" stroke-linecap="round" stroke-linejoin="round"/>
<path d="M334.084 398.711L398.683 385.835L364.506 417.255L334.084 398.711Z" stroke="#B9B9D9" stroke-linecap="round" stroke-linejoin="round"/>
<path d="M58.3203 232.782L10.1635 156.244L1.40649 186.661L58.3203 232.782Z" stroke="#B9B9D9" stroke-linecap="round" stroke-linejoin="round"/>
<path d="M83.8835 250.953L58.3202 232.782L55.6501 246.751L83.8835 250.953Z" stroke="#B9B9D9" stroke-linecap="round" stroke-linejoin="round"/>
<path d="M296.879 20.2981L303.775 22.9346L308.657 15.2228L296.879 20.2981Z" stroke="#B9B9D9" stroke-linecap="round" stroke-linejoin="round"/>
<path d="M333.01 4.35762L326.456 1.1326L328.208 16.1458L333.01 4.35762Z" stroke="#B9B9D9" stroke-linecap="round" stroke-linejoin="round"/>
<path d="M308.658 15.2228L333.01 4.3576L328.208 16.1457L308.658 15.2228Z" stroke="#B9B9D9" stroke-linecap="round" stroke-linejoin="round"/>
<path d="M413.75 364.756L413.945 355.9L400.977 342.25L413.75 364.756Z" stroke="#B9B9D9" stroke-linecap="round" stroke-linejoin="round"/>
<path d="M319.358 351.991L368.046 354.479L283.544 326.101L319.358 351.991Z" stroke="#B9B9D9" stroke-linecap="round" stroke-linejoin="round"/>
<path d="M399.887 32.6747L383.305 36.1256L402.392 43.6616L399.887 32.6747Z" stroke="#B9B9D9" stroke-linecap="round" stroke-linejoin="round"/>
<path d="M385.944 55.7364L383.305 36.1256L399.887 32.6747L385.944 55.7364Z" stroke="#B9B9D9" stroke-linecap="round" stroke-linejoin="round"/>
<path d="M450.1 70.5562L464.002 80.2378L456.358 61.1874L450.1 70.5562Z" stroke="#B9B9D9" stroke-linecap="round" stroke-linejoin="round"/>
<path d="M468.836 79.3995L464.002 80.2378L450.1 70.5563L468.836 79.3995Z" stroke="#B9B9D9" stroke-linecap="round" stroke-linejoin="round"/>
<path d="M421.76 194.186L412.237 211.33L411.56 191.389L421.76 194.186Z" stroke="#B9B9D9" stroke-linecap="round" stroke-linejoin="round"/>
<path d="M462.399 199.409L471.931 196.888L476.078 214.768L462.399 199.409Z" stroke="#B9B9D9" stroke-linecap="round" stroke-linejoin="round"/>
<path d="M83.3733 38.204L77.1409 39.9067L76.9868 46.4436L83.3733 38.204Z" stroke="#B9B9D9" stroke-linecap="round" stroke-linejoin="round"/>
<path d="M80.916 47.2905L76.9868 46.4436L77.1409 39.9067L80.916 47.2905Z" stroke="#B9B9D9" stroke-linecap="round" stroke-linejoin="round"/>
<path d="M209.37 212.722L165.001 297.32L198.529 257.384L209.37 212.722Z" stroke="#B9B9D9" stroke-linecap="round" stroke-linejoin="round"/>
<path d="M270.715 394.765L233.423 437.843L192.792 387.377L270.715 394.765Z" stroke="#B9B9D9" stroke-linecap="round" stroke-linejoin="round"/>
<path d="M97.1555 164.887L121.978 166.579L167.678 214.998L97.1555 164.887Z" stroke="#B9B9D9" stroke-linecap="round" stroke-linejoin="round"/>
<path d="M58.3203 232.782L121.979 166.579L97.1557 164.887L58.3203 232.782Z" stroke="#B9B9D9" stroke-linecap="round" stroke-linejoin="round"/>
<path d="M153.279 358.895L157.677 367.555L169.575 343.139L153.279 358.895Z" stroke="#B9B9D9" stroke-linecap="round" stroke-linejoin="round"/>
<path d="M84.272 414.413L101.141 433.876L97.0927 415.876L84.272 414.413Z" stroke="#B9B9D9" stroke-linecap="round" stroke-linejoin="round"/>
<path d="M147.357 381.928L148.512 391.781L161.5 391.001L147.357 381.928Z" stroke="#B9B9D9" stroke-linecap="round" stroke-linejoin="round"/>
<path d="M83.8834 250.953L85.4833 300.931L60.415 295.398L83.8834 250.953Z" stroke="#B9B9D9" stroke-linecap="round" stroke-linejoin="round"/>
<path d="M209.37 212.722L269.67 270.742L283.544 326.101L209.37 212.722Z" stroke="#B9B9D9" stroke-linecap="round" stroke-linejoin="round"/>
<path d="M270.715 394.765L341.55 426.01L279.563 456.874L270.715 394.765Z" stroke="#B9B9D9" stroke-linecap="round" stroke-linejoin="round"/>
<path d="M182.266 188.37L167.817 202.111L186.601 209.071L182.266 188.37Z" stroke="#B9B9D9" stroke-linecap="round" stroke-linejoin="round"/>
<path d="M245.18 109.391L219.571 121.134L255.311 128.791L245.18 109.391Z" stroke="#B9B9D9" stroke-linecap="round" stroke-linejoin="round"/>
<path d="M302.252 110.885L289.264 111.665L288.109 101.812L302.252 110.885Z" stroke="#B9B9D9" stroke-linecap="round" stroke-linejoin="round"/>
<path d="M343.603 36.6469L299.977 41.846L288.109 101.812L343.603 36.6469Z" stroke="#B9B9D9" stroke-linecap="round" stroke-linejoin="round"/>
<path d="M454.283 216.114L439.976 217.752L455.694 238.759L454.283 216.114Z" stroke="#B9B9D9" stroke-linecap="round" stroke-linejoin="round"/>
<path d="M379.284 184.874L336.261 194.744L357.455 165.778L379.284 184.874Z" stroke="#B9B9D9" stroke-linecap="round" stroke-linejoin="round"/>
<path d="M433.86 168.186L440.785 165.509L434.271 162.642L433.86 168.186Z" stroke="#B9B9D9" stroke-linecap="round" stroke-linejoin="round"/>
<path d="M278.169 190.236L259.665 167.906L253.945 181.054L278.169 190.236Z" stroke="#B9B9D9" stroke-linecap="round" stroke-linejoin="round"/>
<path d="M340.41 295.941L319.357 351.991L351.364 316.194L340.41 295.941Z" stroke="#B9B9D9" stroke-linecap="round" stroke-linejoin="round"/>
<path d="M167.678 214.998L167.817 202.111L182.266 188.37L167.678 214.998Z" stroke="#B9B9D9" stroke-linecap="round" stroke-linejoin="round"/>
<path d="M310.073 178.007L336.262 194.744L379.284 184.874L310.073 178.007Z" stroke="#B9B9D9" stroke-linecap="round" stroke-linejoin="round"/>
<path d="M340.41 295.941L332.743 245.185L349.308 280.165L340.41 295.941Z" stroke="#B9B9D9" stroke-linecap="round" stroke-linejoin="round"/>
<path d="M357.455 165.778L374.945 246.162L379.284 184.874L357.455 165.778Z" stroke="#B9B9D9" stroke-linecap="round" stroke-linejoin="round"/>
<path d="M376.013 124.6L359.99 144.762L344.958 126.14L376.013 124.6Z" stroke="#B9B9D9" stroke-linecap="round" stroke-linejoin="round"/>
<path d="M129.904 443.184L137.38 445.101L162.041 414.856L129.904 443.184Z" stroke="#B9B9D9" stroke-linecap="round" stroke-linejoin="round"/>
<path d="M187.78 465.97L279.563 456.874L233.423 437.843L187.78 465.97Z" stroke="#B9B9D9" stroke-linecap="round" stroke-linejoin="round"/>
<path d="M55.5784 153.933L121.978 166.579L97.1555 164.888L55.5784 153.933Z" stroke="#B9B9D9" stroke-linecap="round" stroke-linejoin="round"/>
<path d="M10.1633 156.244L48.8468 141.398L55.5784 153.933L10.1633 156.244Z" stroke="#B9B9D9" stroke-linecap="round" stroke-linejoin="round"/>
<path d="M421.565 271.096L439.085 317.441L447.002 282.45L421.565 271.096Z" stroke="#B9B9D9" stroke-linecap="round" stroke-linejoin="round"/>
<path d="M198.529 257.384L269.67 270.742L209.37 212.722L198.529 257.384Z" stroke="#B9B9D9" stroke-linecap="round" stroke-linejoin="round"/>
<path d="M186.601 209.071L198.529 257.384L209.37 212.722L186.601 209.071Z" stroke="#B9B9D9" stroke-linecap="round" stroke-linejoin="round"/>
<path d="M71.4165 71.5401L102.352 40.4518L91.0491 48.5328L71.4165 71.5401Z" stroke="#B9B9D9" stroke-linecap="round" stroke-linejoin="round"/>
<path d="M233.423 437.843L299.701 453.738L279.563 456.874L233.423 437.843Z" stroke="#B9B9D9" stroke-linecap="round" stroke-linejoin="round"/>
<path d="M398.683 385.835L413.945 355.9L413.75 364.756L398.683 385.835Z" stroke="#B9B9D9" stroke-linecap="round" stroke-linejoin="round"/>
<path d="M400.977 342.25L439.085 317.441L447.002 282.45L400.977 342.25Z" stroke="#B9B9D9" stroke-linecap="round" stroke-linejoin="round"/>
<path d="M179.363 8.53825L275.486 9.53072L219.523 1.19995L179.363 8.53825Z" stroke="#B9B9D9" stroke-linecap="round" stroke-linejoin="round"/>
<path d="M159.818 453.964L219.601 469.486L187.78 465.97L159.818 453.964Z" stroke="#B9B9D9" stroke-linecap="round" stroke-linejoin="round"/>
<path d="M270.715 394.765L283.544 326.102L269.67 270.742L270.715 394.765Z" stroke="#B9B9D9" stroke-linecap="round" stroke-linejoin="round"/>
<path d="M269.67 270.742L349.308 280.165L332.743 245.185L269.67 270.742Z" stroke="#B9B9D9" stroke-linecap="round" stroke-linejoin="round"/>
<path d="M302.252 110.885L336.261 194.744L357.455 165.778L302.252 110.885Z" stroke="#B9B9D9" stroke-linecap="round" stroke-linejoin="round"/>
<path d="M332.743 245.185L336.262 194.744L269.67 270.742L332.743 245.185Z" stroke="#B9B9D9" stroke-linecap="round" stroke-linejoin="round"/>
<path d="M332.743 245.185L421.565 271.096L374.945 246.162L332.743 245.185Z" stroke="#B9B9D9" stroke-linecap="round" stroke-linejoin="round"/>
<path d="M454.283 216.114L421.565 271.096L455.694 238.759L454.283 216.114Z" stroke="#B9B9D9" stroke-linecap="round" stroke-linejoin="round"/>
<path d="M433.86 168.186L419.874 167.198L405.264 137.202L433.86 168.186Z" stroke="#B9B9D9" stroke-linecap="round" stroke-linejoin="round"/>
<path d="M405.277 315.649L368.046 354.479L439.085 317.441L405.277 315.649Z" stroke="#B9B9D9" stroke-linecap="round" stroke-linejoin="round"/>
<path d="M299.977 41.8461L219.523 1.19995L275.486 9.5307L299.977 41.8461Z" stroke="#B9B9D9" stroke-linecap="round" stroke-linejoin="round"/>
<path d="M215.253 132.212L245.179 109.391L219.571 121.134L215.253 132.212Z" stroke="#B9B9D9" stroke-linecap="round" stroke-linejoin="round"/>
<path d="M244.73 57.4152L245.179 109.391L215.253 132.212L244.73 57.4152Z" stroke="#B9B9D9" stroke-linecap="round" stroke-linejoin="round"/>
<path d="M199.689 106.692L219.79 121.179L152.276 99.0276L199.689 106.692Z" stroke="#B9B9D9" stroke-linecap="round" stroke-linejoin="round"/>
<path d="M1.69946 283.188L23.3184 340.578L45.315 361.987L1.69946 283.188Z" stroke="#B9B9D9" stroke-linecap="round" stroke-linejoin="round"/>
<path d="M84.272 414.413L129.904 443.184L101.141 433.876L84.272 414.413Z" stroke="#B9B9D9" stroke-linecap="round" stroke-linejoin="round"/>
<path d="M192.792 387.377L157.677 367.555L153.279 358.895L192.792 387.377Z" stroke="#B9B9D9" stroke-linecap="round" stroke-linejoin="round"/>
<path d="M169.575 343.139L198.529 257.384L165.001 297.32L169.575 343.139Z" stroke="#B9B9D9" stroke-linecap="round" stroke-linejoin="round"/>
<path d="M60.415 295.398L23.3184 340.578L1.21973 282.526L60.415 295.398Z" stroke="#B9B9D9" stroke-linecap="round" stroke-linejoin="round"/>
<path d="M87.5107 371.68L85.4832 300.931L153.279 358.895L87.5107 371.68Z" stroke="#B9B9D9" stroke-linecap="round" stroke-linejoin="round"/>
<path d="M129.904 443.184L87.5107 371.68L148.512 391.781L129.904 443.184Z" stroke="#B9B9D9" stroke-linecap="round" stroke-linejoin="round"/>
<path d="M47.8939 385.22L23.3184 340.578L45.315 361.987L47.8939 385.22Z" stroke="#B9B9D9" stroke-linecap="round" stroke-linejoin="round"/>
<path d="M197.333 40.2433L219.523 1.19995L179.363 8.53823L197.333 40.2433Z" stroke="#B9B9D9" stroke-linecap="round" stroke-linejoin="round"/>
<path d="M128.233 67.581L143.643 35.9281L197.333 40.2433L128.233 67.581Z" stroke="#B9B9D9" stroke-linecap="round" stroke-linejoin="round"/>
<path d="M102.797 85.6259L128.233 67.581L71.4165 71.5401L102.797 85.6259Z" stroke="#B9B9D9" stroke-linecap="round" stroke-linejoin="round"/>
<path d="M167.678 214.998L198.529 257.384L167.817 202.111L167.678 214.998Z" stroke="#B9B9D9" stroke-linecap="round" stroke-linejoin="round"/>
<path d="M310.073 178.007L278.169 190.236L253.945 181.054L310.073 178.007Z" stroke="#B9B9D9" stroke-linecap="round" stroke-linejoin="round"/>
<path d="M259.665 167.906L255.31 128.791L245.179 109.391L259.665 167.906Z" stroke="#B9B9D9" stroke-linecap="round" stroke-linejoin="round"/>
<path d="M128.233 67.581L152.276 99.0276L121.979 166.579L128.233 67.581Z" stroke="#B9B9D9" stroke-linecap="round" stroke-linejoin="round"/>
<path d="M195.481 150.912L215.253 132.212L182.266 188.37L195.481 150.912Z" stroke="#B9B9D9" stroke-linecap="round" stroke-linejoin="round"/>
<path d="M253.945 181.054L215.253 132.212L195.481 150.912L253.945 181.054Z" stroke="#B9B9D9" stroke-linecap="round" stroke-linejoin="round"/>
<path d="M288.109 101.812L244.73 57.4151L197.333 40.2433L288.109 101.812Z" stroke="#B9B9D9" stroke-linecap="round" stroke-linejoin="round"/>
<path d="M102.797 85.6259L152.276 99.0276" stroke="#B9B9D9" stroke-linecap="round" stroke-linejoin="round"/>
<path d="M288.109 101.812L197.333 40.2433" stroke="#B9B9D9" stroke-width="2" stroke-linecap="round" stroke-linejoin="round"/>
<path d="M269.67 270.742L215.253 132.212" stroke="#B9B9D9" stroke-width="2" stroke-linecap="round" stroke-linejoin="round"/>
<path d="M283.544 326.101L157.677 367.555" stroke="#B9B9D9" stroke-width="3" stroke-linecap="round" stroke-linejoin="round"/>
<path d="M351.364 316.194L349.308 280.165" stroke="#B9B9D9" stroke-width="3" stroke-linecap="round" stroke-linejoin="round"/>
<path d="M209.37 212.722L167.737 202.002" stroke="#B9B9D9" stroke-width="3" stroke-linecap="round" stroke-linejoin="round"/>
<path d="M97.1555 164.887L152.747 98.7779" stroke="#B9B9D9" stroke-width="3" stroke-linecap="round" stroke-linejoin="round"/>
<path d="M85.4834 300.931L58.3203 232.782" stroke="#B9B9D9" stroke-width="3" stroke-linecap="round" stroke-linejoin="round"/>
<path d="M215.253 132.212L199.688 106.692" stroke="#B9B9D9" stroke-width="3" stroke-linecap="round" stroke-linejoin="round"/>
</g>
</svg>
