<svg width="18" height="20" viewBox="0 0 18 20" fill="none" xmlns="http://www.w3.org/2000/svg">
<path fill-rule="evenodd" clip-rule="evenodd" d="M0.147873 14.4577C-0.0711984 14.7519 -0.0468571 15.1701 0.220897 15.4366L4.31756 19.5144L4.40185 19.5868C4.69596 19.804 5.11257 19.7788 5.37822 19.512L5.45064 19.4277C5.66782 19.1336 5.64265 18.7169 5.37577 18.4513L2.56617 15.6552L14.3683 15.6552L14.4701 15.6483C14.8362 15.5987 15.1183 15.2849 15.1183 14.9052C15.1183 14.491 14.7825 14.1552 14.3683 14.1552L2.5663 14.1552L5.37577 11.3588L5.44858 11.2749C5.66711 10.9818 5.64387 10.5651 5.37822 10.2982C5.086 10.0046 4.61113 10.0035 4.31756 10.2957L0.220897 14.3735L0.21639 14.3787C0.19383 14.4016 0.172729 14.4259 0.153239 14.4516L0.147873 14.4577ZM3.36234 4.23358C2.99626 4.28325 2.71411 4.59704 2.71411 4.97674C2.71411 5.39095 3.0499 5.72674 3.46411 5.72674L15.2658 5.72674L12.4567 8.52307L12.3839 8.60702C12.1653 8.90013 12.1886 9.31685 12.4542 9.58373C12.7464 9.8773 13.2213 9.8784 13.5149 9.58618L17.6115 5.5084L17.6161 5.5032C17.6386 5.48031 17.6597 5.45598 17.6792 5.43036L17.6846 5.42417C17.9036 5.13006 17.8793 4.71181 17.6115 4.44529L13.5149 0.367515L13.4306 0.295093C13.1365 0.0779184 12.7199 0.103086 12.4542 0.369968C12.162 0.663536 12.1631 1.13841 12.4567 1.43063L15.2649 4.22674L3.46411 4.22674L3.36234 4.23358Z" fill="#A6A0BB"/>
</svg>
