<svg width="23" height="22" viewBox="0 0 23 22" fill="none" xmlns="http://www.w3.org/2000/svg">
<g clip-path="url(#clip0)">
<path fill-rule="evenodd" clip-rule="evenodd" d="M0.0283203 11C0.0283203 4.92493 4.95325 0 11.0283 0C17.1034 0 22.0283 4.92493 22.0283 11C22.0283 17.0751 17.1034 22 11.0283 22C4.95325 22 0.0283203 17.0751 0.0283203 11ZM13.2262 7.18954H12.0469C11.7986 7.17239 11.5425 7.37455 11.4972 7.63939C11.4932 7.98322 11.4937 8.32696 11.4942 8.67074C11.4943 8.78531 11.4945 8.89989 11.4945 9.01449C11.7826 9.01591 12.0708 9.01591 12.3591 9.01591C12.6473 9.01591 12.9355 9.01591 13.2237 9.01734C13.1811 9.6806 13.1037 10.3412 13.013 10.9961C12.7218 10.9993 12.4305 10.9989 12.1393 10.9984C11.9208 10.998 11.7024 10.9977 11.484 10.9989C11.4813 11.9768 11.4819 12.954 11.4826 13.9312C11.4833 14.9084 11.484 15.8857 11.4813 16.8638C11.1565 16.865 10.8321 16.8647 10.5079 16.8643C10.0756 16.8638 9.64347 16.8634 9.21039 16.8666C9.20295 15.7801 9.20377 14.6935 9.2046 13.6069C9.20526 12.7376 9.20592 11.8683 9.20235 10.9989C9.04455 10.9977 8.88626 10.998 8.72789 10.9984C8.5167 10.9989 8.30539 10.9993 8.09494 10.9961C8.09673 10.5574 8.09613 10.1188 8.09554 9.68097C8.09524 9.46238 8.09494 9.244 8.09494 9.02592C8.30537 9.02265 8.51667 9.02312 8.72785 9.02358C8.88623 9.02393 9.04454 9.02428 9.20235 9.02306C9.20694 8.74977 9.20563 8.47595 9.20432 8.20206C9.20257 7.83683 9.20082 7.47146 9.21307 7.10703C9.25307 6.59735 9.43184 6.08785 9.78685 5.73765C10.2165 5.30208 10.8248 5.15403 11.4013 5.13689C11.8576 5.1326 12.3139 5.13314 12.7702 5.13368C12.9223 5.13385 13.0744 5.13403 13.2264 5.13403C13.2289 5.82015 13.2289 6.50342 13.2262 7.18954Z" fill="#695FDF"/>
<path fill-rule="evenodd" clip-rule="evenodd" d="M0.0283203 11C0.0283203 4.92493 4.95325 0 11.0283 0C17.1034 0 22.0283 4.92493 22.0283 11C22.0283 17.0751 17.1034 22 11.0283 22C4.95325 22 0.0283203 17.0751 0.0283203 11ZM13.2262 7.18954H12.0469C11.7986 7.17239 11.5425 7.37455 11.4972 7.63939C11.4932 7.98322 11.4937 8.32696 11.4942 8.67074C11.4943 8.78531 11.4945 8.89989 11.4945 9.01449C11.7826 9.01591 12.0708 9.01591 12.3591 9.01591C12.6473 9.01591 12.9355 9.01591 13.2237 9.01734C13.1811 9.6806 13.1037 10.3412 13.013 10.9961C12.7218 10.9993 12.4305 10.9989 12.1393 10.9984C11.9208 10.998 11.7024 10.9977 11.484 10.9989C11.4813 11.9768 11.4819 12.954 11.4826 13.9312C11.4833 14.9084 11.484 15.8857 11.4813 16.8638C11.1565 16.865 10.8321 16.8647 10.5079 16.8643C10.0756 16.8638 9.64347 16.8634 9.21039 16.8666C9.20295 15.7801 9.20377 14.6935 9.2046 13.6069C9.20526 12.7376 9.20592 11.8683 9.20235 10.9989C9.04455 10.9977 8.88626 10.998 8.72789 10.9984C8.5167 10.9989 8.30539 10.9993 8.09494 10.9961C8.09673 10.5574 8.09613 10.1188 8.09554 9.68097C8.09524 9.46238 8.09494 9.244 8.09494 9.02592C8.30537 9.02265 8.51667 9.02312 8.72785 9.02358C8.88623 9.02393 9.04454 9.02428 9.20235 9.02306C9.20694 8.74977 9.20563 8.47595 9.20432 8.20206C9.20257 7.83683 9.20082 7.47146 9.21307 7.10703C9.25307 6.59735 9.43184 6.08785 9.78685 5.73765C10.2165 5.30208 10.8248 5.15403 11.4013 5.13689C11.8576 5.1326 12.3139 5.13314 12.7702 5.13368C12.9223 5.13385 13.0744 5.13403 13.2264 5.13403C13.2289 5.82015 13.2289 6.50342 13.2262 7.18954Z" fill="url(#paint0_linear)"/>
</g>
<defs>
<linearGradient id="paint0_linear" x1="-0.0929289" y1="10.9995" x2="22.1496" y2="10.9995" gradientUnits="userSpaceOnUse">
<stop offset="0.00893389" stop-color="#C734F7"/>
<stop offset="0.5754" stop-color="#8C72DA"/>
<stop offset="0.9866" stop-color="#7890D3"/>
</linearGradient>
<clipPath id="clip0">
<rect width="22" height="22" fill="white" transform="translate(0.0283203)"/>
</clipPath>
</defs>
</svg>
