<svg width="984" height="941" viewBox="0 0 984 941" fill="none" xmlns="http://www.w3.org/2000/svg">
<g clip-path="url(#clip0)">
<g style="mix-blend-mode:screen">
<path d="M888.047 640.737C1039.78 552.92 1117.06 402.334 1060.65 304.395C1004.25 206.456 835.511 198.251 683.774 286.068C532.038 373.885 454.76 524.47 511.168 622.41C567.577 720.349 736.311 728.554 888.047 640.737Z" fill="url(#paint0_radial)"/>
</g>
<g style="mix-blend-mode:color-dodge" opacity="0.71">
<path d="M622.598 535.261C595.905 550.71 570.059 550.973 549.003 535.782C512.964 509.765 499.246 444.301 517.021 383.501C526.637 350.728 551.663 328.387 580.754 326.609C613.744 324.491 644.629 349.174 663.167 392.425C673.558 416.65 682.639 442.386 678.799 466.554C675.14 489.647 659.953 509.761 631.056 529.881C628.277 531.828 625.433 533.62 622.598 535.261ZM554.06 336.336C537.797 345.748 524.924 362.559 518.669 383.881C500.991 444.091 514.459 508.827 549.986 534.461C572.702 550.85 601.21 548.731 630.288 528.506C688.68 487.873 686.73 451.003 661.837 392.976C643.572 350.368 613.324 326.116 580.984 328.101C571.46 328.715 562.208 331.553 553.97 336.388L554.06 336.336Z" fill="url(#paint1_linear)"/>
</g>
<g style="mix-blend-mode:color-dodge" opacity="0.57">
<path d="M618.042 539.302C609.407 544.42 600.051 548.2 590.29 550.514C570.952 554.795 557.669 553.607 547.24 546.646C532.212 536.623 522.185 513.45 514.698 471.467C506.716 426.692 516.703 351.488 563.513 332.228C607.593 313.991 649.034 344.13 661.136 360.599C663.412 363.567 665.898 366.366 668.576 368.975C681.833 382.569 695.53 396.635 675.6 463.87C664.358 501.56 641.118 525.947 618.042 539.302ZM557.236 336.977C517.17 360.165 508.786 429.107 516.28 471.061C523.675 512.587 533.506 535.462 548.142 545.227C558.199 551.919 571.101 553.036 589.985 548.848C619.024 542.396 658.503 516.128 674.149 463.328C693.794 396.986 680.418 383.267 667.48 369.974C664.763 367.312 662.234 364.466 659.908 361.455C648.039 345.264 607.408 315.772 564.137 333.564C561.74 334.562 559.41 335.716 557.163 337.019L557.236 336.977Z" fill="url(#paint2_linear)"/>
</g>
<g style="mix-blend-mode:color-dodge" opacity="0.12">
<path d="M618.739 546.489C610.501 551.322 601.714 555.146 592.567 557.878C581.666 561.035 569.312 558.558 556.931 550.689C532.575 535.322 510.437 501.261 505.415 471.382C499.006 432.995 516.598 341.676 556.362 322.59C591.084 305.938 642.151 320.905 667.848 355.258C672.575 361.615 696.933 427.589 685.115 463.649C673.917 498.493 650.282 527.99 618.739 546.489ZM554.292 325.558C517.006 347.138 500.774 434.13 506.965 471.213C511.811 500.66 533.604 534.29 557.727 549.379C569.772 556.958 581.662 559.388 592.13 556.361C623.261 547.316 665.769 517.597 683.597 463.243C695.273 427.653 671.231 362.563 666.556 356.297C641.246 322.447 591.138 307.798 557.016 324.103C556.102 324.535 555.183 325.043 554.292 325.558Z" fill="url(#paint3_linear)"/>
</g>
<g style="mix-blend-mode:color-dodge" opacity="0.55">
<path d="M614.285 547.173C607.324 551.211 599.988 554.563 592.382 557.182C562.93 567.292 538.531 554.206 523.658 520.306C510.698 490.778 505.848 446.518 510.976 404.775C516.301 361.44 531.309 329.111 550.98 318.381C584.322 300.176 644.364 309.778 674.848 349.92C692.143 372.671 695.051 414.442 682.378 456.21C670.009 496.906 645.775 528.948 614.285 547.173ZM550.974 320.179C532.058 331.127 517.729 362.699 512.574 404.942C507.414 446.46 512.28 490.371 525.123 519.652C535.388 543.028 555.291 568.246 591.898 555.668C633.483 541.3 665.955 504.926 680.88 455.671C693.268 414.965 690.338 372.818 673.593 350.768C643.683 311.287 584.516 301.858 551.675 319.798L550.93 320.229L550.974 320.179Z" fill="url(#paint4_linear)"/>
</g>
<g style="mix-blend-mode:color-dodge" opacity="0.26">
<path d="M619.292 547.793C610.913 552.64 602.173 556.831 593.15 560.328C567.725 570.193 543.035 555.383 525.55 519.891C510.607 489.741 503.128 447.73 505.893 410.508C509.052 368.039 524.533 336.237 549.499 320.988C594.61 293.352 663.565 319.861 682.268 344.173C703.587 371.893 709.709 409.695 699.034 447.906C687.491 489.238 658.503 525.099 619.292 547.793ZM549.904 321.65L550.302 322.341C494.76 356.306 499.42 463.334 526.936 519.186C544.078 553.955 567.986 568.417 592.544 558.812C644.403 538.643 683.639 497.02 697.484 447.445C708.052 409.805 701.992 372.404 680.96 345.1C662.553 321.174 594.648 295.1 550.271 322.287L549.904 321.65Z" fill="url(#paint5_linear)"/>
</g>
<g style="mix-blend-mode:color-dodge" opacity="0.78">
<path d="M607.327 557.721C597.827 563.472 587.498 567.716 576.706 570.302C560.642 573.707 547.436 570.632 537.494 561.11C515.235 540.045 500.708 504.222 497.661 462.799C494.675 422.238 502.801 381.284 519.965 350.471C545.453 304.706 586.747 286.723 636.193 299.887C651.926 304.069 681.702 325.44 698.591 359.895C709.269 381.674 718.209 416.631 700.227 459.483C687.974 488.519 646.992 534.765 607.327 557.721ZM560.857 309.031C545.248 318.064 531.86 332.214 521.303 351.322C504.265 381.891 496.214 422.511 499.183 462.791C502.215 503.811 516.569 539.248 538.541 560.067C548.096 569.086 560.886 572.111 576.43 568.813C622.61 559.06 683.463 495.325 698.747 458.933C716.526 416.611 707.78 382.075 697.179 360.64C680.696 327.016 650.842 305.425 635.788 301.455C607.622 293.944 582.17 296.696 560.857 309.031Z" fill="url(#paint6_linear)"/>
</g>
<g style="mix-blend-mode:color-dodge" opacity="0.41">
<path d="M599.251 574.159C598.905 574.386 598.547 574.594 598.178 574.78C585.381 580.659 571.675 579.619 557.421 571.695C524.55 553.449 497.594 503.069 493.031 467.47C487.541 424.284 504.841 341.38 540.138 315.253L540.525 315.926L540.138 315.253C586.579 280.882 675.775 306.782 696.492 333.202C708.851 348.94 718.395 415.653 700.285 455.888C684.584 490.63 615.775 564.571 599.251 574.159ZM547.527 312.141C545.275 313.445 543.098 314.875 541.006 316.424C506.726 341.792 489.183 425.37 494.573 467.16C499.084 502.376 525.716 552.192 558.169 570.219C571.957 577.88 585.161 578.846 597.504 573.23C611.657 566.76 682.888 490.545 698.831 455.129C716.742 415.349 707.394 349.565 695.228 334.079C675.699 309.3 594.697 284.841 547.527 312.141Z" fill="url(#paint7_linear)"/>
</g>
<g style="mix-blend-mode:color-dodge" opacity="0.26">
<path d="M605.831 582.43C604.614 583.135 603.378 583.85 602.124 584.406C588.881 590.858 574.383 590.083 560.019 582.222C529.235 565.412 505.105 519.434 498.657 465.333C498.195 461.502 497.741 457.812 497.322 454.224C489.576 391.053 486.043 362.205 540.326 318.566C552.149 309.142 565.721 302.166 580.254 298.042C594.787 293.919 609.99 292.732 624.977 294.55C654.357 297.818 681.544 311.958 697.638 332.373C723.811 365.407 734.02 382.923 700.804 452.075C698.795 456.244 696.85 460.523 694.861 464.851C685.919 484.575 676.635 504.716 660.62 521.792C653.858 529.305 647.521 537.191 641.638 545.412C630.679 560.12 620.277 574.07 605.831 582.43ZM540.732 319.229L541.228 319.839C487.685 362.952 491.151 391.475 498.825 454.057C499.283 457.656 499.728 461.359 500.16 465.166C506.593 518.864 530.363 564.298 560.719 580.872C574.616 588.469 588.68 589.205 601.393 583.011C617.505 575.189 628.601 560.256 640.388 544.462C646.307 536.196 652.686 528.27 659.495 520.722C675.25 503.868 684.495 483.702 693.422 464.204C695.419 459.847 697.383 455.558 699.391 451.389C732.179 383.091 722.156 365.856 696.39 333.361C680.495 313.293 653.708 299.382 624.744 296.164C609.959 294.365 594.96 295.532 580.622 299.597C566.284 303.661 552.892 310.542 541.228 319.839L540.732 319.229Z" fill="url(#paint8_linear)"/>
</g>
<g style="mix-blend-mode:color-dodge" opacity="0.61">
<path d="M600.737 582.463L600.41 582.653C571.024 597.672 540.688 586.18 517.14 551.141C496.015 519.721 483.782 474.545 484.46 430.336C485.21 380.362 502.247 338.349 532.493 312.163C557.823 290.228 591.545 279.877 627.529 283.13C661.596 286.207 693.273 301.288 710.262 322.542C725.731 341.911 730.228 367.219 723.637 397.755C706.11 478.583 613.802 574.902 600.737 582.463ZM533.052 312.712L533.566 313.312C503.691 339.259 486.806 380.821 486.057 430.333C485.451 474.331 497.527 519.064 518.487 550.241C541.54 584.547 571.15 595.829 599.734 581.226L600.061 581.036C612.962 573.57 704.718 477.764 721.996 397.346C728.485 367.306 724.081 342.454 708.918 323.489C692.308 302.598 661.016 287.682 627.397 284.71C591.837 281.478 558.5 291.655 533.53 313.333L533.052 312.712Z" fill="url(#paint9_linear)"/>
</g>
<g style="mix-blend-mode:color-dodge" opacity="0.5">
<path d="M602.99 584.19C602.282 584.6 601.573 585.01 600.865 585.42C583.585 594.621 566.273 594.723 549.39 585.726C513.392 566.55 487.114 509.063 482.495 464.573C479.053 431.381 503.414 334.911 529.059 310.999L529.582 311.57L529.059 310.999C550.811 290.675 585.867 281.128 627.716 284.09C671.434 287.183 708.447 302.57 718.996 315.669C729.545 328.769 729.899 345.998 730.167 361.144C730.222 364.774 730.303 368.194 730.487 371.458C732.824 409.8 709.803 457.532 662.034 513.403C654.949 522.037 648.419 531.113 642.484 540.577C631.103 557.832 620.397 574.116 602.99 584.19ZM530.112 312.112C505.304 335.247 480.63 432.311 484.034 464.385C488.6 508.445 514.571 565.359 550.105 584.318C566.493 593.044 583.315 592.934 600.094 583.999C618.442 574.253 629.439 557.51 641.073 539.768C647.072 530.219 653.666 521.058 660.816 512.338C708.263 456.75 731.247 409.5 728.892 371.508C728.698 368.226 728.625 364.776 728.559 361.129C728.297 346.246 727.991 329.353 717.728 316.622C707.464 303.891 670.29 288.645 627.582 285.623C586.167 282.701 551.563 292.107 530.112 312.112Z" fill="url(#paint10_linear)"/>
</g>
<g style="mix-blend-mode:color-dodge" opacity="0.38">
<path d="M600.956 587.136C587.31 595.034 574.41 598.547 562.37 597.538C537.779 595.475 517.628 574.791 504.156 537.728C478.91 468.32 483.049 348.684 523.82 307.92L524.361 308.48L523.82 307.92C565.48 266.302 661.15 261.757 709.931 299.091C733.378 317.044 765.251 360.018 715.861 446.726C674.242 519.794 635.242 567.293 600.956 587.136ZM544.291 294.375C537.224 298.404 530.706 303.334 524.902 309.04C487.738 346.14 478.004 461.279 505.619 537.197C514.859 562.621 532.228 593.451 562.494 595.987C591.456 598.405 641.346 574.357 714.472 445.954C750.599 382.489 748.689 330.758 708.963 300.355C667.257 268.407 590.843 267.433 544.291 294.375Z" fill="url(#paint11_linear)"/>
</g>
<g style="mix-blend-mode:color-dodge" opacity="0.24">
<path d="M604.799 595.536L604.291 595.831C576.728 611.492 547.024 602.738 522.81 571.843C498.832 541.274 483.462 494.228 481.794 445.945C479.731 391.635 495.313 343.941 525.622 311.68C582.411 251.194 658.833 255 704.974 289.936C726.563 305.965 741.359 329.525 746.445 355.968C751.807 385.09 744.787 416.942 726.146 448.051C718.132 461.394 706.055 472.773 694.398 483.787C685.269 491.965 676.76 500.813 668.942 510.256C661.218 520.622 654.293 531.561 648.226 542.978C636.354 563.84 625.241 583.706 604.799 595.536ZM526.189 312.201L526.766 312.74C496.71 344.684 481.304 392.01 483.269 445.94C485.003 493.118 500.61 540.996 524.04 570.865C548.081 601.544 576.306 609.917 603.523 594.456C623.958 582.824 635.061 563.109 646.855 542.195C652.972 530.717 659.94 519.713 667.7 509.277C675.574 499.776 684.139 490.872 693.325 482.638C704.912 471.713 716.872 460.426 724.782 447.24C767.488 376.015 740.352 318.636 704.034 291.207C658.434 256.662 582.86 252.899 526.766 312.74L526.189 312.201Z" fill="url(#paint12_linear)"/>
</g>
<g style="mix-blend-mode:color-dodge" opacity="0.46">
<path d="M605.079 599.981C576.498 616.522 549.589 610.855 527.262 583.573C503.294 554.283 486.69 501.016 483.946 444.554C481.054 385.607 493.84 334.026 518.127 306.537L518.722 307.065L518.127 306.537C542.817 278.57 577.868 261.777 616.8 259.128C652.865 256.757 688.834 266.88 715.493 286.878C765.214 324.202 771.373 383.902 731.841 446.67C723.649 459.704 712.027 471.158 700.805 482.212C691.471 490.978 682.782 500.408 674.804 510.427C667.536 520.481 660.82 530.924 654.689 541.71C641.09 564.663 628.261 586.346 605.354 599.701L605.079 599.981ZM552.976 280.014C540.344 287.311 528.978 296.616 519.325 307.565C466.288 367.625 479.567 522.719 528.574 582.571C543.769 601.129 569.247 618.949 604.387 598.611L604.642 598.464C627.245 585.382 639.939 563.802 653.469 541.107C659.627 530.263 666.377 519.767 673.688 509.667C681.7 499.58 690.441 490.097 699.839 481.292C711.007 470.27 722.548 458.886 730.647 446.027C769.644 384.054 763.659 325.078 714.687 288.339C672.578 256.744 605.088 249.854 552.976 280.014Z" fill="url(#paint13_linear)"/>
</g>
<g style="mix-blend-mode:color-dodge" opacity="0.33">
<path d="M605.319 603.891C584.641 615.858 563.574 615.539 544.182 602.901C498.624 573.182 469.759 481.086 479.849 397.652C488.391 327.092 522.33 277.916 575.346 259.211C599.249 250.784 711.778 257.844 743.532 296.572C765.612 323.341 766.146 361.538 745.09 410.073C728.106 449.486 701.491 485.258 687.118 504.512L681.849 511.684C675.695 520.095 670.042 529.041 664.466 537.7C648.68 562.282 632.385 587.789 606.064 603.46L605.246 603.933L605.319 603.891ZM554.009 270.832C501.134 301.434 485.851 361.928 481.507 397.88C471.48 480.793 500.04 572.193 545.14 601.62C564.151 614.017 585.028 614.131 605.369 602.043C631.34 586.479 646.833 562.357 663.237 536.786C668.795 528.138 674.541 519.187 680.672 510.692C682.106 508.722 683.931 506.381 685.988 503.517C712.504 467.826 793.252 359.26 742.42 297.627C711.053 259.404 599.628 252.408 575.963 260.745C568.337 263.425 560.975 266.809 553.973 270.853L554.009 270.832Z" fill="url(#paint14_linear)"/>
</g>
<g style="mix-blend-mode:color-dodge" opacity="0.75">
<path d="M607.073 610.637C578.619 627.105 549.065 620.422 523.692 591.678C496.981 561.453 478.809 511.52 475.023 458.086C470.813 398.617 484.948 344.923 515.019 306.738C562.738 246.07 645.839 234.93 699.795 255.253C746.447 272.822 771.695 311.191 769.064 360.507C767.239 395.195 737.401 433.657 708.568 470.834C698.756 483.496 689.504 495.446 681.339 507.18C673.695 518.737 666.763 530.75 660.58 543.151C647.377 568.348 633.717 594.392 608.57 609.746L607.073 610.637ZM515.64 307.228L516.261 307.717C486.488 345.535 472.408 398.906 476.586 457.982C480.295 510.272 498.793 561.108 524.861 590.638C550.122 619.228 579.604 625.492 607.767 608.392C632.55 593.249 646.091 567.419 659.194 542.426C665.4 529.959 672.373 517.89 680.074 506.288C688.254 494.497 697.525 482.536 707.354 469.864C736.03 432.875 765.746 394.58 767.519 360.431C770.098 311.825 745.231 274.034 699.252 256.708C645.876 236.678 563.535 247.622 516.279 307.706L515.64 307.228Z" fill="url(#paint15_linear)"/>
</g>
<g style="mix-blend-mode:color-dodge" opacity="0.54">
<path d="M611.542 621.848C578.019 641.25 540.501 632.096 513.074 597.557C497.234 577.626 471.964 491.476 469.967 458.102C467.057 412.332 489.418 322.524 505.677 300.698C551.66 238.95 594.766 237.911 655.266 243.39C742.473 251.114 780.743 287.695 775.604 358.273C772.228 404.698 744.157 438.573 717.034 471.317C706.919 483.102 697.405 495.391 688.527 508.136C680.459 520.25 673.67 534.29 667.109 547.884C653.718 575.615 639.907 604.341 613.795 620.544L611.542 621.848ZM506.948 301.685C491.071 322.997 468.741 413.783 471.52 457.979C473.557 491.257 498.625 576.845 514.334 596.633C541.233 630.508 577.991 639.52 610.806 620.528L612.987 619.266C638.706 603.265 652.448 574.798 665.738 547.271C672.451 533.687 679.13 519.54 687.268 507.337C696.172 494.526 705.728 482.181 715.896 470.351C742.851 437.777 770.756 404.12 774.105 358.195C779.128 288.678 741.337 252.718 655.155 245.006C595.121 239.621 552.462 240.595 506.948 301.685Z" fill="url(#paint16_linear)"/>
</g>
<g style="mix-blend-mode:color-dodge" opacity="0.63">
<path d="M606.411 619.965C570.762 640.597 539.264 633.778 512.599 599.72C500.284 583.933 493.855 562.339 487.042 539.488C486.155 536.461 485.24 533.402 484.299 530.309C481.604 521.86 478.412 513.578 474.739 505.508C462.794 478.037 451.531 452.088 468.598 374.921C477.209 335.99 527.141 259.856 570.06 243.139C605.689 229.285 720.056 232.977 761.544 282.801C780.007 304.972 787.571 330.977 784.041 360.056C780.941 385.59 769.176 412.694 749.95 438.37C711.498 489.723 688.916 523.621 672.444 548.358C647.247 586.171 637.834 600.324 610.543 617.549C609.118 618.398 607.792 619.166 606.411 619.965ZM609.617 616.194L610.005 616.866L609.617 616.194C636.672 599.105 646.044 585.049 671.093 547.442C687.591 522.666 710.162 488.75 748.651 437.377C790.038 382.119 794.389 324.727 760.336 283.815C719.263 234.502 606.025 230.836 570.599 244.622C528.093 261.172 478.63 336.647 470.084 375.273C453.148 451.952 464.304 477.672 476.131 504.896C479.814 513.036 483.008 521.39 485.695 529.914C486.63 533.01 487.565 536.106 488.539 539.058C495.318 561.807 501.689 583.217 513.839 598.76C540.907 633.433 573.106 639.241 609.649 616.248L609.617 616.194Z" fill="url(#paint17_linear)"/>
</g>
<g style="mix-blend-mode:color-dodge" opacity="0.19">
<path d="M610.722 622.441C609.613 623.082 608.487 623.734 607.342 624.397C574.239 642.634 542.672 639.395 515.956 615.091C489.239 590.787 469.68 546.943 462.374 494.844C454.867 441.43 461.482 385.445 480.523 341.278C495.856 305.731 518.298 278.194 547.308 259.537C580.086 238.506 620.292 229.615 666.888 233.079C714.296 236.775 750.295 251.706 770.775 276.37C787.452 296.325 794.294 322.505 791.196 354.269C788.586 380.318 780.651 391.651 751.121 433.887C738.877 451.157 722.219 474.813 700.94 507.061C688.788 525.417 679.68 540.267 671.623 553.368C649.714 588.938 639.266 605.92 610.722 622.441ZM554.144 257.4C522.765 275.56 498.188 304.018 481.93 341.87C443.085 432.246 459.828 561.932 517.026 613.963C543.205 637.754 574.183 640.896 606.585 623.04C637.425 606.089 647.715 589.295 670.187 552.599C678.251 539.469 687.378 524.609 699.529 506.252C720.858 474.049 737.558 450.296 749.609 432.943C778.957 390.983 786.794 379.73 789.439 354.121C792.55 322.884 785.816 297.102 769.504 277.445C749.216 253.155 713.667 238.376 666.694 234.719C623.395 231.384 585.414 239.302 554.144 257.4Z" fill="url(#paint18_linear)"/>
</g>
<g style="mix-blend-mode:color-dodge" opacity="0.12">
<path d="M614.431 635.986C592.264 648.815 568.542 652.676 545.896 646.166C489.286 629.9 456.127 555.543 457.172 447.278C457.991 361.209 479.724 321.547 514.51 285.41C549.297 249.274 633.399 230.327 675.856 233.252C718.592 236.282 757.722 254.42 780.533 281.784C788.754 291.425 794.898 302.663 798.58 314.797C802.263 326.93 803.405 339.698 801.935 352.301C798.683 382.408 781.142 405.12 762.589 429.145L760.591 431.733C720.104 484.262 693.347 534.591 678.976 561.628C674.683 569.738 671.276 576.148 668.858 580.068C653.286 605.4 634.509 624.366 614.431 635.986ZM540.805 267.549C531.596 272.698 523.144 279.1 515.688 286.572C481.176 322.428 459.679 361.784 458.793 447.359C457.732 554.881 490.528 628.648 546.374 644.725C588.827 656.939 635.255 631.887 667.553 579.442C669.958 575.625 673.325 569.19 677.629 561.099C692.016 534.004 718.796 483.588 759.381 430.978L761.369 428.372C779.792 404.543 797.193 382.009 800.429 352.421C801.877 340.027 800.757 327.472 797.14 315.539C793.522 303.605 787.485 292.551 779.406 283.067C756.859 256.034 718.146 238.116 675.816 235.117C641.869 232.457 581.214 244.162 540.805 267.549Z" fill="url(#paint19_linear)"/>
</g>
<g style="mix-blend-mode:color-dodge" opacity="0.55">
<path d="M611.188 640.115C608.79 641.503 606.355 642.912 603.774 644.067C544.285 673.235 509.066 646.408 489.998 618.769C463.096 579.757 449.868 513.045 454.695 440.37C459.521 367.695 481.101 306.274 512.644 276.622L513.195 277.2L512.644 276.622C534.182 256.349 577.335 239.788 625.339 233.416C677.191 226.49 726.555 232.279 760.582 249.297C800.659 269.457 819.029 304.507 813.6 350.689C810.012 381.474 791.19 405.074 762.692 440.771C748.44 458.719 732.227 478.941 714.175 504.761C703.406 520.135 694.211 536.053 685.321 551.407C664.839 586.805 645.474 620.272 611.188 640.115ZM533.171 263.554C526.156 267.508 519.615 272.254 513.676 277.698C482.431 307.153 460.948 367.985 456.191 440.402C451.433 512.818 464.563 579.15 491.279 617.881C517.996 656.613 556.786 665.369 603.061 642.661C641.629 623.734 662.173 588.275 683.88 550.713C692.796 535.32 702.009 519.392 712.811 503.95C730.889 478.09 747.089 457.803 761.38 439.881C789.692 404.365 808.418 380.894 811.948 350.554C817.27 305.113 799.225 270.626 759.776 250.757C696.678 219.019 588.57 231.491 533.171 263.554Z" fill="url(#paint20_linear)"/>
</g>
<g style="mix-blend-mode:color-dodge" opacity="0.75">
<path d="M605.149 656.635C580.783 670.737 552.827 674.187 521.052 657.588C499.574 646.376 486.313 620.323 473.528 592.32C453.097 547.551 445.065 484.476 452.078 423.63C459.684 357.59 482.99 304.845 517.73 275.064C578.77 222.763 610.925 225.636 664.185 230.408C673.602 231.238 683.313 232.115 694.093 232.787L702.438 233.268C736.684 235.271 766.262 236.993 785.814 251.549C818.858 276.071 826.305 319.286 822.613 348.798C816.553 397.164 779.865 436.728 750.356 468.525C738.83 480.942 727.93 492.682 720.287 503.386C715.018 510.727 708.553 522.301 701.102 535.779C678.954 575.56 647.393 632.186 605.149 656.635ZM557.887 247.749C544.003 256.036 530.905 265.58 518.759 276.262C484.375 305.862 461.161 358.093 453.556 423.841C446.637 484.512 454.561 547.189 474.944 591.792C487.611 619.547 500.725 645.346 521.793 656.31C607.449 701.01 665.209 597.166 699.729 535.119C707.227 521.638 713.728 510.043 719.027 502.587C726.759 491.784 737.666 480.016 749.229 467.577C778.559 435.932 815.088 396.556 821.068 348.723C824.709 319.628 817.415 277.099 784.891 252.932C765.722 238.663 736.36 236.937 702.34 234.949L693.871 234.419C683.073 233.758 673.343 232.891 663.915 232.043C623.737 228.406 595.644 225.897 557.815 247.791L557.887 247.749Z" fill="url(#paint21_linear)"/>
</g>
<g style="mix-blend-mode:color-dodge" opacity="0.4">
<path d="M613.548 647.744C608.025 650.91 602.311 653.731 596.44 656.19C542.352 679.129 499.756 667.338 473.233 622.045C447.895 578.807 438.803 506.574 448.862 428.811C458.649 353.266 484.497 290.927 516.308 266.115C558.428 233.251 668.157 220.397 703.737 222.404C750.056 225.009 788.361 241.926 811.572 270.028C820.396 280.647 826.909 292.995 830.696 306.285C834.483 319.574 835.461 333.512 833.567 347.208C827.382 393.802 795.069 430.107 763.872 465.281C751.733 478.95 740.256 491.873 730.554 505.102C713.639 528.227 700.353 547.095 688.645 563.74C656.015 610.096 640.493 632.149 613.548 647.744ZM527.866 260.274C524.177 262.392 520.635 264.758 517.264 267.356C485.778 291.931 460.108 353.779 450.471 428.995C440.428 506.41 449.461 578.289 474.632 621.235C500.694 665.728 542.611 677.306 595.854 654.711C634.131 638.474 647.547 619.411 687.406 562.808C698.542 546.979 712.389 527.277 729.333 504.16C739.069 490.863 750.554 477.911 762.746 464.211C793.806 429.262 825.949 393.08 832.049 346.971C833.916 333.492 832.954 319.776 829.227 306.698C825.499 293.62 819.087 281.469 810.4 271.022C787.471 243.241 749.554 226.536 703.66 223.952C670.929 222.139 575.216 232.87 527.866 260.274Z" fill="url(#paint22_linear)"/>
</g>
<g style="mix-blend-mode:color-dodge" opacity="0.71">
<path d="M609.943 667.561C605.915 669.876 601.718 671.883 597.389 673.566C550.064 692.348 486.503 673.559 456.489 601.384C433.516 546.059 441.476 483.453 445.293 453.359C445.924 448.145 446.473 444.093 446.693 441.152C452.087 369.168 461.142 310.607 522.49 267.003C584.603 222.835 629.865 225.203 704.807 229.136L712.444 229.566C771.991 232.638 802.737 255.482 818.038 274.099C826.128 283.808 832.089 295.114 835.534 307.285C838.98 319.455 839.833 332.218 838.038 344.747C830.195 400.448 799.503 433.051 769.903 464.73C757.953 476.974 746.706 489.886 736.217 503.406C704.084 546.251 682.393 578.203 666.717 601.46C641.4 638.517 629.366 656.32 609.943 667.561ZM544.017 254.957C537.312 258.837 530.48 263.252 523.41 268.265C462.594 311.489 453.65 369.694 448.288 441.272C448.06 444.241 447.524 448.358 446.865 453.565C443.058 483.507 435.146 545.819 457.965 600.748C487.559 672.027 550.213 690.588 596.814 672.105C624.055 661.188 635.342 644.739 665.355 600.526C681.161 577.242 702.819 545.358 734.845 502.454C745.377 488.893 756.662 475.934 768.645 463.64C798.14 432.239 828.645 399.818 836.427 344.515C838.21 332.21 837.39 319.671 834.02 307.71C830.65 295.75 824.805 284.637 816.866 275.093C801.758 256.728 771.36 234.191 712.387 231.151L704.842 230.668C638.685 227.227 595.8 224.987 544.017 254.957Z" fill="url(#paint23_linear)"/>
</g>
<g style="mix-blend-mode:color-dodge" opacity="0.78">
<path d="M611.674 662.238C605.02 666.08 598.053 669.349 590.849 672.012C550.048 687.188 516.361 684.935 490.742 665.355C429.367 618.435 433.52 491.595 438.147 439.186C445.456 356.225 468.137 301.514 509.552 267.046C554.385 229.678 621.927 214.496 722.06 219.222C769.834 221.494 804.054 234.811 823.866 258.988C840.607 279.39 846.48 307.294 841.325 341.92C830.462 415.008 806.075 436.348 777.805 461.123C765.315 472.037 752.417 483.333 739.65 500.033C721.728 523.596 707.017 546.804 694.059 567.251C668.1 608.196 646.723 641.954 611.674 662.238ZM533.654 252.151C525.51 256.855 517.776 262.24 510.535 268.247C469.499 302.448 446.974 356.801 439.706 439.326C429.991 549.527 448.949 631.446 491.656 664.123C516.831 683.353 550.005 685.515 590.255 670.561C637.925 652.841 662.113 614.667 692.737 566.343C705.721 545.857 720.421 522.631 738.406 499.007C751.195 482.222 764.166 470.884 776.679 459.884C804.729 435.357 828.93 414.198 839.732 341.678C844.81 307.509 839.038 280.031 822.59 259.969C803.113 236.204 769.207 222.972 721.918 220.784C638.199 216.838 577.369 226.851 533.654 252.151Z" fill="url(#paint24_linear)"/>
</g>
<g style="mix-blend-mode:color-dodge" opacity="0.6">
<path d="M620.779 669.847C610.773 675.504 600.253 680.196 589.362 683.859C531.108 704.19 463.26 659.998 443.751 608.416C421.391 549.318 422.945 312.178 523.419 252.888C587.699 215.007 650.24 220.71 700.642 225.486C711.415 226.525 721.512 227.398 730.771 227.786L737.874 228.088C771.009 229.424 799.633 230.583 820.617 246.322C853.397 270.85 860.157 311.189 855.602 340.716C850.747 371.361 831.717 393.844 811.528 417.676L806.97 423.054C741.571 500.718 710.018 553.362 687.171 591.802C664.575 629.418 650.577 652.601 620.779 669.847ZM525.881 253.379L524.246 254.325C424.444 313.225 423.005 549.135 445.284 607.965C464.528 658.876 531.479 702.52 588.894 682.457C642.025 663.831 655.764 641.04 685.74 590.957C708.746 552.498 740.269 499.847 805.738 422.094L810.304 416.687C830.304 392.988 849.243 370.728 853.954 340.505C858.524 311.383 851.886 271.676 819.656 247.557C799.089 232.037 770.679 230.997 737.817 229.673L730.715 229.37C721.398 228.967 711.242 228.032 700.5 227.047C650.824 222.482 589.092 216.795 525.881 253.379Z" fill="url(#paint25_linear)"/>
</g>
<g style="mix-blend-mode:color-dodge" opacity="0.47">
<path d="M602.626 683.163C567.723 703.363 531.854 703.294 495.879 682.895C424.248 642.396 426.602 592.055 428.582 547.458C428.952 539.436 429.293 531.868 429.251 524.351C429.183 513.043 428.402 501.298 427.636 489.958C426.422 471.529 425.195 452.575 427.043 435.551C429.551 413.028 437.429 393.436 444.364 376.159C447.82 367.564 451.069 359.451 453.464 351.495C470.947 294.361 495.865 258.044 529.709 240.421C559.533 224.906 592.286 225.494 623.919 226.074C633.938 226.265 643.482 226.391 652.825 226.124C658.217 225.937 665.638 225.279 674.238 224.521C717.405 220.73 789.54 214.406 829.685 244.443C857.785 265.472 872.097 302.604 866.109 339.022C861.53 367.034 842.618 388.333 824.316 408.964C820.871 412.825 817.304 416.853 813.885 420.844C801.998 434.78 791.856 450.567 781.976 465.717C773.801 478.401 766.053 490.354 757.456 501.294C751.46 508.886 744.865 516.195 737.881 523.922C725.457 537.684 712.619 551.903 702.768 568.491C671.885 620.529 642.528 655.826 612.995 676.434C609.552 678.896 606.095 681.139 602.626 683.163ZM526.026 244.08C498.227 260.169 473.399 291.511 454.961 352.034C452.52 359.994 449.245 368.145 445.771 376.751C438.87 393.96 431.173 413.447 428.539 435.752C426.678 452.541 427.821 470.72 429.121 489.801C429.879 501.171 430.652 512.944 430.724 524.299C430.768 531.863 430.427 539.431 430.049 547.482C428.046 591.534 425.771 641.466 496.547 681.49C535.561 703.549 574.43 701.422 612.088 675.238C641.467 654.743 670.596 619.554 701.392 567.784C711.318 551.032 724.218 536.752 736.686 522.941C743.651 515.224 750.186 507.853 756.18 500.384C764.744 489.511 772.474 477.569 780.634 464.942C790.497 449.68 800.707 433.927 812.664 419.902C816.091 415.882 819.657 411.854 823.11 407.964C841.255 387.522 860.016 366.383 864.529 338.845C870.41 302.998 856.34 266.454 828.719 245.754C789.117 215.985 717.296 222.393 674.345 226.18C665.728 226.949 658.223 227.631 652.839 227.789C643.34 228.121 633.507 227.872 623.876 227.723C590.455 227.111 556.423 226.488 526.026 244.08Z" fill="url(#paint26_linear)"/>
</g>
<g style="mix-blend-mode:color-dodge" opacity="0.7">
<path d="M601.665 696.55C569.614 715.1 533.245 717.527 488.62 691.95C443.079 665.836 419.244 613.558 417.844 536.51C416.465 461.391 436.729 385.529 448.916 347.003C466.827 290.277 502.496 253.363 557.983 234.368C612.967 215.469 682.5 215.016 749.471 217.307C791.276 218.765 831.677 237.428 854.886 265.822C871.975 286.87 878.751 311.463 874.326 337.01C865.932 385.95 834.549 420.043 801.261 455.918C788.601 469.647 775.479 483.836 762.961 499.495C744.941 522.047 727.837 547.198 711.296 571.561C676.418 623.099 642.527 672.901 601.665 696.55ZM523.682 251.576C489.288 271.482 464.785 301.958 450.481 347.407C436.176 392.857 370.579 622.398 489.475 690.534C533.42 715.728 569.34 713.319 601.045 694.969C641.635 671.478 675.238 621.891 710.086 570.637C726.543 546.298 743.684 521.126 761.758 498.542C774.32 482.834 787.431 468.626 800.139 454.895C833.206 419.099 864.455 385.277 872.674 336.876C876.968 311.817 870.347 287.619 853.532 266.92C830.657 238.77 790.733 220.389 749.362 218.97C651.664 215.526 576.137 221.218 523.682 251.576Z" fill="url(#paint27_linear)"/>
</g>
<g style="mix-blend-mode:color-dodge" opacity="0.48">
<path d="M604.807 693.637C569.396 714.131 529.397 719.216 485.501 693.727C416.332 653.55 409.903 609.747 412.352 526.132C412.845 509.407 431.682 367.766 440.438 340.949C457.535 288.573 522.79 227.82 572.188 218.362C575.599 217.721 756.565 222.437 758.381 222.477L766.625 222.701C797.341 223.497 826.374 224.273 847.972 240.53C876.599 262.054 892.295 301.125 886.153 335.594C877.047 386.618 830.053 430.789 795.745 463.084C782.901 475.148 771.831 485.581 764.64 494.422C758.413 502.075 750.152 515.828 739.664 533.245C709.733 583.107 663.621 659.598 604.807 693.637ZM535.043 234.962C495.071 258.096 454.819 302.196 441.974 341.514C433.169 368.287 414.461 509.563 413.965 526.241C411.527 609.243 417.869 652.685 486.326 692.425C601.784 759.471 690.631 611.814 738.361 532.496C748.874 515.039 757.18 501.237 763.477 493.495C770.666 484.484 781.844 474.112 794.713 462.008C828.882 429.891 875.642 385.904 884.657 335.393C890.702 301.513 875.24 263.059 847.074 241.874C825.798 225.964 797.093 225.168 766.712 224.324L758.364 224.088C711.219 222.907 575.845 219.495 572.572 220.079C559.335 222.947 546.656 227.975 535.043 234.962Z" fill="url(#paint28_linear)"/>
</g>
<g style="mix-blend-mode:color-dodge" opacity="0.38">
<path d="M621.14 698.737C579.859 722.628 527.269 730.71 478.66 702.128C426.711 671.576 403.391 571.862 405.438 526.96C411.526 392.502 439.348 304.653 490.384 258.288C548.145 205.849 629.073 210.124 714.761 214.627C732.076 215.542 749.966 216.487 767.724 216.951C815.493 218.207 851.205 231.799 870.969 256.271C886.828 275.898 892.272 302.135 886.694 332.156C874.241 399.327 846.807 425.219 815.047 455.166C800.842 468.059 787.499 481.873 775.102 496.518C757.517 517.849 740.321 547.005 723.689 575.204C704.766 607.251 685.223 640.408 664.345 663.718C651.862 677.586 637.282 689.403 621.14 698.737ZM517.933 240.21C508.487 245.682 499.644 252.141 491.554 259.478C440.829 305.542 413.214 393.077 407.116 527.056C405.107 571.645 428.185 670.602 479.568 700.803C546.916 740.385 622.018 708.801 663.298 662.7C684.07 639.5 703.561 606.421 722.44 574.424C739.116 546.175 756.338 516.979 773.928 495.573C786.372 480.893 799.757 467.04 813.997 454.1C845.571 424.334 872.836 398.612 885.198 331.956C890.681 302.401 885.348 276.61 869.792 257.34C850.314 233.237 815.026 219.835 767.709 218.608C749.941 218.126 732.033 217.191 714.718 216.277C641.763 212.43 572.277 208.758 517.933 240.21Z" fill="url(#paint29_linear)"/>
</g>
<g style="mix-blend-mode:color-dodge" opacity="0.72">
<path d="M603.858 715.503C594.545 721.02 584.458 725.101 573.935 727.609C545.031 734.25 513.798 726.794 475.632 704.147C401.705 660.249 405.502 598.912 409.486 533.904L409.83 528.443C410.683 514.614 410.605 501.735 410.514 489.252C410.325 450.396 410.124 410.214 436.728 333.205C482.027 202.094 578.604 208.006 700.832 215.511C725.238 217.002 750.491 218.535 776.761 219.14C826.052 220.219 861.397 233.636 881.814 258.99C903.984 286.506 900.796 318.321 898.423 330.775C891.263 368.017 865.488 395.906 829.652 434.298C814.222 450.915 796.76 469.725 777.862 492.35C763.086 510.019 756.549 523.864 748.985 539.881C736.706 566.385 721.137 599.206 661.138 665.889C640.194 689.042 621.664 705.198 603.858 715.503ZM509.96 237.259C479.636 254.81 455.286 284.542 438.257 333.799C411.751 410.557 411.944 450.599 412.153 489.322C412.216 501.797 412.249 514.725 411.414 528.545L411.082 534.193C407.039 598.678 403.325 659.529 476.424 702.913C514.211 725.367 545.093 732.759 573.56 726.201C600.701 719.949 627.337 701.042 659.914 664.9C719.805 598.45 735.265 565.691 747.696 539.366C755.355 523.222 761.889 509.329 776.769 491.504C795.704 468.858 813.191 450.008 828.632 433.409C864.192 395.128 889.96 367.437 896.979 330.665C899.319 318.448 902.426 287.165 880.585 260.138C860.453 235.152 825.515 221.936 776.703 220.847C750.397 220.263 725.15 218.701 700.727 217.221C625.327 212.535 559.635 208.51 509.96 237.259Z" fill="url(#paint30_linear)"/>
</g>
<g style="mix-blend-mode:color-dodge" opacity="0.54">
<path d="M613.22 706.225C594.903 716.855 574.953 724.361 554.186 728.438C520.051 735.125 485.849 731.472 464.961 718.927C407.986 684.737 393.352 584.29 397.508 529.002C398.396 517.044 430.417 351.818 437.995 330.484C459.563 269.507 492.698 233.915 542.203 218.332C587.581 204.121 642.614 207.137 706.392 210.742C731.931 212.182 758.318 213.665 786.151 214.166C836.379 215.065 872.728 229.089 894.235 255.874C902.388 266.197 908.242 278.15 911.404 290.931C914.566 303.712 914.964 317.026 912.57 329.981C904.689 369.506 872.319 403.103 834.777 442.022C819.168 458.33 802.906 475.016 787.254 493.603C761.21 524.388 748.525 545.308 735.084 567.441C718.795 594.302 701.969 622.08 659.265 669.199C645.917 683.849 630.384 696.339 613.22 706.225ZM512.541 232.784C481.836 250.555 457.28 280.77 439.482 331.005C432.332 351.146 399.941 517.75 399.092 529.104C393.89 597.969 415.511 687.414 465.808 717.539C505.685 741.475 598.135 734.208 658.106 668.027C700.714 621.036 717.507 593.326 733.762 566.533C747.236 544.333 759.937 523.355 786.069 492.471C801.788 473.917 817.964 457.038 833.654 440.829C871.009 402.091 903.266 368.632 911.042 329.556C913.384 316.831 912.988 303.755 909.882 291.203C906.776 278.65 901.03 266.91 893.028 256.766C871.866 230.412 835.972 216.586 786.167 215.708C758.335 215.207 731.9 213.728 706.351 212.269C627.336 207.784 561.961 204.182 512.523 232.794L512.541 232.784Z" fill="url(#paint31_linear)"/>
</g>
<g style="mix-blend-mode:color-dodge" opacity="0.39">
<path d="M614.506 717.752C567.794 744.787 511.533 749.271 468.415 727.405C410.848 698.116 383.935 628.004 392.654 529.995C406.439 374.959 435.184 287.158 485.967 245.402C534.057 205.785 599.875 207.967 683.193 210.714L691.591 210.994C707.125 211.508 723.463 210.054 740.763 208.503C758.934 206.578 777.191 205.594 795.461 205.555C851.672 206.41 893.195 228.788 909.418 266.923C927.942 310.442 911.279 366.349 864.812 416.398C853.278 428.844 839.791 439.874 826.752 450.548C812.126 462.505 798.307 473.8 787.228 486.783C775.636 500.306 766.409 516.969 756.63 534.606C752.024 542.97 747.255 551.598 742.159 559.954C733.826 573.534 726.711 587.827 720.899 602.664C710.752 627.401 704.053 643.741 642.677 697.472C633.961 705.127 624.527 711.919 614.506 717.752ZM504.589 234.285C446.63 267.829 410.468 347.338 394.212 530.136C385.538 627.464 412.136 697.031 469.112 726.007C520.76 752.296 591.746 740.066 641.785 696.388C702.866 642.9 709.498 626.696 719.573 602.171C725.397 587.265 732.529 572.905 740.887 559.26C745.939 550.954 750.708 542.326 755.358 533.912C765.075 516.165 774.311 499.52 786.082 485.846C797.249 472.764 811.131 461.408 825.811 449.42C838.814 438.767 852.257 427.786 863.689 415.374C909.692 365.74 926.243 310.48 907.979 267.537C892.008 230.008 851.005 207.985 795.441 207.118C777.221 207.161 759.014 208.148 740.894 210.077C723.565 211.619 707.18 213.076 691.48 212.61L683.082 212.33C609.446 209.823 550.193 207.891 504.589 234.285Z" fill="url(#paint32_linear)"/>
</g>
<g style="mix-blend-mode:color-dodge" opacity="0.44">
<path d="M608.834 727.169C572.786 748.032 534.82 756.814 499.793 750.803C448.132 741.907 410.444 701.623 393.667 637.331C376.471 571.511 388.647 509.497 399.376 454.769C401.41 444.378 403.337 434.558 405.007 425.008C445.181 194.567 543.114 199.597 607.877 202.85C614.673 203.208 621.099 203.514 627.012 203.56C644.68 203.615 663.199 203.298 681.02 203.072C774.248 201.658 870.723 200.16 907.699 245.391C923.398 264.529 927.542 290.232 920.353 323.974C905.228 395.212 866.917 424.974 833.135 451.242C818.789 462.381 805.271 472.896 794.031 485.852C781.692 500.097 761.591 535.565 742.173 569.863C727.056 596.53 712.792 621.734 701.765 637.96C675.257 676.942 642.901 707.453 608.834 727.169ZM405.835 425.184L406.509 425.303C404.776 434.913 402.904 444.701 400.915 455.212C390.222 509.749 378.081 571.573 395.182 637.06C411.808 700.712 449.05 740.599 500.055 749.366C567.568 760.969 646.235 716.943 700.451 637.193C711.505 621.097 725.74 595.885 740.799 569.203C760.28 534.845 780.469 499.277 792.86 484.953C804.178 471.881 817.787 461.313 832.155 450.088C865.722 423.993 903.789 394.396 918.806 323.73C925.897 290.53 921.832 265.217 906.458 246.473C869.877 201.887 773.878 203.327 681.055 204.773C663.172 205.06 644.678 205.337 627 205.264C621.051 205.239 614.668 204.884 607.8 204.567C543.554 201.16 446.545 196.178 406.509 425.303L405.835 425.184Z" fill="url(#paint33_linear)"/>
</g>
<g style="mix-blend-mode:color-dodge" opacity="0.54">
<path d="M601.528 727.443C555.415 754.13 503.599 757.036 461.547 734.117C401.942 701.668 372.945 624.276 381.982 521.817C395.02 374.149 424.344 287.565 477.093 241.106C525.588 198.492 591.162 190.703 688.148 191.819C704.113 191.987 720.754 193.752 738.206 195.702C760.63 198.17 783.808 200.685 808.643 200.229C846.221 199.479 882.124 200.619 908.287 222.574C934.45 244.53 942.422 284.069 929.57 328.338C927.866 334.941 926.625 341.655 925.856 348.43C924.199 360.737 922.473 373.471 915.295 383.638C906.301 396.118 893.188 405.865 880.475 415.211C871.665 421.4 863.284 428.179 855.387 435.501C745.041 543.009 726.426 583.412 712.917 612.955C700.497 639.928 691.573 659.471 623.03 712.913C616.203 718.244 609.018 723.098 601.528 727.443ZM503.352 224.406C436.854 262.892 399.118 346.269 383.558 521.947C374.587 623.762 403.277 700.58 462.283 732.745C510.5 759.006 571.752 750.907 622.117 711.623C690.256 658.488 699.175 639.021 711.51 612.193C725.103 582.504 743.707 541.913 854.344 434.238C862.282 426.877 870.709 420.063 879.567 413.845C892.19 404.552 905.235 394.941 914.051 382.613C921.045 372.843 922.735 360.299 924.385 348.19C925.142 341.333 926.394 334.538 928.132 327.861C940.783 284.169 933.02 245.285 907.332 223.733C881.644 202.182 846.021 201.025 808.735 201.776C783.752 202.269 760.505 199.72 738.027 197.285C720.508 195.301 704.028 193.564 688.128 193.382C610.944 192.494 550.064 197.371 503.352 224.406Z" fill="url(#paint34_linear)"/>
</g>
<g style="mix-blend-mode:color-dodge" opacity="0.39">
<path d="M583.678 740.484C564.692 751.473 544.949 759.044 524.783 761.55C487.985 766.092 452.73 753.376 419.985 723.736C379.865 687.431 361.185 636.534 362.778 567.964C364.176 509.109 380.127 447.845 394.196 393.828L396.767 383.95C446.17 193.512 515.371 192.232 700.329 188.866C733.476 188.206 771.082 187.633 812.746 185.608C864.322 183.254 907.892 200.858 932.184 233.74C952.902 261.805 957.411 298.571 944.661 334.562C924.008 392.583 868.514 440.291 823.9 478.622C804.83 495.018 786.805 510.493 774.181 524.37C769.325 529.775 761.27 541.783 751.091 556.961C717.921 606.539 656.245 698.486 583.678 740.484ZM493.661 220.363C450.147 245.547 421.911 293.094 398.254 384.302L395.69 394.151C368.553 498.454 331.318 641.333 421.003 722.517C453.4 751.848 488.234 764.421 524.556 759.935C544.516 757.452 564.067 749.967 582.818 739.116C655.039 697.317 716.629 605.517 749.728 556.15C760.346 540.306 767.948 528.899 772.926 523.326C785.578 509.288 803.629 493.773 822.753 477.346C867.207 439.156 922.55 391.608 943.038 333.973C955.658 298.471 951.2 262.256 930.77 234.607C906.898 202.16 863.935 184.812 812.82 187.166C771.14 189.079 733.513 189.785 700.334 190.39C604.939 192.161 540.477 193.341 493.692 220.418L493.661 220.363Z" fill="url(#paint35_linear)"/>
</g>
<g style="mix-blend-mode:color-dodge" opacity="0.1">
<path d="M584.469 738.495C520.879 775.298 438.527 758.875 403.221 720.245C346.012 657.678 354.224 595.679 361.478 540.976C363.238 527.713 364.9 515.162 365.623 502.959C365.641 502.779 365.633 502.177 365.622 501.19C365.2 456.745 370.241 412.411 380.631 369.186C400.979 287.628 438.951 233.137 493.567 207.25C525.609 192.052 721.921 180.053 795.814 175.523C805.177 174.954 812.432 174.513 816.838 174.17C874.203 170.259 921.221 187.71 945.89 222.046C968.298 253.255 970.72 294.6 952.615 338.538C932.951 386.288 920.708 397.544 875.113 439.304C868.13 445.771 860.319 452.861 851.592 460.967C796.58 512.203 759.022 559.253 725.923 600.837C683.555 654.089 646.94 700.084 587.965 736.447L584.469 738.495ZM482.416 214.892C373.785 277.762 366.724 448.761 367.245 501.148C367.259 502.182 367.269 502.831 367.252 503.01C366.523 515.289 364.862 527.84 363.104 541.15C355.896 595.512 347.727 657.122 404.434 719.155C439.952 758.027 523.73 774.108 587.104 735.078C645.874 698.907 682.401 653.011 724.681 599.858C757.806 558.235 795.356 511.044 850.5 459.829C859.246 451.712 867.025 444.567 874.04 438.156C919.419 396.568 931.65 385.417 951.143 337.959C968.998 294.554 966.713 253.784 944.572 222.954C920.222 189.088 873.704 171.833 816.911 175.728C812.579 176.029 805.37 176.467 795.888 177.081C722.07 181.615 525.974 193.611 494.267 208.591C490.203 210.579 486.25 212.673 482.416 214.892Z" fill="url(#paint36_linear)"/>
</g>
<g style="mix-blend-mode:color-dodge" opacity="0.76">
<path d="M578.482 742.273C549.195 759.223 519.06 768.226 487.782 765.065C384.902 754.68 361.809 694.143 358.692 606.503C354.984 503.033 358.334 429.228 369.157 374.205C380.362 317.361 400.015 277.837 430.988 249.849C492.222 194.528 599.167 185.514 761.065 171.852C780.301 170.256 800.353 168.535 821.222 166.69C891.511 160.488 949.232 186.218 971.822 233.808C995.31 283.255 976.822 346.253 922.446 402.503C908.431 416.991 892.44 430.319 876.931 443.223C866.678 451.751 856.086 460.573 845.968 469.799C812.175 500.631 779.207 539.666 744.289 580.993C690.943 644.163 636.386 708.762 578.482 742.273ZM460.885 230.17C450.582 236.079 440.927 243.056 432.08 250.987C372.454 304.893 352.999 401.208 360.312 606.414C363.407 693.218 386.306 753.165 487.997 763.461C518.869 766.591 548.736 757.67 577.77 740.867C635.437 707.492 689.899 643.022 743.156 579.952C778.1 538.585 811.052 499.438 844.967 468.608C855.103 459.372 865.721 450.511 875.992 441.972C892.155 428.52 907.412 415.811 921.373 401.354C975.272 345.623 993.616 283.216 970.451 234.456C948.215 187.437 891.033 162.098 821.407 168.231C800.512 170.06 780.457 171.775 761.24 173.376C622.651 185.113 524.42 193.399 460.885 230.17Z" fill="url(#paint37_linear)"/>
</g>
<g style="mix-blend-mode:color-dodge" opacity="0.11">
<path d="M566.993 760.392C562.887 762.768 558.904 764.855 555.072 766.612C520.588 782.448 461.19 782.492 414.175 752.093C381.416 730.924 342.498 687.159 343.018 598.893C343.034 595.683 342.706 590.151 342.243 582.49C340.191 548.012 335.37 467.298 352.758 388.594C374.425 290.61 422.797 226.754 496.432 198.686C520.074 189.682 531.247 188.598 638.211 178.144C656.035 176.411 676.523 174.422 700.127 172.084C719.351 170.172 738.659 166.514 759.1 162.636C780.115 158.62 801.848 154.504 824.995 152.043C873.976 146.826 920.407 159.136 952.375 185.829C977.59 206.854 992.275 236.009 994.859 270.107C996.801 295.897 983.6 322.061 970.981 347.258C967.903 353.355 965.23 359.776 962.363 366.575C955.055 384.043 947.462 402.112 932.692 416.383C918.687 429.92 902.542 441.93 886.883 453.563C873.311 463.648 859.335 474.04 846.524 485.528C751.062 571.303 730.133 600.412 713.311 623.823C706.281 633.949 698.626 643.626 690.393 652.799C665.043 680.708 609.544 735.765 566.993 760.392ZM466.893 214.4C410.57 246.997 372.718 305.564 354.255 388.964C336.892 467.46 341.694 548.015 343.752 582.417C344.207 590.106 344.556 595.675 344.542 598.932C344.093 686.479 382.554 729.83 415.036 750.77C461.6 780.849 520.404 780.784 554.442 765.183C597.588 745.376 661.49 682.279 689.265 651.682C697.459 642.551 705.072 632.913 712.059 622.826C728.925 599.366 749.923 570.168 845.466 484.322C858.321 472.784 872.341 462.343 885.931 452.247C901.536 440.646 917.691 428.653 931.58 415.208C946.119 401.168 953.626 383.246 960.896 365.921C963.752 359.103 966.462 352.662 969.555 346.507C982.735 320.307 995.192 295.543 993.268 270.204C990.799 236.476 976.225 207.765 951.355 187.002C919.695 160.591 873.693 148.396 825.141 153.559C802.041 156.017 780.334 160.094 759.376 164.125C738.898 168.024 719.554 171.703 700.255 173.61C676.632 175.959 656.145 177.948 638.349 179.688C531.563 190.113 520.418 191.205 496.968 200.121C486.578 204.067 476.521 208.842 466.893 214.4Z" fill="url(#paint38_linear)"/>
</g>
<g style="mix-blend-mode:color-dodge" opacity="0.49">
<path d="M560.791 769.555C528.233 788.398 494.664 792.867 448.524 781.189C399.906 768.908 357.964 752.279 337.186 672.629C332.385 654.241 334.618 634.522 336.702 615.47C337.59 607.464 338.508 599.174 338.847 591.268C340.541 552.779 341.11 517.511 341.596 486.388C343.285 378.534 344.417 307.273 389.793 258.488C434.399 210.511 522.113 182.998 702.636 160.327C721.727 157.934 740.696 153.478 760.786 148.737C782.341 143.681 804.637 138.439 828.45 135.495C912.138 125.176 937.794 155.547 962.637 184.884C965.001 187.686 967.355 190.47 969.826 193.162C995.543 222.503 1007.37 254.138 1004.68 287.332C998.051 373.1 896.852 457.999 815.524 526.211C783.82 552.803 753.889 577.933 732.87 600.112C712.332 621.697 693.883 642.072 677.521 659.931C630.08 711.901 596.038 749.156 560.791 769.555ZM430.024 229.118C415.571 237.256 402.412 247.512 390.983 259.545C346.123 307.838 344.904 378.906 343.214 486.422C342.728 517.544 342.17 552.83 340.476 591.319C340.194 599.241 339.195 607.602 338.3 615.637C336.189 634.558 334.013 654.123 338.75 672.233C359.327 751.029 400.883 767.494 449.041 779.605C544.208 803.642 585.668 758.237 676.487 658.808C692.828 640.913 711.357 620.636 731.854 598.978C752.954 576.729 782.92 551.578 814.661 524.965C895.756 456.937 996.677 372.27 1003.25 287.147C1005.77 254.48 994.157 223.208 968.722 194.189C966.306 191.465 963.941 188.664 961.522 185.893C936.932 156.869 911.522 126.841 828.729 137.031C804.999 139.951 782.75 145.19 761.241 150.243C741.124 154.976 722.118 159.453 702.915 161.863C565.146 179.187 481.531 199.308 430.024 229.118Z" fill="url(#paint39_linear)"/>
</g>
<g style="mix-blend-mode:color-dodge" opacity="0.66">
<path d="M556.579 777.132C522.894 796.627 483.726 803.656 429.591 785.961C349.011 759.617 344.758 735.408 335.607 682.295C334.713 677.042 333.745 671.492 332.664 665.62C324.81 623.298 325.249 611.527 326.532 576.573C327.376 553.391 328.538 521.634 328.022 464.882C327.317 389.255 342.075 327.057 371.881 280.008C400.226 235.26 442.27 203.993 496.854 187.095C586.96 159.192 618.733 160.395 649.47 161.566C668.501 162.774 687.609 161.94 706.468 159.08C725.641 156.154 744.429 150.542 764.316 144.609C786.141 138.088 808.715 131.352 832.992 127.994C901.972 118.427 946.064 141.523 970.922 162.559C1002.63 189.428 1023.02 230.31 1024.15 269.277C1026.46 349.211 910.626 447.093 854.961 494.123C848.788 499.345 843.436 503.849 839.283 507.489C833.03 512.62 827.338 518.401 822.302 524.736C813.695 535.027 795.968 556.318 729.544 625.845C717.699 638.253 704.206 648.559 691.155 658.537C680.443 666.377 670.199 674.839 660.476 683.881C651.146 692.918 642.331 701.923 633.754 710.669C608.236 736.688 584.249 761.117 556.579 777.132ZM445.403 211.03C367.278 256.244 328.395 341.327 329.554 464.893C330.091 521.681 328.921 553.466 328.059 576.659C326.786 611.462 326.344 623.186 334.138 665.276C335.128 671.201 336.168 676.709 337.091 681.97C346.409 736.004 350.318 758.351 430.007 784.412C527.708 816.341 576.301 766.833 632.584 709.479C641.179 700.723 650.067 691.675 659.324 682.681C669.141 673.601 679.476 665.102 690.278 657.225C703.257 647.289 716.745 637.059 728.481 624.714C794.861 555.238 812.624 533.925 821.169 523.694C826.25 517.311 831.985 511.48 838.282 506.298C842.461 502.619 847.795 498.125 853.986 492.893C905.131 449.667 1024.91 348.487 1022.58 269.241C1021.71 239.048 1007.41 195.462 969.909 163.703C945.307 142.858 901.614 119.992 833.21 129.467C809.056 132.827 786.526 139.514 764.776 146.04C744.835 152.005 725.982 157.63 706.698 160.571C687.74 163.437 668.536 164.295 649.403 163.132C618.799 161.981 587.138 160.762 497.31 188.601C479.223 194.099 461.81 201.623 445.403 211.03Z" fill="url(#paint40_linear)"/>
</g>
<g style="mix-blend-mode:color-dodge" opacity="0.5">
<path d="M558.851 770.476C498.732 805.27 448.048 814.722 407.72 798.54C360.146 779.449 332.446 748.516 320.523 701.106C309.932 658.913 313.166 608.671 316.591 555.481C318.654 522.767 320.855 489.028 319.939 455.347C317.724 374.363 326.453 322.517 349.13 282.018C375.82 234.397 422.77 202.521 496.867 181.774C578.615 158.878 613.801 157.426 647.908 156.162C668.478 155.758 688.991 153.807 709.273 150.324C728.231 146.941 746.724 141.742 766.326 136.241C788.987 129.866 812.424 123.284 837.409 119.347C908.38 108.483 969.025 132.181 1003.78 184.368C1039.15 237.363 1039.95 307.988 1005.94 364.213C967.419 427.723 940.642 446.299 903.501 471.989C880.801 487.181 859.031 503.723 838.308 521.528C825.752 532.407 808.019 550.744 785.544 573.886C738.03 623.206 672.87 690.594 604.866 740.256C590.07 751.135 574.71 761.222 558.851 770.476ZM420.448 214.388C335.493 263.556 318.444 343.227 321.518 455.355C322.458 489.119 320.281 522.941 318.178 555.629C311.274 663.009 305.317 755.755 408.311 797.083C457.993 817.015 523.799 797.478 603.863 739.018C671.833 689.424 736.938 622.068 784.489 572.896C806.94 549.671 824.681 531.305 837.362 520.475C858.103 502.596 879.897 485.983 902.627 470.725C939.647 445.202 966.374 426.752 1004.65 363.501C1038.36 307.793 1037.49 237.812 1002.51 185.32C968.107 133.658 908.022 110.218 837.694 120.977C812.74 124.799 789.349 131.378 766.756 137.786C747.135 143.298 728.606 148.518 709.501 151.938C689.146 155.45 668.558 157.412 647.912 157.809C614.083 159.009 578.858 160.435 497.268 183.312C466.97 191.779 441.614 202.138 420.448 214.388Z" fill="url(#paint41_linear)"/>
</g>
<g style="mix-blend-mode:color-dodge" opacity="0.62">
<path d="M559.035 779.875C493.356 817.887 428.834 823.71 376.886 796.142C328.662 770.541 297.869 718.632 294.477 657.266C293.379 637.316 298.238 617.532 302.885 598.428C305.454 587.874 307.988 577.848 309.312 568.159C318.652 503.327 319.041 450.756 319.347 408.512C320.418 256.769 320.677 220.711 711.917 141.162C731.247 137.248 749.851 130.603 769.596 123.54C792.214 115.493 815.585 107.156 840.761 102.962C890.414 94.6645 970.712 120.226 1011.04 171.49C1062.41 236.612 1063.92 293.953 1016.21 369.351C971.202 440.52 938.155 460.446 899.883 483.542C879.409 495.9 858.227 508.668 832.826 530.473C812.916 547.597 793.929 569.35 771.943 594.561C725.071 648.359 666.702 715.211 563.556 777.21L559.035 779.875ZM391.485 235.181C321.937 275.432 321.603 323.85 320.979 408.611C320.676 450.901 320.31 503.556 310.936 568.456C309.517 578.272 307.076 588.292 304.471 598.868C299.819 617.878 295.008 637.537 296.11 657.242C299.451 718.056 329.943 769.485 377.744 794.773C430.38 822.694 496.127 815.968 562.921 775.856C665.849 713.983 724.11 647.194 770.915 593.532C792.945 568.272 811.976 546.468 831.976 529.292C857.465 507.388 878.702 494.588 899.303 482.156C937.411 459.155 970.313 439.313 1015.12 368.476C1062.39 293.744 1060.92 236.938 1010.04 172.436C969.979 121.645 890.329 96.2413 841.155 104.529C815.95 108.714 792.612 116.984 770.133 125.145C750.396 132.179 731.726 138.838 712.295 142.786C541.588 177.404 445.591 203.867 391.485 235.181Z" fill="url(#paint42_linear)"/>
</g>
<g style="mix-blend-mode:color-dodge" opacity="0.8">
<path d="M546.28 801.733C521.044 816.338 491.84 828.512 461.339 831.326C439.071 833.462 416.619 830.393 395.75 822.36C374.881 814.327 356.165 801.55 341.074 785.034C295.888 736.023 280.268 656.032 297.002 559.959C301.202 535.707 300.813 505.673 300.368 473.902C298.865 368.793 297.153 238.128 453.26 180.343C517.876 156.428 519.311 156.227 592.281 147.868C602.185 146.767 613.542 145.455 626.565 143.883C728.025 131.909 750.296 124.353 773.877 116.38C789.61 111.057 805.885 105.541 845.872 98.3768C908.894 87.0456 998.657 123.908 1027.85 161.978C1047.9 188.125 1059.3 223.014 1059.92 260.232C1060.49 300.761 1048.75 340.524 1026.28 374.262C1009.35 400.013 983.109 420.269 952.704 443.734L947.753 447.545C938.419 454.765 930.205 463.932 922.237 472.81C913.322 482.819 904.007 493.06 893.072 500.867C804.235 563.653 773.981 599.492 741.982 637.433C729.56 652.163 716.698 667.39 700.143 684.366C685.614 699.223 669.194 710.545 653.171 721.588C643.232 728.432 633.835 734.913 625.244 741.994C623.606 743.355 621.275 745.407 618.338 748.004C604.955 759.846 578.965 782.816 546.28 801.733ZM409.854 202.264C299.027 266.406 300.667 380.334 301.944 473.863C302.376 505.738 302.797 535.826 298.54 560.233C281.898 655.792 297.412 735.262 342.232 783.976C357.162 800.308 375.676 812.944 396.317 820.889C416.959 828.834 439.165 831.872 461.19 829.764C530.724 823.344 593.618 767.669 617.345 746.784C620.282 744.187 622.613 742.135 624.306 740.743C632.951 733.63 642.366 727.139 652.331 720.256C668.238 709.304 684.658 697.983 699.051 683.227C715.622 666.363 728.417 651.103 740.821 636.383C772.939 598.398 803.206 562.454 892.16 499.577C902.991 491.926 912.173 481.666 921.076 471.761C929.059 462.825 937.28 453.63 946.796 446.304L951.737 442.475C982.025 419.103 1008.19 398.917 1024.97 373.42C1074.38 298.322 1063.15 210.696 1026.57 162.988C997.562 125.245 908.682 88.6959 846.172 99.9489C806.268 107.089 790.065 112.563 774.45 117.794C750.786 125.792 728.45 133.36 626.813 145.364C613.815 146.897 602.505 148.206 592.529 149.349C519.71 157.718 518.319 157.869 453.869 181.737C438.64 187.308 423.915 194.175 409.854 202.264Z" fill="url(#paint43_linear)"/>
</g>
<g style="mix-blend-mode:color-dodge" opacity="0.5">
<path d="M572.534 795.75C493.611 841.427 410.952 848.654 352.51 812.503C320.306 792.591 297.835 761.274 285.764 719.453C272.588 673.738 272.577 617.275 285.856 551.837C303.206 466.633 297.568 425.551 293.472 395.601C288.81 362.27 285.792 340.207 316.765 283.997C342.55 237.118 412.541 179.76 449.618 167.418C484.789 155.719 550.599 149.733 594.123 145.807C608.187 144.529 620.328 143.442 628.77 142.412C678.991 136.235 728.076 120.095 771.433 105.913C799.948 96.5379 826.832 87.6952 849.378 83.351C889.706 75.6014 929.738 79.2001 965.13 93.7524C998.376 107.205 1026.75 130.452 1046.5 160.42C1087.95 223.718 1083.22 304.842 1033.81 377.417C978.154 459.238 950.861 470.985 921.933 483.387C909.838 488.178 898.285 494.246 887.471 501.489C818.976 548.743 802.195 571.888 784.405 596.392C776.521 607.649 767.956 618.412 758.757 628.62C757.928 629.536 631.107 754.529 616.553 765.934C602.587 776.883 587.878 786.845 572.534 795.75ZM427.188 179.745C389.416 201.605 339.103 246.653 318.118 284.79C287.481 340.49 290.467 362.329 294.983 395.406C299.094 425.467 304.71 466.636 287.361 552.178C261.999 677.224 285.424 769.209 353.307 811.194C422.183 853.768 525.07 835.44 615.528 764.66C630.174 753.202 756.637 628.513 757.538 627.555C766.696 617.382 775.229 606.663 783.09 595.455C800.94 570.844 817.809 547.6 886.519 500.173C897.424 492.877 909.067 486.756 921.254 481.913C949.94 469.554 977.023 457.904 1032.5 376.434C1081.52 304.418 1086.23 223.935 1045.15 161.18C1004.32 98.7102 929.35 69.4837 849.651 84.7929C827.17 89.1238 800.323 97.9455 771.884 107.325C728.503 121.593 679.345 137.775 628.984 143.961C620.495 144.994 608.443 146.151 594.29 147.359C550.787 151.321 485.096 157.262 450.183 168.861C442.18 171.722 434.478 175.368 427.188 179.745Z" fill="url(#paint44_linear)"/>
</g>
<g style="mix-blend-mode:color-dodge" opacity="0.75">
<path d="M560.044 818.934C525.778 838.765 492.308 850.135 460.324 852.813C416.614 856.459 374.103 844.014 333.996 815.849C269.305 770.32 245.922 743.726 255.807 642.913C257.411 622.608 262.171 602.674 269.914 583.832C278.334 561.817 287.047 539.051 286.231 460.118C285.806 446.845 284.689 433.604 282.885 420.449C275.735 360.045 266.833 284.822 369.602 207.111C441.226 153.051 511.345 145.25 585.621 137.056C628.002 132.409 671.829 127.58 719.541 114.272C738.601 108.963 757.589 101.344 775.962 93.96C800.438 84.1344 825.74 73.9763 852.709 68.4787C878.136 63.2911 918.885 69.9423 961.539 86.3775C1004.73 102.987 1039.98 125.839 1055.77 147.568C1074.23 172.767 1092.72 270.181 1082.44 308.833C1050.52 428.875 899.457 514.556 842.57 546.801C830.97 553.369 822.617 558.13 819.672 560.587C805.782 572.262 786.864 595.188 762.934 624.216C715.977 681.19 651.709 759.167 577.692 807.896C571.769 811.785 565.876 815.559 560.044 818.934ZM402.54 187.078C391.456 193.507 380.775 200.612 370.559 208.352C268.518 285.519 277.371 360.237 284.492 420.295C286.284 433.485 287.382 446.763 287.779 460.071C288.593 539.296 279.841 562.206 271.354 584.356C263.666 603.059 258.936 622.844 257.335 642.999C247.309 743.359 269.389 768.404 334.802 814.388C409.675 866.997 488.814 864.426 576.792 806.501C650.565 757.938 714.727 680.071 761.687 623.144C785.679 594.056 804.612 571.072 818.619 559.305C821.652 556.749 829.652 552.216 841.76 545.354C898.503 513.193 1049.18 427.733 1080.88 308.354C1091.06 269.999 1072.77 173.42 1054.45 148.429C1021.88 103.657 907.013 58.9196 852.974 69.9494C826.136 75.4203 800.906 85.5364 776.495 95.3486C758.094 102.725 739.105 110.344 719.908 115.708C672.077 129.062 628.192 133.875 585.738 138.564C522.835 145.559 462.841 152.179 402.54 187.078Z" fill="url(#paint45_linear)"/>
</g>
<g style="mix-blend-mode:color-dodge" opacity="0.63">
<path d="M560.722 826.298C542.128 836.843 522.628 845.694 502.457 852.745C435.195 877.029 361.405 866.006 309.807 823.906C258.21 781.806 235.642 716.165 246.647 638.998C247.683 631.755 249.332 621.369 251.341 609.295C261.198 547.462 279.519 432.358 274.108 365.468C273.759 361.16 273.238 356.806 272.693 352.2C267.968 312.116 262.062 262.242 361.861 193.378C449.967 132.689 505.307 132.035 569.463 131.419C611.886 130.967 659.943 130.455 723.768 111.095C742.597 105.386 761.249 97.6462 779.296 90.1594C804.413 79.7208 830.384 68.9575 858.113 62.9712C890.546 55.9838 930.992 60.2161 968.977 74.6014C1009.19 89.7361 1043.03 114.518 1064.32 144.363C1111.77 210.608 1108.93 245.497 1091.14 309.328C1078.33 355.268 1024.32 432.856 964.465 475.379C951.833 484.086 938.773 492.154 925.336 499.552C898.412 515.013 864.873 534.254 817.782 573.583C799.688 588.686 792.875 596.12 776.436 614.096C758.719 633.345 729.077 665.703 661.547 733.517C653.799 741.347 646.847 749.298 639.46 757.671C619.132 780.88 598.284 804.535 560.722 826.298ZM394.211 174.68C384.164 180.495 373.678 187.145 362.665 194.732C263.663 263.085 269.488 312.4 274.17 352.073C274.684 356.624 275.27 361.134 275.588 365.387C281.052 432.538 262.668 547.702 252.797 609.593C250.896 621.603 249.247 631.989 248.219 639.204C237.367 715.797 259.585 780.913 310.796 822.679C362.007 864.445 435.18 875.364 501.96 851.336C579.694 823.319 609.456 789.486 638.25 756.747C645.543 748.38 652.614 740.384 660.398 732.533C728.014 664.572 757.566 632.267 775.222 612.956C791.716 594.948 798.536 587.485 816.711 572.312C863.89 532.884 897.494 513.629 924.49 498.126C938.843 489.82 951.234 482.648 963.492 474.027C1023.14 431.77 1076.83 354.512 1089.59 308.914C1107.25 245.571 1110.06 210.966 1063 145.271C1015.36 78.4541 919.61 51.2623 858.33 64.5672C830.756 70.4875 804.923 81.1955 779.788 91.6446C761.723 99.1419 743.034 106.903 724.068 112.667C660.04 132.096 611.843 132.617 569.326 133.074C513.507 133.569 464.323 134.103 394.211 174.68Z" fill="url(#paint46_linear)"/>
</g>
<g style="mix-blend-mode:color-dodge" opacity="0.32">
<path d="M573.469 829.249C539.367 848.986 440.52 883.499 384.1 873.528C308.015 860.076 260.151 816.761 237.697 740.846C222.54 689.295 221.035 644.244 254.024 527.393C262.753 496.494 262.602 459.85 262.445 421.05C262.108 315.315 261.515 195.593 445.384 151.272C576.722 119.63 635.319 115.588 674.055 112.857C695.84 111.354 710.241 110.366 726.951 104.89C746.124 98.6424 764.921 90.0184 783.098 81.705C808.265 70.2188 834.284 58.3609 862.126 52.0667C906.836 41.9992 997.041 60.4939 1022.03 76.582C1093.75 122.625 1100.39 166.112 1107.39 212.174C1107.87 215.317 1108.35 218.459 1108.85 221.609C1119.17 286.244 1101.22 345.143 1054.01 401.663C1011.54 452.473 950.797 495.097 891.469 533.579C868.316 548.603 852.794 557.951 841.481 564.765C810.327 583.522 810.327 583.522 767.245 631.829C758.075 641.985 747.034 654.485 733.344 669.706C721.023 683.56 709.494 698.101 698.812 713.259C676.004 744.57 654.474 774.148 578.814 825.913C577.278 826.947 575.504 828.072 573.469 829.249ZM360.341 185.313C263.303 241.473 263.67 335.82 264.029 420.982C264.184 459.904 264.333 496.671 255.528 527.734C222.591 644.338 224.155 689.112 239.144 740.373C261.387 815.584 308.867 858.612 384.336 871.961C443.693 882.487 550.585 843.269 577.954 824.544C653.387 772.935 674.839 743.474 697.541 712.272C708.268 697.081 719.828 682.499 732.169 668.592C745.888 653.379 756.953 640.962 766.081 630.733C809.321 582.237 809.321 582.237 840.653 563.328C851.966 556.514 867.452 547.188 890.551 532.195C1012.63 453.01 1129.91 363.821 1107.24 221.792C1106.73 218.642 1106.25 215.5 1105.78 212.357C1098.83 166.649 1092.21 123.519 1021.05 77.8741C996.394 61.9354 906.855 43.5885 862.501 53.6436C834.839 59.9552 808.882 71.7529 783.788 83.197C765.564 91.5132 746.71 100.122 727.474 106.429C710.562 111.974 696.095 112.976 674.189 114.477C635.468 117.151 576.965 121.187 445.796 152.828C411.112 161.166 383.015 172.191 360.341 185.313Z" fill="url(#paint47_linear)"/>
</g>
<g style="mix-blend-mode:color-dodge" opacity="0.25">
<path d="M541.743 855.002C501.772 878.135 463.161 891.389 426.421 894.516C370.423 899.285 318.962 880.091 273.538 837.522C214.752 782.392 209.309 749.052 210.897 686.112C211.806 650.089 247.631 521.801 247.952 520.549C270.487 447.207 263.828 398.592 258.478 359.525C253.413 323.518 249.612 295.047 268.023 260.558C268.259 259.832 268.447 259.091 268.586 258.34C281.361 201.364 342.802 158.265 441.612 136.938C521.93 119.549 559.142 120.731 589.046 121.633C604.746 122.1 618.328 122.507 635.248 120.255C716.451 109.409 743.644 92.7742 772.374 75.1521C794.298 61.7363 816.928 47.8635 865.241 36.4384C914.164 24.8538 998.809 42.9054 1033.8 65.8102C1052.04 77.7539 1064.14 97.0346 1075.84 115.671C1079.53 121.517 1083.33 127.581 1087.26 133.309C1089.49 136.552 1091.78 139.81 1094.07 143.068C1110.11 165.864 1126.67 189.447 1130.99 217.858C1139.77 275.5 1111.61 359.131 1079.79 401.088C1046.1 445.851 991.804 479.943 934.328 516.044C876.062 552.626 809.995 594.087 753.236 654.019C752.847 654.438 751.478 656.225 749.431 658.937C712.938 706.994 674.822 749.203 636.158 784.405C603.914 813.718 572.442 837.251 541.743 855.002ZM339.322 175.65C301.296 197.658 277.547 225.95 270.149 258.697C270 259.593 269.76 260.472 269.43 261.319C251.257 295.379 255.128 323.592 260.007 359.319C265.363 398.48 272.063 447.337 249.447 521.041C249.084 522.221 213.371 650.324 212.471 686.195C210.881 748.627 216.289 781.696 274.608 836.393C319.735 878.698 370.774 897.748 426.314 893.026C564.683 881.246 697.573 724.688 748.192 658.006C750.412 655.047 751.66 653.428 752.111 652.949C809.013 592.886 875.16 551.354 933.516 514.72C993.367 477.147 1045.05 444.692 1078.55 400.157C1110.23 358.424 1138.17 275.363 1129.45 218.121C1125.18 190.064 1108.72 166.645 1092.79 144.002C1090.49 140.726 1088.21 137.486 1085.97 134.225C1082.04 128.497 1078.23 122.415 1074.56 116.587C1062.96 98.1037 1050.95 78.9684 1032.98 67.2057C998.263 44.4818 914.227 26.5627 865.624 37.9866C817.563 49.387 795.032 63.1786 773.217 76.5313C744.323 94.248 717.014 110.974 635.483 121.84C618.433 124.119 604.804 123.715 589 123.235C559.158 122.273 522.046 121.179 441.928 138.452C400.948 147.258 366.52 159.909 339.322 175.65Z" fill="url(#paint48_linear)"/>
</g>
<g style="mix-blend-mode:color-dodge" opacity="0.28">
<path d="M527.886 884.192C505.32 897.251 483.365 903.63 452.563 910.085C388.778 923.458 319.302 904.362 266.743 859.036C213.86 813.485 185.77 749.488 189.574 683.496C193.263 619.704 204.292 590.82 218.286 554.257C223.246 541.251 228.406 527.791 233.892 511.281C260.192 432.026 257.168 413.822 250.602 373.906C248.318 359.929 245.445 342.534 243.397 318.916C237.944 255.905 305.649 179.94 344.316 159.549C399.001 130.713 482.771 124.492 563.673 118.548C629.176 113.71 691.149 109.096 733.987 92.9592C742.452 89.7815 753.693 83.9788 766.773 77.3304C832.268 43.8375 954.313 -18.5765 1063.82 72.7119C1142.88 138.485 1140.57 186.111 1137.96 241.18C1137.75 245.663 1137.53 250.203 1137.36 254.815C1134.82 323.177 1107.96 384.011 1057.57 435.605C1002.04 492.451 963.938 512.779 923.436 534.401C876.86 559.272 828.69 584.992 749.148 669.215L712.123 708.439C611.326 815.316 568.619 860.617 527.886 884.192ZM341.895 162.623C303.16 185.041 239.612 258.043 244.874 318.788C246.927 342.331 249.737 359.617 252.071 373.638C258.671 413.824 261.685 432.18 235.397 511.791C229.906 528.377 224.757 541.855 219.737 554.799C205.802 591.256 194.856 620.115 191.137 683.561C187.361 749.053 215.322 812.615 267.76 857.817C319.922 902.79 388.915 921.803 452.297 908.615C538.281 890.59 554.626 873.25 710.876 707.537L747.883 668.322C827.648 583.898 875.982 558.083 922.716 533.193C963.018 511.687 1001.09 491.351 1056.43 434.686C1106.56 383.391 1133.26 322.914 1135.8 254.938C1135.96 250.336 1136.18 245.796 1136.39 241.285C1138.98 186.641 1141.21 139.452 1062.83 74.1082C954.104 -16.71 832.656 45.3102 767.485 78.7363C756.767 84.5202 745.767 89.7619 734.526 94.4415C691.486 110.647 629.455 115.246 563.794 120.103C482.988 126.088 399.441 132.277 345.065 160.934C344.034 161.458 343.025 162.018 341.989 162.617L341.895 162.623Z" fill="url(#paint49_linear)"/>
</g>
<g style="mix-blend-mode:color-dodge">
<path d="M1015.1 109.247C968.777 -9.60455 765.209 -40.8688 560.416 39.4161C355.624 119.701 227.158 281.133 273.481 399.984C319.803 518.835 523.372 550.099 728.164 469.814C932.957 389.53 1061.42 228.098 1015.1 109.247Z" fill="url(#paint50_radial)"/>
</g>
</g>
<defs>
<radialGradient id="paint0_radial" cx="0" cy="0" r="1" gradientUnits="userSpaceOnUse" gradientTransform="translate(785.911 463.402) rotate(60.06) scale(204.645 317.437)">
<stop stop-color="#25244E"/>
<stop offset="1" stop-color="#25244E" stop-opacity="0"/>
</radialGradient>
<linearGradient id="paint1_linear" x1="444.068" y1="376.459" x2="633.906" y2="285.858" gradientUnits="userSpaceOnUse">
<stop stop-color="#60C3F4"/>
<stop offset="1" stop-color="#E479F0"/>
</linearGradient>
<linearGradient id="paint2_linear" x1="440.582" y1="381.168" x2="655.506" y2="281.284" gradientUnits="userSpaceOnUse">
<stop stop-color="#60C3F4"/>
<stop offset="1" stop-color="#E479F0"/>
</linearGradient>
<linearGradient id="paint3_linear" x1="433.085" y1="370.316" x2="652.34" y2="267.025" gradientUnits="userSpaceOnUse">
<stop stop-color="#60C3F4"/>
<stop offset="1" stop-color="#E479F0"/>
</linearGradient>
<linearGradient id="paint4_linear" x1="427.249" y1="366.015" x2="659.283" y2="257.538" gradientUnits="userSpaceOnUse">
<stop stop-color="#60C3F4"/>
<stop offset="1" stop-color="#E479F0"/>
</linearGradient>
<linearGradient id="paint5_linear" x1="429.661" y1="366.194" x2="669.956" y2="254.545" gradientUnits="userSpaceOnUse">
<stop stop-color="#60C3F4"/>
<stop offset="1" stop-color="#E479F0"/>
</linearGradient>
<linearGradient id="paint6_linear" x1="413.513" y1="367.42" x2="675.344" y2="247.088" gradientUnits="userSpaceOnUse">
<stop stop-color="#60C3F4"/>
<stop offset="1" stop-color="#E479F0"/>
</linearGradient>
<linearGradient id="paint7_linear" x1="412.283" y1="362.234" x2="684.291" y2="236.688" gradientUnits="userSpaceOnUse">
<stop stop-color="#60C3F4"/>
<stop offset="1" stop-color="#E479F0"/>
</linearGradient>
<linearGradient id="paint8_linear" x1="411.93" y1="364.055" x2="689.046" y2="235.76" gradientUnits="userSpaceOnUse">
<stop stop-color="#60C3F4"/>
<stop offset="1" stop-color="#E479F0"/>
</linearGradient>
<linearGradient id="paint9_linear" x1="397.589" y1="359.621" x2="700.591" y2="221.284" gradientUnits="userSpaceOnUse">
<stop stop-color="#60C3F4"/>
<stop offset="1" stop-color="#E479F0"/>
</linearGradient>
<linearGradient id="paint10_linear" x1="393.233" y1="358.415" x2="710.948" y2="214.338" gradientUnits="userSpaceOnUse">
<stop stop-color="#60C3F4"/>
<stop offset="1" stop-color="#E479F0"/>
</linearGradient>
<linearGradient id="paint11_linear" x1="386.176" y1="354.544" x2="715.027" y2="205.67" gradientUnits="userSpaceOnUse">
<stop stop-color="#60C3F4"/>
<stop offset="1" stop-color="#E479F0"/>
</linearGradient>
<linearGradient id="paint12_linear" x1="385.996" y1="354.016" x2="717.276" y2="203.166" gradientUnits="userSpaceOnUse">
<stop stop-color="#60C3F4"/>
<stop offset="1" stop-color="#E479F0"/>
</linearGradient>
<linearGradient id="paint13_linear" x1="379.124" y1="346.988" x2="724.507" y2="189.721" gradientUnits="userSpaceOnUse">
<stop stop-color="#60C3F4"/>
<stop offset="1" stop-color="#E479F0"/>
</linearGradient>
<linearGradient id="paint14_linear" x1="371.321" y1="341.764" x2="732.848" y2="177.564" gradientUnits="userSpaceOnUse">
<stop stop-color="#60C3F4"/>
<stop offset="1" stop-color="#E479F0"/>
</linearGradient>
<linearGradient id="paint15_linear" x1="367.93" y1="345.93" x2="742.88" y2="176.586" gradientUnits="userSpaceOnUse">
<stop stop-color="#60C3F4"/>
<stop offset="1" stop-color="#E479F0"/>
</linearGradient>
<linearGradient id="paint16_linear" x1="351.027" y1="337.111" x2="746.763" y2="157.339" gradientUnits="userSpaceOnUse">
<stop stop-color="#60C3F4"/>
<stop offset="1" stop-color="#E479F0"/>
</linearGradient>
<linearGradient id="paint17_linear" x1="347.492" y1="335.028" x2="751.452" y2="152.53" gradientUnits="userSpaceOnUse">
<stop stop-color="#60C3F4"/>
<stop offset="1" stop-color="#E479F0"/>
</linearGradient>
<linearGradient id="paint18_linear" x1="340.243" y1="343.091" x2="767.121" y2="152.85" gradientUnits="userSpaceOnUse">
<stop stop-color="#60C3F4"/>
<stop offset="1" stop-color="#E479F0"/>
</linearGradient>
<linearGradient id="paint19_linear" x1="332.271" y1="349.105" x2="775.897" y2="151.729" gradientUnits="userSpaceOnUse">
<stop stop-color="#60C3F4"/>
<stop offset="1" stop-color="#E479F0"/>
</linearGradient>
<linearGradient id="paint20_linear" x1="319.505" y1="347.315" x2="789.787" y2="139.974" gradientUnits="userSpaceOnUse">
<stop stop-color="#60C3F4"/>
<stop offset="1" stop-color="#E479F0"/>
</linearGradient>
<linearGradient id="paint21_linear" x1="315.643" y1="346.562" x2="799.828" y2="132.798" gradientUnits="userSpaceOnUse">
<stop stop-color="#60C3F4"/>
<stop offset="1" stop-color="#E479F0"/>
</linearGradient>
<linearGradient id="paint22_linear" x1="301.702" y1="349.751" x2="808.874" y2="128.658" gradientUnits="userSpaceOnUse">
<stop stop-color="#60C3F4"/>
<stop offset="1" stop-color="#E479F0"/>
</linearGradient>
<linearGradient id="paint23_linear" x1="297.856" y1="354.75" x2="814.563" y2="128.706" gradientUnits="userSpaceOnUse">
<stop stop-color="#60C3F4"/>
<stop offset="1" stop-color="#E479F0"/>
</linearGradient>
<linearGradient id="paint24_linear" x1="286.199" y1="352.297" x2="825.78" y2="118.549" gradientUnits="userSpaceOnUse">
<stop stop-color="#60C3F4"/>
<stop offset="1" stop-color="#E479F0"/>
</linearGradient>
<linearGradient id="paint25_linear" x1="278.416" y1="351.947" x2="834.769" y2="110.621" gradientUnits="userSpaceOnUse">
<stop stop-color="#60C3F4"/>
<stop offset="1" stop-color="#E479F0"/>
</linearGradient>
<linearGradient id="paint26_linear" x1="262.792" y1="350.989" x2="842.75" y2="100.705" gradientUnits="userSpaceOnUse">
<stop stop-color="#60C3F4"/>
<stop offset="1" stop-color="#E479F0"/>
</linearGradient>
<linearGradient id="paint27_linear" x1="260.154" y1="357.951" x2="851.698" y2="103.123" gradientUnits="userSpaceOnUse">
<stop stop-color="#60C3F4"/>
<stop offset="1" stop-color="#E479F0"/>
</linearGradient>
<linearGradient id="paint28_linear" x1="246.304" y1="354.933" x2="862.955" y2="91.1861" gradientUnits="userSpaceOnUse">
<stop stop-color="#60C3F4"/>
<stop offset="1" stop-color="#E479F0"/>
</linearGradient>
<linearGradient id="paint29_linear" x1="243.497" y1="350.163" x2="865.294" y2="81.8047" gradientUnits="userSpaceOnUse">
<stop stop-color="#60C3F4"/>
<stop offset="1" stop-color="#E479F0"/>
</linearGradient>
<linearGradient id="paint30_linear" x1="229.947" y1="349.005" x2="872.077" y2="72.2694" gradientUnits="userSpaceOnUse">
<stop stop-color="#60C3F4"/>
<stop offset="1" stop-color="#E479F0"/>
</linearGradient>
<linearGradient id="paint31_linear" x1="220.18" y1="352.242" x2="886.767" y2="68.511" gradientUnits="userSpaceOnUse">
<stop stop-color="#60C3F4"/>
<stop offset="1" stop-color="#E479F0"/>
</linearGradient>
<linearGradient id="paint32_linear" x1="210.174" y1="353.408" x2="894.105" y2="62.0207" gradientUnits="userSpaceOnUse">
<stop stop-color="#60C3F4"/>
<stop offset="1" stop-color="#E479F0"/>
</linearGradient>
<linearGradient id="paint33_linear" x1="197.688" y1="347.809" x2="900.012" y2="48.1437" gradientUnits="userSpaceOnUse">
<stop stop-color="#60C3F4"/>
<stop offset="1" stop-color="#E479F0"/>
</linearGradient>
<linearGradient id="paint34_linear" x1="196.558" y1="349.102" x2="917.456" y2="44.8193" gradientUnits="userSpaceOnUse">
<stop stop-color="#60C3F4"/>
<stop offset="1" stop-color="#E479F0"/>
</linearGradient>
<linearGradient id="paint35_linear" x1="174.48" y1="351.368" x2="929.527" y2="35.307" gradientUnits="userSpaceOnUse">
<stop stop-color="#60C3F4"/>
<stop offset="1" stop-color="#E479F0"/>
</linearGradient>
<linearGradient id="paint36_linear" x1="160.029" y1="346.876" x2="945.022" y2="20.6289" gradientUnits="userSpaceOnUse">
<stop stop-color="#60C3F4"/>
<stop offset="1" stop-color="#E479F0"/>
</linearGradient>
<linearGradient id="paint37_linear" x1="153.903" y1="353.473" x2="966.401" y2="20.3993" gradientUnits="userSpaceOnUse">
<stop stop-color="#60C3F4"/>
<stop offset="1" stop-color="#E479F0"/>
</linearGradient>
<linearGradient id="paint38_linear" x1="138.767" y1="347.853" x2="976.837" y2="3.18648" gradientUnits="userSpaceOnUse">
<stop stop-color="#60C3F4"/>
<stop offset="1" stop-color="#E479F0"/>
</linearGradient>
<linearGradient id="paint39_linear" x1="118.596" y1="351.726" x2="985.432" y2="-3.00911" gradientUnits="userSpaceOnUse">
<stop stop-color="#60C3F4"/>
<stop offset="1" stop-color="#E479F0"/>
</linearGradient>
<linearGradient id="paint40_linear" x1="102.522" y1="350.756" x2="1007.27" y2="-16.7431" gradientUnits="userSpaceOnUse">
<stop stop-color="#60C3F4"/>
<stop offset="1" stop-color="#E479F0"/>
</linearGradient>
<linearGradient id="paint41_linear" x1="84.1787" y1="349.351" x2="1015.15" y2="-26.1043" gradientUnits="userSpaceOnUse">
<stop stop-color="#60C3F4"/>
<stop offset="1" stop-color="#E479F0"/>
</linearGradient>
<linearGradient id="paint42_linear" x1="72.1332" y1="359.844" x2="1036.55" y2="-25.0806" gradientUnits="userSpaceOnUse">
<stop stop-color="#60C3F4"/>
<stop offset="1" stop-color="#E479F0"/>
</linearGradient>
<linearGradient id="paint43_linear" x1="54.4093" y1="344.719" x2="1044.97" y2="-55.0385" gradientUnits="userSpaceOnUse">
<stop stop-color="#60C3F4"/>
<stop offset="1" stop-color="#E479F0"/>
</linearGradient>
<linearGradient id="paint44_linear" x1="32.7545" y1="342.846" x2="1059.32" y2="-70.7511" gradientUnits="userSpaceOnUse">
<stop stop-color="#60C3F4"/>
<stop offset="1" stop-color="#E479F0"/>
</linearGradient>
<linearGradient id="paint45_linear" x1="5.38835" y1="349.71" x2="1076.31" y2="-80.0552" gradientUnits="userSpaceOnUse">
<stop stop-color="#60C3F4"/>
<stop offset="1" stop-color="#E479F0"/>
</linearGradient>
<linearGradient id="paint46_linear" x1="-13.0803" y1="340.904" x2="1080.77" y2="-100.221" gradientUnits="userSpaceOnUse">
<stop stop-color="#60C3F4"/>
<stop offset="1" stop-color="#E479F0"/>
</linearGradient>
<linearGradient id="paint47_linear" x1="-32.5744" y1="341.444" x2="1100.77" y2="-113.848" gradientUnits="userSpaceOnUse">
<stop stop-color="#60C3F4"/>
<stop offset="1" stop-color="#E479F0"/>
</linearGradient>
<linearGradient id="paint48_linear" x1="-63.5635" y1="334.918" x2="1101.97" y2="-134.98" gradientUnits="userSpaceOnUse">
<stop stop-color="#60C3F4"/>
<stop offset="1" stop-color="#E479F0"/>
</linearGradient>
<linearGradient id="paint49_linear" x1="-85.935" y1="333.463" x2="1124.66" y2="-154.999" gradientUnits="userSpaceOnUse">
<stop stop-color="#60C3F4"/>
<stop offset="1" stop-color="#E479F0"/>
</linearGradient>
<radialGradient id="paint50_radial" cx="0" cy="0" r="1" gradientUnits="userSpaceOnUse" gradientTransform="translate(644.29 254.615) rotate(-21.4067) scale(398.286 230.966)">
<stop stop-color="#70B9F3" stop-opacity="0.01"/>
<stop offset="1" stop-color="#71B9F3" stop-opacity="0"/>
</radialGradient>
<clipPath id="clip0">
<rect width="1211" height="941" fill="white"/>
</clipPath>
</defs>
</svg>
