<svg width="23" height="22" viewBox="0 0 23 22" fill="none" xmlns="http://www.w3.org/2000/svg">
<g clip-path="url(#clip0)">
<path fill-rule="evenodd" clip-rule="evenodd" d="M11.0283 22C17.1035 22 22.0283 17.0751 22.0283 11C22.0283 4.92487 17.1035 0 11.0283 0C4.95319 0 0.0283203 4.92487 0.0283203 11C0.0283203 17.0751 4.95319 22 11.0283 22ZM13.0463 6.60005H9.01043C7.69693 6.60005 6.62835 7.66863 6.62835 8.98213V13.018C6.62835 14.3315 7.69693 15.4 9.01043 15.4H13.0463C14.3598 15.4 15.4284 14.3315 15.4284 13.018V8.98213C15.4284 7.66863 14.3598 6.60005 13.0463 6.60005ZM11.0284 13.4062C9.70156 13.4062 8.62217 12.3268 8.62217 11.0001C8.62217 9.67326 9.70156 8.59387 11.0284 8.59387C12.3551 8.59387 13.4345 9.67326 13.4345 11.0001C13.4345 12.3268 12.3551 13.4062 11.0284 13.4062ZM13.4921 9.16132C13.1 9.16132 12.7811 8.84241 12.7811 8.45033C12.7811 8.05824 13.1 7.73926 13.4921 7.73926C13.8842 7.73926 14.2031 8.05824 14.2031 8.45033C14.2031 8.84241 13.8842 9.16132 13.4921 9.16132ZM11.0284 9.10976C9.98609 9.10976 9.13806 9.95772 9.13806 11.0001C9.13806 12.0423 9.98609 12.8903 11.0284 12.8903C12.0707 12.8903 12.9186 12.0423 12.9186 11.0001C12.9186 9.95772 12.0707 9.10976 11.0284 9.10976ZM13.297 8.45033C13.297 8.34277 13.3845 8.25522 13.4921 8.25522C13.5997 8.25522 13.6872 8.3427 13.6872 8.45033C13.6872 8.55795 13.5997 8.64543 13.4921 8.64543C13.3845 8.64543 13.297 8.55788 13.297 8.45033Z" fill="#695FDF"/>
<path fill-rule="evenodd" clip-rule="evenodd" d="M11.0283 22C17.1035 22 22.0283 17.0751 22.0283 11C22.0283 4.92487 17.1035 0 11.0283 0C4.95319 0 0.0283203 4.92487 0.0283203 11C0.0283203 17.0751 4.95319 22 11.0283 22ZM13.0463 6.60005H9.01043C7.69693 6.60005 6.62835 7.66863 6.62835 8.98213V13.018C6.62835 14.3315 7.69693 15.4 9.01043 15.4H13.0463C14.3598 15.4 15.4284 14.3315 15.4284 13.018V8.98213C15.4284 7.66863 14.3598 6.60005 13.0463 6.60005ZM11.0284 13.4062C9.70156 13.4062 8.62217 12.3268 8.62217 11.0001C8.62217 9.67326 9.70156 8.59387 11.0284 8.59387C12.3551 8.59387 13.4345 9.67326 13.4345 11.0001C13.4345 12.3268 12.3551 13.4062 11.0284 13.4062ZM13.4921 9.16132C13.1 9.16132 12.7811 8.84241 12.7811 8.45033C12.7811 8.05824 13.1 7.73926 13.4921 7.73926C13.8842 7.73926 14.2031 8.05824 14.2031 8.45033C14.2031 8.84241 13.8842 9.16132 13.4921 9.16132ZM11.0284 9.10976C9.98609 9.10976 9.13806 9.95772 9.13806 11.0001C9.13806 12.0423 9.98609 12.8903 11.0284 12.8903C12.0707 12.8903 12.9186 12.0423 12.9186 11.0001C12.9186 9.95772 12.0707 9.10976 11.0284 9.10976ZM13.297 8.45033C13.297 8.34277 13.3845 8.25522 13.4921 8.25522C13.5997 8.25522 13.6872 8.3427 13.6872 8.45033C13.6872 8.55795 13.5997 8.64543 13.4921 8.64543C13.3845 8.64543 13.297 8.55788 13.297 8.45033Z" fill="url(#paint0_linear)"/>
</g>
<defs>
<linearGradient id="paint0_linear" x1="-0.0929289" y1="10.9995" x2="22.1496" y2="10.9995" gradientUnits="userSpaceOnUse">
<stop offset="0.00893389" stop-color="#C734F7"/>
<stop offset="0.5754" stop-color="#8C72DA"/>
<stop offset="0.9866" stop-color="#7890D3"/>
</linearGradient>
<clipPath id="clip0">
<rect width="22" height="22" fill="white" transform="translate(0.0283203)"/>
</clipPath>
</defs>
</svg>
