<svg width="23" height="22" viewBox="0 0 23 22" fill="none" xmlns="http://www.w3.org/2000/svg">
<g clip-path="url(#clip0)">
<path d="M12.2044 10.0258V9.99994C12.1991 10.0084 12.1921 10.0176 12.187 10.0258H12.2044Z" fill="#695FDF"/>
<path fill-rule="evenodd" clip-rule="evenodd" d="M0.0283203 11C0.0283203 4.92493 4.95325 0 11.0283 0C17.1034 0 22.0283 4.92493 22.0283 11C22.0283 17.0751 17.1034 22 11.0283 22C4.95325 22 0.0283203 17.0751 0.0283203 11ZM7.63967 7.74459H7.6542C8.40815 7.74459 8.87688 7.24551 8.87688 6.62193C8.86271 5.98456 8.40797 5.5 7.66837 5.5C6.92877 5.5 6.44497 5.98474 6.44497 6.62193C6.44497 7.24533 6.91478 7.74459 7.63967 7.74459ZM6.5736 15.125H8.73462V8.63078H6.5736V15.125ZM16.5283 15.125H14.3671V11.6505C14.3671 10.7777 14.0544 10.1821 13.2723 10.1821C12.6752 10.1821 12.3198 10.5835 12.1634 10.9719C12.1063 11.1108 12.0916 11.304 12.0916 11.4982V15.125H9.92968C9.92968 15.125 9.95875 9.24038 9.92968 8.63078H12.0913V9.55127C12.3785 9.10935 12.8914 8.47815 14.0394 8.47815C15.4617 8.47815 16.5279 9.40626 16.5279 11.4011L16.5283 15.125Z" fill="#695FDF"/>
<path fill-rule="evenodd" clip-rule="evenodd" d="M0.0283203 11C0.0283203 4.92493 4.95325 0 11.0283 0C17.1034 0 22.0283 4.92493 22.0283 11C22.0283 17.0751 17.1034 22 11.0283 22C4.95325 22 0.0283203 17.0751 0.0283203 11ZM7.63967 7.74459H7.6542C8.40815 7.74459 8.87688 7.24551 8.87688 6.62193C8.86271 5.98456 8.40797 5.5 7.66837 5.5C6.92877 5.5 6.44497 5.98474 6.44497 6.62193C6.44497 7.24533 6.91478 7.74459 7.63967 7.74459ZM6.5736 15.125H8.73462V8.63078H6.5736V15.125ZM16.5283 15.125H14.3671V11.6505C14.3671 10.7777 14.0544 10.1821 13.2723 10.1821C12.6752 10.1821 12.3198 10.5835 12.1634 10.9719C12.1063 11.1108 12.0916 11.304 12.0916 11.4982V15.125H9.92968C9.92968 15.125 9.95875 9.24038 9.92968 8.63078H12.0913V9.55127C12.3785 9.10935 12.8914 8.47815 14.0394 8.47815C15.4617 8.47815 16.5279 9.40626 16.5279 11.4011L16.5283 15.125Z" fill="url(#paint0_linear)"/>
</g>
<defs>
<linearGradient id="paint0_linear" x1="-0.0929289" y1="10.9995" x2="22.1496" y2="10.9995" gradientUnits="userSpaceOnUse">
<stop offset="0.00893389" stop-color="#C734F7"/>
<stop offset="0.5754" stop-color="#8C72DA"/>
<stop offset="0.9866" stop-color="#7890D3"/>
</linearGradient>
<clipPath id="clip0">
<rect width="22" height="22" fill="white" transform="translate(0.0283203)"/>
</clipPath>
</defs>
</svg>
