<svg width="46" height="41" viewBox="0 0 46 41" fill="none" xmlns="http://www.w3.org/2000/svg">
<path fill-rule="evenodd" clip-rule="evenodd" d="M36.8411 3.84796C36.8411 5.84477 35.2223 7.4635 33.2255 7.4635C32.9398 7.4635 32.6619 7.43036 32.3953 7.36772L27.3168 15.8694C28.1153 16.706 28.671 17.7764 28.8708 18.9675H38.9637C39.2061 18.1957 39.7255 17.5465 40.4055 17.1366L36.1122 9.2789C35.8511 8.801 36.0268 8.20191 36.5047 7.94079C36.9826 7.67968 37.5817 7.85541 37.8428 8.33332L42.4036 16.6805C44.0766 16.8337 45.3869 18.2406 45.3869 19.9535C45.3869 21.6243 44.1403 23.0039 42.5265 23.213C42.5062 23.283 42.4777 23.3519 42.4408 23.4184L37.5095 32.2929C37.245 32.769 36.6447 32.9404 36.1687 32.6759C35.6926 32.4114 35.5212 31.8111 35.7857 31.335L40.5109 22.8314C39.7793 22.4265 39.2184 21.7508 38.9637 20.9396H28.8708C28.5957 22.5793 27.6462 23.9903 26.3171 24.8776L30.8036 32.9224C31.6984 32.6817 32.685 32.7827 33.5509 33.2826C35.2802 34.281 35.8727 36.4923 34.8743 38.2215C33.8759 39.9508 31.6646 40.5433 29.9353 39.5449C28.2061 38.5465 27.6136 36.3353 28.612 34.606C28.7548 34.3585 28.9225 34.1343 29.1101 33.9348L24.5094 25.685C24.0384 25.8057 23.5449 25.8699 23.0363 25.8699C19.7688 25.8699 17.12 23.221 17.12 19.9535C17.12 16.686 19.7688 14.0372 23.0363 14.0372C24.0056 14.0372 24.9205 14.2703 25.728 14.6836L30.6718 6.40737C30.0158 5.75286 29.61 4.84781 29.61 3.84796C29.61 1.85115 31.2287 0.232422 33.2255 0.232422C35.2223 0.232422 36.8411 1.85115 36.8411 3.84796ZM27.7538 2.11407C27.6461 2.6479 27.1261 2.99339 26.5922 2.88573C18.5847 1.2709 10.5914 5.25717 6.95731 12.3399C6.7087 12.8244 6.11438 13.0156 5.62985 12.767C5.14532 12.5184 4.95407 11.9241 5.20268 11.4396C9.23386 3.58298 18.0964 -0.839389 26.9821 0.952542C27.5159 1.0602 27.8614 1.58023 27.7538 2.11407ZM4.96242 26.7594C5.46808 26.5573 6.0419 26.8033 6.24408 27.3089C8.28861 32.4226 12.6323 36.5386 18.3575 38.0726C20.8173 38.7317 23.292 38.8503 25.6577 38.5025C26.1965 38.4233 26.6975 38.7958 26.7767 39.3346C26.8559 39.8734 26.4833 40.3744 25.9446 40.4536C23.3177 40.8399 20.5715 40.7076 17.8471 39.9776C11.496 38.2758 6.6783 33.7071 4.4129 28.0411C4.21073 27.5354 4.45676 26.9616 4.96242 26.7594ZM4.62991 24.5551C6.83284 24.5551 8.67421 23.0071 9.12561 20.9396L14.6258 20.9396C15.1704 20.9396 15.6118 20.4981 15.6118 19.9535C15.6118 19.409 15.1703 18.9675 14.6258 18.9675L9.12561 18.9675C8.67422 16.8999 6.83284 15.3519 4.62991 15.3519C2.08852 15.3519 0.0283203 17.4121 0.0283203 19.9535C0.0283203 22.4949 2.08852 24.5551 4.62991 24.5551Z" fill="url(#paint0_linear)"/>
<defs>
<linearGradient id="paint0_linear" x1="-0.221666" y1="20.4481" x2="45.637" y2="20.4481" gradientUnits="userSpaceOnUse">
<stop offset="0.00893389" stop-color="#C734F7"/>
<stop offset="0.5754" stop-color="#8C72DA"/>
<stop offset="0.9866" stop-color="#7890D3"/>
</linearGradient>
</defs>
</svg>
