<svg width="166" height="41" viewBox="0 0 166 41" fill="none" xmlns="http://www.w3.org/2000/svg">
<path fill-rule="evenodd" clip-rule="evenodd" d="M36.8411 3.61554C36.8411 5.61234 35.2223 7.23108 33.2255 7.23108C32.9398 7.23108 32.6619 7.19794 32.3953 7.1353L27.3168 15.6369C28.1153 16.4736 28.671 17.544 28.8708 18.7351H38.9637C39.2061 17.9632 39.7255 17.3141 40.4055 16.9042L36.1122 9.04648C35.8511 8.56858 36.0268 7.96949 36.5047 7.70837C36.9826 7.44726 37.5817 7.62299 37.8428 8.10089L42.4036 16.4481C44.0766 16.6013 45.3869 18.0082 45.3869 19.7211C45.3869 21.3919 44.1403 22.7715 42.5265 22.9806C42.5062 23.0506 42.4777 23.1195 42.4408 23.186L37.5095 32.0605C37.245 32.5365 36.6447 32.708 36.1687 32.4435C35.6926 32.179 35.5212 31.5787 35.7857 31.1026L40.5109 22.599C39.7793 22.1941 39.2184 21.5184 38.9637 20.7072H28.8708C28.5957 22.3469 27.6462 23.7579 26.3171 24.6452L30.8036 32.69C31.6984 32.4492 32.685 32.5503 33.5509 33.0502C35.2802 34.0486 35.8727 36.2598 34.8743 37.9891C33.8759 39.7184 31.6646 40.3109 29.9353 39.3125C28.2061 38.3141 27.6136 36.1029 28.612 34.3736C28.7548 34.1261 28.9225 33.9019 29.1101 33.7023L24.5094 25.4526C24.0384 25.5733 23.5449 25.6374 23.0363 25.6374C19.7688 25.6374 17.12 22.9886 17.12 19.7211C17.12 16.4536 19.7688 13.8048 23.0363 13.8048C24.0056 13.8048 24.9205 14.0379 25.728 14.4511L30.6718 6.17495C30.0158 5.52044 29.61 4.61539 29.61 3.61554C29.61 1.61873 31.2287 0 33.2255 0C35.2223 0 36.8411 1.61873 36.8411 3.61554ZM27.7538 1.88165C27.6461 2.41548 27.1261 2.76097 26.5922 2.65331C18.5847 1.03848 10.5914 5.02475 6.95731 12.1074C6.7087 12.592 6.11438 12.7832 5.62985 12.5346C5.14532 12.286 4.95407 11.6917 5.20268 11.2072C9.23386 3.35056 18.0964 -1.07181 26.9821 0.72012C27.5159 0.827777 27.8614 1.34781 27.7538 1.88165ZM4.96242 26.527C5.46808 26.3248 6.0419 26.5709 6.24408 27.0765C8.28861 32.1902 12.6323 36.3061 18.3575 37.8402C20.8173 38.4993 23.292 38.6179 25.6577 38.2701C26.1965 38.1908 26.6975 38.5634 26.7767 39.1022C26.8559 39.641 26.4833 40.142 25.9446 40.2212C23.3177 40.6074 20.5715 40.4751 17.8471 39.7451C11.496 38.0433 6.6783 33.4747 4.4129 27.8087C4.21073 27.303 4.45676 26.7292 4.96242 26.527ZM4.62991 24.3227C6.83284 24.3227 8.67421 22.7747 9.12561 20.7072L14.6258 20.7072C15.1704 20.7072 15.6118 20.2657 15.6118 19.7211C15.6118 19.1765 15.1703 18.7351 14.6258 18.7351L9.12561 18.7351C8.67422 16.6675 6.83284 15.1195 4.62991 15.1195C2.08852 15.1195 0.0283203 17.1797 0.0283203 19.7211C0.0283203 22.2625 2.08852 24.3227 4.62991 24.3227Z" fill="url(#paint0_linear)"/>
<path d="M59.5861 25.0797H63.9781V26.4117H57.9481V13.8657H59.5861V25.0797ZM74.9337 23.6217H69.4617L68.4537 26.4117H66.7257L71.2617 13.9377H73.1517L77.6697 26.4117H75.9417L74.9337 23.6217ZM74.4657 22.2897L72.1977 15.9537L69.9297 22.2897H74.4657ZM90.9506 17.5017C90.6026 16.7697 90.0986 16.2057 89.4386 15.8097C88.7786 15.4017 88.0106 15.1977 87.1346 15.1977C86.2586 15.1977 85.4666 15.4017 84.7586 15.8097C84.0626 16.2057 83.5106 16.7817 83.1026 17.5377C82.7066 18.2817 82.5086 19.1457 82.5086 20.1297C82.5086 21.1137 82.7066 21.9777 83.1026 22.7217C83.5106 23.4657 84.0626 24.0417 84.7586 24.4497C85.4666 24.8457 86.2586 25.0437 87.1346 25.0437C88.3586 25.0437 89.3666 24.6777 90.1586 23.9457C90.9506 23.2137 91.4126 22.2237 91.5446 20.9757H86.5406V19.6437H93.2906V20.9037C93.1946 21.9357 92.8706 22.8837 92.3186 23.7477C91.7666 24.5997 91.0406 25.2777 90.1406 25.7817C89.2406 26.2737 88.2386 26.5197 87.1346 26.5197C85.9706 26.5197 84.9086 26.2497 83.9486 25.7097C82.9886 25.1577 82.2266 24.3957 81.6626 23.4237C81.1106 22.4517 80.8346 21.3537 80.8346 20.1297C80.8346 18.9057 81.1106 17.8077 81.6626 16.8357C82.2266 15.8517 82.9886 15.0897 83.9486 14.5497C84.9086 13.9977 85.9706 13.7217 87.1346 13.7217C88.4666 13.7217 89.6426 14.0517 90.6626 14.7117C91.6946 15.3717 92.4446 16.3017 92.9126 17.5017H90.9506ZM103.862 26.4117L100.874 21.2817H98.8943V26.4117H97.2563V13.8657H101.306C102.254 13.8657 103.052 14.0277 103.7 14.3517C104.36 14.6757 104.852 15.1137 105.176 15.6657C105.5 16.2177 105.662 16.8477 105.662 17.5557C105.662 18.4197 105.41 19.1817 104.906 19.8417C104.414 20.5017 103.67 20.9397 102.674 21.1557L105.824 26.4117H103.862ZM98.8943 19.9677H101.306C102.194 19.9677 102.86 19.7517 103.304 19.3197C103.748 18.8757 103.97 18.2877 103.97 17.5557C103.97 16.8117 103.748 16.2357 103.304 15.8277C102.872 15.4197 102.206 15.2157 101.306 15.2157H98.8943V19.9677ZM117.424 23.6217H111.952L110.944 26.4117H109.216L113.752 13.9377H115.642L120.16 26.4117H118.432L117.424 23.6217ZM116.956 22.2897L114.688 15.9537L112.42 22.2897H116.956ZM133.8 26.4117H132.162L125.574 16.4217V26.4117H123.936V13.8477H125.574L132.162 23.8197V13.8477H133.8V26.4117ZM147.897 17.5017C147.549 16.7697 147.045 16.2057 146.385 15.8097C145.725 15.4017 144.957 15.1977 144.081 15.1977C143.205 15.1977 142.413 15.4017 141.705 15.8097C141.009 16.2057 140.457 16.7817 140.049 17.5377C139.653 18.2817 139.455 19.1457 139.455 20.1297C139.455 21.1137 139.653 21.9777 140.049 22.7217C140.457 23.4657 141.009 24.0417 141.705 24.4497C142.413 24.8457 143.205 25.0437 144.081 25.0437C145.305 25.0437 146.313 24.6777 147.105 23.9457C147.897 23.2137 148.359 22.2237 148.491 20.9757H143.487V19.6437H150.237V20.9037C150.141 21.9357 149.817 22.8837 149.265 23.7477C148.713 24.5997 147.987 25.2777 147.087 25.7817C146.187 26.2737 145.185 26.5197 144.081 26.5197C142.917 26.5197 141.855 26.2497 140.895 25.7097C139.935 25.1577 139.173 24.3957 138.609 23.4237C138.057 22.4517 137.781 21.3537 137.781 20.1297C137.781 18.9057 138.057 17.8077 138.609 16.8357C139.173 15.8517 139.935 15.0897 140.895 14.5497C141.855 13.9977 142.917 13.7217 144.081 13.7217C145.413 13.7217 146.589 14.0517 147.609 14.7117C148.641 15.3717 149.391 16.3017 149.859 17.5017H147.897ZM155.84 15.1977V19.3917H160.412V20.7417H155.84V25.0617H160.952V26.4117H154.202V13.8477H160.952V15.1977H155.84Z" fill="white"/>
<defs>
<linearGradient id="paint0_linear" x1="-0.221666" y1="20.2156" x2="45.637" y2="20.2156" gradientUnits="userSpaceOnUse">
<stop offset="0.00893389" stop-color="#C734F7"/>
<stop offset="0.5754" stop-color="#8C72DA"/>
<stop offset="0.9866" stop-color="#7890D3"/>
</linearGradient>
</defs>
</svg>
