<svg width="39" height="39" viewBox="0 0 39 39" fill="none" xmlns="http://www.w3.org/2000/svg">
<path d="M19.3949 33.4667L3.56152 28.7167L19.3949 20.8L35.2282 25.55L19.3949 33.4667Z" fill="#01579B"/>
<path d="M25.3319 22.5813L19.3944 25.55L13.4569 23.7688L11.3906 24.8019L18.9392 27.0669L19.5408 27.2474L20.1029 26.9663L27.5446 23.2455L25.3319 22.5813Z" fill="#0477D3"/>
<path d="M19.3949 25.5502L3.56152 20.8002L19.3949 12.8835L35.2282 17.6335L19.3949 25.5502Z" fill="#2196F3"/>
<path d="M19.3949 17.6335L3.56152 12.8835L19.3949 4.9668L35.2282 9.7168L19.3949 17.6335Z" fill="#B3E5FC"/>
<path d="M25.3319 14.6648L19.3944 17.6335L13.4569 15.8523L11.3906 16.8854L18.9392 19.1504L19.5408 19.3309L20.1029 19.0498L27.5446 15.329L25.3319 14.6648Z" fill="#1565C0"/>
</svg>
