<svg width="25" height="26" viewBox="0 0 25 26" fill="none" xmlns="http://www.w3.org/2000/svg">
<path fill-rule="evenodd" clip-rule="evenodd" d="M22.8177 7.81239L22.0693 6.51378C21.4362 5.41496 20.0332 5.03589 18.9329 5.66638V5.66638C18.4091 5.97493 17.7841 6.06247 17.1957 5.9097C16.6073 5.75692 16.1039 5.37639 15.7964 4.852C15.5986 4.51869 15.4923 4.13906 15.4882 3.75149V3.75149C15.5061 3.13011 15.2717 2.52797 14.8384 2.08223C14.4051 1.63649 13.8098 1.38512 13.1882 1.38538H11.6805C11.0714 1.38537 10.4875 1.62805 10.0579 2.05972C9.62833 2.49138 9.38845 3.07645 9.39138 3.68545V3.68545C9.37333 4.94284 8.34882 5.95265 7.0913 5.95252C6.70373 5.94849 6.32409 5.8422 5.99079 5.64437V5.64437C4.89046 5.01388 3.48742 5.39295 2.85432 6.49177L2.05094 7.81239C1.4186 8.90984 1.79251 10.312 2.88733 10.9489V10.9489C3.59898 11.3597 4.03738 12.1191 4.03738 12.9408C4.03738 13.7625 3.59898 14.5219 2.88733 14.9327V14.9327C1.7939 15.5653 1.41958 16.9641 2.05094 18.0582V18.0582L2.81029 19.3678C3.10693 19.9031 3.60464 20.298 4.19328 20.4653C4.78192 20.6326 5.41296 20.5585 5.94677 20.2592V20.2592C6.47153 19.953 7.09686 19.8691 7.68377 20.0262C8.27068 20.1833 8.77054 20.5683 9.07223 21.0956C9.27005 21.4289 9.37635 21.8086 9.38038 22.1961V22.1961C9.38038 23.4664 10.4102 24.4962 11.6805 24.4962H13.1882C14.4542 24.4962 15.4822 23.4731 15.4882 22.2071V22.2071C15.4853 21.5962 15.7267 21.0095 16.1587 20.5775C16.5907 20.1455 17.1774 19.9041 17.7883 19.9071C18.175 19.9174 18.553 20.0233 18.8888 20.2152V20.2152C19.9863 20.8475 21.3884 20.4736 22.0253 19.3788V19.3788L22.8177 18.0582C23.1244 17.5318 23.2086 16.9048 23.0516 16.3161C22.8946 15.7274 22.5094 15.2255 21.9813 14.9217V14.9217C21.4532 14.6179 21.068 14.1161 20.911 13.5274C20.754 12.9387 20.8382 12.3117 21.1449 11.7853C21.3443 11.437 21.6331 11.1483 21.9813 10.9489V10.9489C23.0696 10.3123 23.4426 8.91837 22.8177 7.8234V7.8234V7.81239Z" stroke="white" stroke-width="2" stroke-linecap="round" stroke-linejoin="round"/>
<circle cx="12.4397" cy="12.9407" r="3.16949" stroke="white" stroke-width="2" stroke-linecap="round" stroke-linejoin="round"/>
</svg>
