<svg width="23" height="22" viewBox="0 0 23 22" fill="none" xmlns="http://www.w3.org/2000/svg">
<g clip-path="url(#clip0)">
<path fill-rule="evenodd" clip-rule="evenodd" d="M0.0283203 11C0.0283203 4.92493 4.95325 0 11.0283 0C17.1034 0 22.0283 4.92493 22.0283 11C22.0283 17.0751 17.1034 22 11.0283 22C4.95325 22 0.0283203 17.0751 0.0283203 11ZM15.0882 8.73797V9.03629C15.0882 12.0193 12.9882 15.4 9.11497 15.4C7.90168 15.4 6.8284 15.0521 5.89497 14.4058C6.08159 14.4554 6.22159 14.4554 6.40822 14.4554C7.38827 14.4554 8.32154 14.1074 9.02158 13.5108C8.08831 13.5108 7.34165 12.8645 7.06164 11.9695C7.15503 12.0192 7.29504 12.0192 7.43505 12.0192C7.62167 12.0192 7.80829 11.9695 7.99508 11.9197C7.01503 11.7208 6.31515 10.8259 6.31515 9.73209V9.68243C6.59517 9.88125 6.9218 9.98075 7.24843 9.98075C6.6884 9.58293 6.31515 8.93662 6.31515 8.14115C6.31515 7.69367 6.40854 7.34568 6.59517 6.9977C7.66845 8.33998 9.20853 9.23495 10.9351 9.33444C10.8885 9.18528 10.8885 9.03612 10.8885 8.8373C10.8885 7.59434 11.8217 6.60005 12.9884 6.60005C13.595 6.60005 14.1551 6.84871 14.5283 7.29602C15.0416 7.19652 15.4616 6.9977 15.8816 6.74921C15.695 7.29602 15.3684 7.69384 14.9483 7.99217C15.3684 7.9425 15.7884 7.843 16.1616 7.64418C15.8816 8.09166 15.5548 8.48931 15.0882 8.73797Z" fill="#695FDF"/>
<path fill-rule="evenodd" clip-rule="evenodd" d="M0.0283203 11C0.0283203 4.92493 4.95325 0 11.0283 0C17.1034 0 22.0283 4.92493 22.0283 11C22.0283 17.0751 17.1034 22 11.0283 22C4.95325 22 0.0283203 17.0751 0.0283203 11ZM15.0882 8.73797V9.03629C15.0882 12.0193 12.9882 15.4 9.11497 15.4C7.90168 15.4 6.8284 15.0521 5.89497 14.4058C6.08159 14.4554 6.22159 14.4554 6.40822 14.4554C7.38827 14.4554 8.32154 14.1074 9.02158 13.5108C8.08831 13.5108 7.34165 12.8645 7.06164 11.9695C7.15503 12.0192 7.29504 12.0192 7.43505 12.0192C7.62167 12.0192 7.80829 11.9695 7.99508 11.9197C7.01503 11.7208 6.31515 10.8259 6.31515 9.73209V9.68243C6.59517 9.88125 6.9218 9.98075 7.24843 9.98075C6.6884 9.58293 6.31515 8.93662 6.31515 8.14115C6.31515 7.69367 6.40854 7.34568 6.59517 6.9977C7.66845 8.33998 9.20853 9.23495 10.9351 9.33444C10.8885 9.18528 10.8885 9.03612 10.8885 8.8373C10.8885 7.59434 11.8217 6.60005 12.9884 6.60005C13.595 6.60005 14.1551 6.84871 14.5283 7.29602C15.0416 7.19652 15.4616 6.9977 15.8816 6.74921C15.695 7.29602 15.3684 7.69384 14.9483 7.99217C15.3684 7.9425 15.7884 7.843 16.1616 7.64418C15.8816 8.09166 15.5548 8.48931 15.0882 8.73797Z" fill="url(#paint0_linear)"/>
</g>
<defs>
<linearGradient id="paint0_linear" x1="-0.0929289" y1="10.9995" x2="22.1496" y2="10.9995" gradientUnits="userSpaceOnUse">
<stop offset="0.00893389" stop-color="#C734F7"/>
<stop offset="0.5754" stop-color="#8C72DA"/>
<stop offset="0.9866" stop-color="#7890D3"/>
</linearGradient>
<clipPath id="clip0">
<rect width="22" height="22" fill="white" transform="translate(0.0283203)"/>
</clipPath>
</defs>
</svg>
