<svg width="23" height="22" viewBox="0 0 23 22" fill="none" xmlns="http://www.w3.org/2000/svg">
<g clip-path="url(#clip0)">
<path d="M10.1116 12.375L12.8616 10.7544L10.1116 9.16669V12.375Z" fill="#695FDF"/>
<path d="M10.1116 12.375L12.8616 10.7544L10.1116 9.16669V12.375Z" fill="url(#paint0_linear)"/>
<path fill-rule="evenodd" clip-rule="evenodd" d="M0.0283203 11C0.0283203 4.92493 4.95325 0 11.0283 0C17.1034 0 22.0283 4.92493 22.0283 11C22.0283 17.0751 17.1034 22 11.0283 22C4.95325 22 0.0283203 17.0751 0.0283203 11ZM16.3909 13.1552C16.2614 13.9742 15.8648 14.419 15.031 14.5131C14.0992 14.6182 12.0041 14.6667 11.0729 14.6667C10.1093 14.6667 8.16051 14.6263 7.18769 14.5454C6.3515 14.4759 5.78089 14.0095 5.66594 13.1794C5.58234 12.5749 5.52832 11.8565 5.52832 10.7141C5.52832 9.44243 5.57426 8.90433 5.68211 8.32981C5.8361 7.50997 6.22807 7.11284 7.12282 7.0205C8.06173 6.92343 8.94938 6.875 10.9353 6.875C11.9061 6.875 13.9992 6.92521 14.9662 7.01243C15.8106 7.08862 16.2864 7.60447 16.3907 8.42688C16.4635 9.0008 16.5283 9.82242 16.5283 10.7063C16.5285 12.2579 16.3909 13.1552 16.3909 13.1552Z" fill="#695FDF"/>
<path fill-rule="evenodd" clip-rule="evenodd" d="M0.0283203 11C0.0283203 4.92493 4.95325 0 11.0283 0C17.1034 0 22.0283 4.92493 22.0283 11C22.0283 17.0751 17.1034 22 11.0283 22C4.95325 22 0.0283203 17.0751 0.0283203 11ZM16.3909 13.1552C16.2614 13.9742 15.8648 14.419 15.031 14.5131C14.0992 14.6182 12.0041 14.6667 11.0729 14.6667C10.1093 14.6667 8.16051 14.6263 7.18769 14.5454C6.3515 14.4759 5.78089 14.0095 5.66594 13.1794C5.58234 12.5749 5.52832 11.8565 5.52832 10.7141C5.52832 9.44243 5.57426 8.90433 5.68211 8.32981C5.8361 7.50997 6.22807 7.11284 7.12282 7.0205C8.06173 6.92343 8.94938 6.875 10.9353 6.875C11.9061 6.875 13.9992 6.92521 14.9662 7.01243C15.8106 7.08862 16.2864 7.60447 16.3907 8.42688C16.4635 9.0008 16.5283 9.82242 16.5283 10.7063C16.5285 12.2579 16.3909 13.1552 16.3909 13.1552Z" fill="url(#paint1_linear)"/>
</g>
<defs>
<linearGradient id="paint0_linear" x1="10.0964" y1="10.7708" x2="12.8767" y2="10.7708" gradientUnits="userSpaceOnUse">
<stop offset="0.00893389" stop-color="#C734F7"/>
<stop offset="0.5754" stop-color="#8C72DA"/>
<stop offset="0.9866" stop-color="#7890D3"/>
</linearGradient>
<linearGradient id="paint1_linear" x1="-0.0929289" y1="10.9995" x2="22.1496" y2="10.9995" gradientUnits="userSpaceOnUse">
<stop offset="0.00893389" stop-color="#C734F7"/>
<stop offset="0.5754" stop-color="#8C72DA"/>
<stop offset="0.9866" stop-color="#7890D3"/>
</linearGradient>
<clipPath id="clip0">
<rect width="22" height="22" fill="white" transform="translate(0.0283203)"/>
</clipPath>
</defs>
</svg>
